<?xml version="1.0" standalone="no"?>
<!DOCTYPE svg PUBLIC "-//W3C//DTD SVG 1.1//EN" "http://www.w3.org/Graphics/SVG/1.1/DTD/svg11.dtd" >
<svg xmlns="http://www.w3.org/2000/svg" xmlns:xlink="http://www.w3.org/1999/xlink" version="1.1">
<metadata>
Created by FontForge 20170731 at Mon Mar 19 14:44:45 2018
 By Aleksey,,,
Copyright (c) 2018 by Misti's Fonts. All rights reserved.
</metadata>
<defs>
<font id="MakeMagicHappen" horiz-adv-x="381" >
  <font-face 
    font-family="Make Magic Happen"
    font-weight="400"
    font-stretch="normal"
    units-per-em="1000"
    panose-1="0 0 0 0 0 0 0 0 0 0"
    ascent="800"
    descent="-200"
    x-height="347"
    cap-height="690"
    bbox="-784 -609 2162 959.235"
    underline-thickness="50"
    underline-position="-150"
    unicode-range="U+0020-E08B"
  />
<missing-glyph horiz-adv-x="250" 
 />
    <glyph glyph-name="t_t" unicode="tt" horiz-adv-x="357" 
d="M380 228q16 -3 16 -19v-4q0 -1 -1.5 -9.5t-4.5 -22t-7.5 -30.5t-10.5 -35q-36 -108 -85 -108q-11 0 -23.5 4t-25.5 15.5t-25 32.5t-21 55q-17 -54 -38.5 -80.5t-45.5 -26.5q-18 0 -37.5 12.5t-35.5 41.5t-26 76t-10 116t13 128t33 93q-36 -4 -43 -11q0 -5 -6 -11.5
t-14 -6.5t-14 6t-6 14q0 19 14.5 29t42 15t68.5 6t95 1q11 0 25.5 -0.5t30.5 -0.5q29 0 57.5 2t47.5 9q4 16 20 16q8 0 14 -6t6 -14q0 -21 -24.5 -32t-69.5 -14q-4 -9 -9.5 -24.5t-10.5 -42t-8.5 -66t-3.5 -96.5q0 -96 12.5 -145t18.5 -55q6 1 18.5 17.5t27.5 62.5
q11 35 17 63t6 29q3 16 19 16h4zM178 246q0 34 3.5 67.5t10 62.5t15 53t19.5 40q-23 0 -48 0.5t-67 0.5q-2 -2 -7.5 -17t-11 -43.5t-10 -70.5t-4.5 -99q0 -50 4 -86.5t9 -61t10 -37t8 -15.5q5 1 18 17.5t28 62.5q11 35 17 63t6 29v34z" />
    <glyph glyph-name=".notdef" horiz-adv-x="250" 
 />
    <glyph glyph-name=".null" horiz-adv-x="0" 
 />
    <glyph glyph-name="nonmarkingreturn" horiz-adv-x="333" 
 />
    <glyph glyph-name="space" unicode=" " horiz-adv-x="250" 
 />
    <glyph glyph-name="exclam" unicode="!" horiz-adv-x="203" 
d="M115 110q-17 0 -27.5 20t-17 51t-9.5 69.5t-4 76.5q0 19 1 48t4.5 62t10 65.5t18 59t29 43t41.5 16.5q8 0 14 -6t6 -14q0 -17 -16 -19q-2 -3 -7 -23t-10 -61t-9 -104t-4 -152q0 -48 0.5 -79.5t0.5 -32.5q0 -8 -5.5 -14t-15.5 -6zM115 0q-17 0 -29.5 12.5t-12.5 29.5
t12.5 29.5t29.5 12.5t29.5 -12.5t12.5 -29.5t-12.5 -29.5t-29.5 -12.5z" />
    <glyph glyph-name="quotedbl" unicode="&#x22;" horiz-adv-x="211" 
d="M68 638q14 -17 13 -55q0 -6 -0.5 -30.5t-1 -51.5t-1 -48.5l-0.5 -21.5q-1 -8 -8 -13t-15 -3t-13 8.5t-3 14.5q0 4 0.5 18t1 32.5t1 39.5t0.5 39t-1.5 30.5t-3.5 15.5q-5 6 -4 14.5t7 13.5q7 5 15 4t13 -7zM158 638q14 -17 13 -55q0 -6 -0.5 -30.5t-1 -51.5t-1 -48.5
l-0.5 -21.5q-1 -8 -8 -13t-15 -3t-13 8.5t-3 14.5q0 4 0.5 18t1 32.5t1 39.5t0.5 39t-1.5 30.5t-3.5 15.5q-5 6 -4 14.5t7 13.5q7 5 15 4t13 -7z" />
    <glyph glyph-name="numbersign" unicode="#" horiz-adv-x="373" 
d="M350 255q-17 -14 -55 -13h-58q-11 -46 -20.5 -87.5t-17 -72.5t-12 -49l-4.5 -18q-2 -8 -10 -11t-16 0q-7 3 -10.5 10.5t0.5 15.5l51 212q-20 0 -40.5 0.5t-39.5 0.5q-11 -46 -21 -87.5t-17.5 -72.5t-12 -49.5l-4.5 -18.5q-2 -8 -10 -11t-16 0q-7 3 -10.5 10.5t0.5 15.5
l51 214h-32.5t-12.5 1q-8 1 -13 8t-3 15t8.5 13t14.5 3q3 0 15.5 -0.5t31.5 -1.5l17 71q-30 1 -50.5 1t-20.5 1q-8 1 -13 8t-3 15t8.5 13t14.5 3q4 0 24 -0.5t49 -1.5q12 53 23.5 102t19.5 87t12.5 62t3.5 26q-4 8 -1 15.5t10 11.5q8 4 15.5 1t11.5 -10q10 -20 0 -57
l-56 -239h81q12 53 23.5 102t19.5 87.5t12.5 62.5t3.5 26q-4 8 -1 15.5t10 11.5q8 4 15.5 1t11.5 -10q10 -20 0 -57l-56 -239q22 0 36.5 1.5t16.5 3.5q6 5 14.5 4t13.5 -7q5 -7 4 -15t-7 -13q-17 -14 -55 -13h-32l-8 -36t-9 -35q32 0 54 1t25 4q6 5 14.5 4t13.5 -7
q5 -7 4 -15t-7 -13zM127 282q19 -1 39.5 -1h40.5l17 71h-40t-41 1z" />
    <glyph glyph-name="dollar" unicode="$" horiz-adv-x="358" 
d="M196 548q12 -15 13 -38q45 -4 73.5 -36.5t28.5 -81.5q0 -8 -6 -14t-14 -6t-14 6t-6 14q0 33 -17 54t-45 24v-57t-1 -93q19 -10 38.5 -23t37.5 -32q45 -45 45 -119q0 -57 -33 -93.5t-90 -47.5v-27q-1 -8 -8 -13t-15 -3t-13 8.5t-3 14.5v15h-7q-29 -1 -54 10t-43 30.5
t-28.5 46t-10.5 57.5q0 9 6 14.5t14 5.5t14 -5.5t6 -14.5q0 -27 8 -46.5t21.5 -32t30 -19t33.5 -6.5h11q0 39 0.5 96t1.5 119q-21 11 -42.5 21.5t-39 25.5t-28.5 36.5t-11 53.5q0 47 32 78t86 39q0 12 -2 14q-5 6 -4 14.5t7 13.5q7 5 15 4t13 -7zM250 144q0 32 -12 52.5
t-30 34.5q-1 -49 -1 -95v-82q20 13 31.5 35.5t11.5 54.5zM127 392q0 -19 11.5 -30.5t31.5 -22.5q0 36 -0.5 68.5t-0.5 56.5q-17 -8 -29.5 -25.5t-12.5 -46.5z" />
    <glyph glyph-name="percent" unicode="%" horiz-adv-x="264" 
d="M214 628q10 -20 0 -57q-1 -3 -7 -28.5t-15.5 -65.5t-21 -89.5t-23.5 -101t-24 -100t-21 -87t-15 -61.5l-6 -23q-2 -8 -10 -11t-16 0q-7 3 -10.5 10.5t0.5 15.5q1 3 7.5 29t16 67t22 92t25 104t24.5 103.5t21 91t13.5 66t3.5 27.5q-4 8 -1 15.5t10 11.5q8 4 15.5 1
t11.5 -10zM184 0q-17 0 -29.5 12.5t-12.5 29.5t12.5 29.5t29.5 12.5t29.5 -12.5t12.5 -29.5t-12.5 -29.5t-29.5 -12.5zM79 550q-17 0 -29.5 12.5t-12.5 29.5t12.5 29.5t29.5 12.5t29.5 -12.5t12.5 -29.5t-12.5 -29.5t-29.5 -12.5z" />
    <glyph glyph-name="ampersand" unicode="&#x26;" horiz-adv-x="380" 
d="M339 28q9 -8 9 -18q0 -8 -6 -13.5t-14 -5.5q-9 0 -23 9t-29 21t-28.5 25t-22.5 21q-28 -32 -63.5 -49t-67.5 -17q-17 0 -27 5t-16 13.5t-8 18.5t-2 19q0 28 17 75t43 102q-49 101 -49 202q0 30 12.5 57.5t34 48t50.5 32.5t61 12q35 0 53.5 -17t18.5 -49q0 -24 -10.5 -58
t-27.5 -74.5t-38 -87t-42 -95.5q24 -39 59 -78q20 29 36 59t27 54t17 40t6 17q5 14 19 14q9 0 14.5 -6.5t5.5 -13.5q0 -4 -1 -6q0 -1 -7 -19.5t-19 -46t-30 -60t-40 -61.5q20 -19 42 -36.5t46 -33.5zM92 436q0 -77 32 -155q18 42 36 80.5t33 70t24 55.5t9 37q0 22 -16 22
q-27 0 -49 -9.5t-37.5 -25.5t-23.5 -35.5t-8 -39.5zM106 42q26 3 48.5 18t42.5 36q-14 15 -27 31t-24 33q-21 -46 -30 -78t-10 -40z" />
    <glyph glyph-name="quotesingle" unicode="'" horiz-adv-x="157" 
d="M56 638q14 -17 13 -55q0 -6 -0.5 -30.5t-1 -51.5t-1 -48.5l-0.5 -21.5q-1 -8 -8 -13t-15 -3t-13 8.5t-3 14.5q0 4 0.5 18t1 32.5t1 39.5t0.5 39t-1.5 30.5t-3.5 15.5q-5 6 -4 14.5t7 13.5q7 5 15 4t13 -7z" />
    <glyph glyph-name="parenleft" unicode="(" horiz-adv-x="580" 
d="M252 -1q-50 0 -96 29t-80.5 75.5t-55 104.5t-20.5 117q0 36 8.5 56.5t20 30t23.5 12t19 2.5q28 0 48.5 -9t36 -27.5t28.5 -47t26 -66.5q34 81 71 115.5t69 34.5q61 0 87.5 -28.5t27 -71t-19.5 -92.5t-50.5 -92.5t-66.5 -71t-67 -28.5q-8 0 -14 6t-6 15q0 8 7 15
q26 21 51 53t44 67.5t30.5 70.5t11.5 61q0 18 -7.5 36.5t-27.5 18.5q-18 0 -40.5 -25t-46.5 -72q-8 -16 -15 -31t-12 -26q-6 -13 -10 -25q-5 -13 -18 -13q-15 0 -28.5 14.5t-25.5 35.5t-22.5 46.5t-20.5 46.5t-20 35.5t-19 14.5q-13 0 -22.5 -13t-9.5 -49q0 -27 6 -56
t17 -57t25 -54t31 -46q10 -12 23.5 -25t30 -23.5t36.5 -17t43 -6.5q37 0 70.5 8.5t63.5 21.5t55.5 29t45.5 31q41 31 60.5 51t27.5 30.5t11 14.5t12 4q8 0 13.5 -6t5.5 -14q0 -7 -4 -12q-1 -2 -27 -32t-74 -67q-62 -48 -128 -73.5t-132 -25.5z" />
    <glyph glyph-name="parenright" unicode=")" horiz-adv-x="615" 
d="M365 -1q-66 0 -132 25.5t-128 73.5q-48 37 -74 67t-27 32q-4 5 -4 12q0 8 5.5 14t13.5 6q9 0 12 -4t11 -14.5t27.5 -30.5t60.5 -51q20 -15 45.5 -31t55.5 -29t63.5 -21.5t70.5 -8.5q23 0 43 6.5t36.5 17t30 23.5t23.5 25q16 20 30.5 46t25.5 54t17 57t6 56q0 36 -9.5 49
t-22.5 13q-10 0 -19.5 -14.5t-19.5 -35.5t-20.5 -46.5t-22.5 -46.5t-25.5 -35.5t-28.5 -14.5q-13 0 -18 13l-10 25q-5 11 -12 26t-15 31q-24 47 -46.5 72t-40.5 25q-20 0 -27.5 -18.5t-7.5 -36.5q0 -26 11.5 -61t30.5 -70.5t44 -67.5t51 -53q7 -7 7 -15q0 -9 -6 -15t-14 -6
q-31 0 -67 28.5t-66.5 71t-50.5 92.5t-19.5 92.5t26.5 71t88 28.5q32 0 69 -34.5t71 -115.5q13 38 26 66.5t28.5 47t36 27.5t48.5 9q7 0 19 -2.5t23.5 -12t20 -30t8.5 -56.5q0 -59 -20.5 -117t-55 -104.5t-80.5 -75.5t-96 -29z" />
    <glyph glyph-name="asterisk" unicode="*" horiz-adv-x="320" 
d="M120 530l38 113l43 -113l105 9l-88 -90l27 -91l-87 54l-83 -54l23 93l-83 88z" />
    <glyph glyph-name="plus" unicode="+" horiz-adv-x="275" 
d="M125 198q-14 17 -13 55q0 4 -0.5 16t0.5 28h-33t-28.5 0.5t-20 1l-7.5 0.5q-8 1 -13 8t-3 15t8.5 13t14.5 3q5 0 29 -1t53 -2q0 18 0.5 35.5t1 32t1 23.5l0.5 9q1 8 8 13t15 3t13 -8.5t3 -14.5q0 -6 -1 -33.5t-2 -59.5q32 -1 56 0t28 5q6 5 14.5 4t13.5 -7q5 -7 4 -15
t-7 -13q-17 -14 -55 -13h-54q0 -28 1 -49t4 -24q5 -6 4 -14.5t-7 -13.5q-7 -5 -15 -4t-13 7z" />
    <glyph glyph-name="comma" unicode="," horiz-adv-x="134" 
d="M46 -159q-6 0 -10 3q-8 4 -10 11.5t2 15.5q10 17 21.5 41.5t19.5 48.5q9 30 8 42t-3 14q0 1 -2 2.5t-10 1.5t-14 6t-6 14t6 14t14 6q20 0 31 -7.5t16 -15.5q17 -31 -2 -89q-9 -26 -21 -52t-23 -45q-5 -11 -17 -11z" />
    <glyph glyph-name="hyphen" unicode="-" horiz-adv-x="272" 
d="M230 215q-17 -14 -55 -13q-6 0 -27.5 0.5t-44.5 1t-41.5 1l-18.5 0.5q-8 1 -13 8t-3 15t8.5 13t14.5 3q6 0 30 -1t50.5 -1.5t48.5 0t26 4.5q6 5 14.5 4t13.5 -7q5 -7 4 -15t-7 -13z" />
    <glyph glyph-name="period" unicode="." horiz-adv-x="166" 
d="M82 0q-17 0 -29.5 12.5t-12.5 29.5t12.5 29.5t29.5 12.5t29.5 -12.5t12.5 -29.5t-12.5 -29.5t-29.5 -12.5z" />
    <glyph glyph-name="slash" unicode="/" horiz-adv-x="189" 
d="M177 628q10 -20 0 -57q-1 -3 -7 -28.5t-15.5 -65.5t-21 -89.5t-23.5 -101t-24 -100t-21 -87t-15 -61.5l-6 -23q-2 -8 -10 -11t-16 0q-7 3 -10.5 10.5t0.5 15.5q1 3 7.5 29t16 67t22 92t25 104t24.5 103.5t21 91t13.5 66t3.5 27.5q-4 8 -1 15.5t10 11.5q8 4 15.5 1
t11.5 -10z" />
    <glyph glyph-name="zero" unicode="0" horiz-adv-x="441" 
d="M256 507q45 0 75.5 -19t49 -49t27 -68t8.5 -76q0 -24 -4.5 -55.5t-13 -64t-22.5 -64.5t-33.5 -56.5t-44 -40t-55.5 -15.5q-51 0 -91.5 26.5t-68.5 67.5t-42.5 90t-14.5 95q0 51 16.5 93.5t46.5 72.5t72.5 46.5t94.5 16.5zM242 39q36 0 61 30t41.5 71t24 84.5t7.5 70.5
q0 29 -5.5 59.5t-19 55.5t-36.5 41t-59 16q-40 0 -68.5 -14t-47 -38t-27 -56.5t-8.5 -69.5q0 -27 8.5 -69.5t25.5 -82.5t42.5 -69t60.5 -29z" />
    <glyph glyph-name="one" unicode="1" horiz-adv-x="140" 
d="M103 39q16 -4 16 -19q0 -8 -5.5 -14.5t-13.5 -6.5q-29 0 -45 17.5t-23.5 43t-9 53.5t-1.5 48q0 79 8.5 167t25.5 165q2 6 7.5 10t11.5 4q13 0 20 -9.5t10 -22.5t3.5 -26.5t0.5 -22.5q0 -77 -7.5 -152.5t-7.5 -152.5q0 -8 0.5 -19t1.5 -22.5t3 -22.5t5 -18z" />
    <glyph glyph-name="two" unicode="2" horiz-adv-x="344" 
d="M259 180q28 -29 44.5 -70.5t16.5 -82.5q0 -8 -6 -14t-14 -6t-13.5 14.5t-11.5 35.5t-14 43.5t-21 39.5q-10 -20 -25.5 -44.5t-35 -45.5t-42.5 -35.5t-48 -14.5q-17 0 -29.5 8.5t-20 21.5t-11 29t-3.5 30q0 28 10.5 52.5t29 42.5t43.5 28.5t53 10.5q15 0 32 -3
q13 39 21.5 79t8.5 82q0 13 -2 30t-8.5 32t-17.5 25.5t-29 10.5q-29 0 -46.5 -14t-17.5 -45q0 -17 7 -33t7 -32q0 -8 -6.5 -13t-14.5 -5q-9 0 -15.5 10.5t-10 24t-5.5 27.5t-2 21q0 45 27.5 72t71.5 27q36 0 62 -12.5t43 -34.5t25 -50.5t8 -61.5q0 -47 -11 -92.5t-29 -87.5z
M162 183q-41 0 -69 -26t-28 -68q0 -5 1 -13t4 -16t7.5 -14t11.5 -6q11 0 25.5 18.5t27.5 42.5t23.5 47.5t13.5 33.5z" />
    <glyph glyph-name="three" unicode="3" horiz-adv-x="374" 
d="M218 271q27 0 52.5 -7.5t44.5 -22.5t30.5 -37t11.5 -52q0 -35 -17 -62.5t-43 -47t-59 -30t-64 -10.5t-58 8.5t-47.5 25.5t-32 42t-11.5 58q0 8 6 14t14 6t14 -6t6 -14q0 -50 32 -72t77 -22q24 0 44 9.5t34.5 25.5t22 37.5t7.5 44.5q0 41 -26 56t-62 15q-29 0 -57 -10
t-54 -10q-11 0 -17 8q-1 2 -2.5 6t-1.5 6q0 3 8.5 18.5t21.5 36.5t28.5 45t29.5 46t25 38.5l15 22.5q-17 -7 -35 -11.5t-37 -4.5q-35 0 -53.5 20.5t-18.5 55.5q0 8 6 14t14 6q14 0 17 -9t4 -19.5t6 -19t24 -8.5q21 0 41.5 7.5t38.5 16.5t32.5 16.5t23.5 7.5q10 0 24 -6.5
t14 -19.5q0 -2 -9 -17.5t-23.5 -38t-31 -49t-32 -50t-27 -41t-14.5 -22.5l32 4t32 2z" />
    <glyph glyph-name="four" unicode="4" horiz-adv-x="337" 
d="M293 261q14 -5 14 -19q0 -8 -5 -13.5t-13 -7.5q-3 -41 -6.5 -81.5t-3.5 -81.5q0 -7 1.5 -17t1.5 -19.5t-3.5 -16t-14.5 -6.5q-21 0 -32 20.5t-15.5 48t-5 54.5t-0.5 41l1 42q-26 -4 -53.5 -6t-53.5 -2q-15 0 -32.5 1.5t-31.5 7.5t-23.5 17.5t-9.5 31.5q0 17 16 42
t41.5 53t57 55.5t62 51t56 39.5t40.5 21q9 0 13 -6.5t6 -14.5q0 -8 -7 -15q6 -15 7 -33t1 -34q0 -38 -2.5 -76.5t-5.5 -76.5zM147 240q32 0 67 8q5 45 9.5 89.5t9.5 89.5q-13 -11 -38.5 -31t-51 -43.5t-45 -46.5t-19.5 -40q0 -9 8.5 -14t20 -8t22.5 -3.5t17 -0.5z" />
    <glyph glyph-name="five" unicode="5" horiz-adv-x="398" 
d="M141 313q39 0 82.5 -4t80 -19t60.5 -44.5t24 -81.5q0 -40 -23 -71t-57.5 -52.5t-75 -32.5t-74.5 -11q-24 0 -48 6.5t-43.5 19.5t-31.5 33t-12 47q0 8 6 14t14 6q10 0 14 -6.5t6.5 -16t5.5 -20t10 -17.5q14 -14 35 -19.5t41 -5.5q28 0 55 7.5t49 23t35.5 39t13.5 54.5
q0 39 -15 61t-38.5 32.5t-51.5 13t-54.5 2.5t-47.5 2t-29 11q-6 6 -8.5 18t-4 25t-1.5 25v20q0 18 -1 43.5t3 48.5t15 39.5t35 16.5q22 0 45 -2t44 3q5 10 17 10q8 0 14 -6t6 -14q0 -12 -7 -18.5t-17.5 -9.5t-22 -3.5t-19.5 -0.5h-25q-7 -26 -7.5 -56t-0.5 -57
q0 -13 0.5 -26.5t3.5 -26.5z" />
    <glyph glyph-name="six" unicode="6" horiz-adv-x="376" 
d="M226 -2q-94 0 -150 52t-56 148q0 48 17.5 104t50 104t77.5 79.5t100 31.5q8 0 14 -6t6 -14q0 -10 -6 -14t-14 -6q-40 -6 -66 -33.5t-45 -60.5q-26 -45 -40.5 -95.5t-14.5 -101.5q0 -20 2.5 -39.5t10.5 -38.5q9 26 22.5 59t33 62t45.5 49t59 20q23 0 39.5 -10t27 -26.5
t15 -36.5t4.5 -40q0 -28 -8 -61t-24.5 -61t-41.5 -46.5t-58 -18.5zM141 66q17 -16 39.5 -22t45.5 -6q24 0 41 16t28.5 39t17 48t5.5 44q0 11 -2 24t-7 24t-14 18t-23 7q-26 0 -47.5 -22.5t-38 -53.5t-28 -63.5t-17.5 -52.5z" />
    <glyph glyph-name="seven" unicode="7" horiz-adv-x="326" 
d="M103 -3l-12 4q-8 6 -8 13q0 5 10 34.5t25 72.5t33.5 94.5t35.5 100t30 89t18 61.5q-9 -6 -28 -13.5t-40.5 -14t-42 -10.5t-31.5 -4q-38 0 -56 21.5t-18 58.5q0 8 6 14t14 6q15 0 17 -9t3.5 -20.5t7 -20.5t26.5 -9q24 0 50.5 9t53 20t50 20t41.5 9q14 0 21 -8t7 -21
q0 -16 -12 -56t-30.5 -91.5t-41.5 -108.5t-45 -106t-41 -85t-30 -45z" />
    <glyph glyph-name="eight" unicode="8" horiz-adv-x="423" 
d="M268 231q14 -10 36 -26t43 -34.5t36 -39t15 -40.5q0 -28 -15 -45.5t-37 -27.5t-48 -14t-48 -4q-23 0 -44 4t-37 14.5t-26 28t-10 44.5q0 35 18 64.5t41 54.5q-21 15 -51.5 36.5t-58.5 47t-47.5 54t-19.5 58.5q0 39 22 62t54 35t69 15.5t66 3.5q25 0 52 -5.5t50 -18.5
t38 -33.5t15 -50.5q0 -28 -10.5 -53.5t-27 -48t-36.5 -43t-39 -38.5zM341 414q0 21 -12 34t-30 20.5t-38 10.5t-36 3q-15 0 -38 -3.5t-44 -12t-36 -22t-15 -34.5q0 -20 17 -42.5t40.5 -44t47.5 -40t39 -28.5q15 15 33.5 33t34.5 38t26.5 42t10.5 46zM173 91q0 -28 19 -39.5
t44 -11.5q10 0 25 3t29.5 9.5t24.5 16t10 22.5q0 9 -12.5 23t-29 28.5t-33.5 26.5t-25 18q-18 -20 -35 -43.5t-17 -52.5z" />
    <glyph glyph-name="nine" unicode="9" horiz-adv-x="376" 
d="M150 517q94 0 150 -52t56 -148q0 -48 -17.5 -104t-50 -104t-77.5 -79.5t-100 -31.5q-8 0 -14 6t-6 14q0 10 6 14t14 6q40 6 66 33.5t45 60.5q26 45 40.5 95.5t14.5 101.5q0 20 -2.5 39.5t-10.5 38.5q-9 -26 -23 -59t-33.5 -62t-45 -49t-58.5 -20q-23 0 -39.5 10t-27 26.5
t-15 36.5t-4.5 40q0 28 8 61t24.5 61t41.5 46.5t58 18.5zM235 449q-17 16 -39.5 22t-45.5 6q-24 0 -41 -16t-28.5 -39t-17 -48t-5.5 -44q0 -11 2 -24t7 -24t14 -18t23 -7q26 0 47.5 22.5t38 53.5t28 63.5t17.5 52.5z" />
    <glyph glyph-name="colon" unicode=":" horiz-adv-x="174" 
d="M87 0q-17 0 -29.5 12.5t-12.5 29.5t12.5 29.5t29.5 12.5t29.5 -12.5t12.5 -29.5t-12.5 -29.5t-29.5 -12.5zM87 320q-17 0 -29.5 12.5t-12.5 29.5t12.5 29.5t29.5 12.5t29.5 -12.5t12.5 -29.5t-12.5 -29.5t-29.5 -12.5z" />
    <glyph glyph-name="semicolon" unicode=";" horiz-adv-x="143" 
d="M52 -159q-6 0 -10 3q-8 4 -10 11.5t2 15.5q10 17 21.5 41.5t19.5 48.5q9 30 8 42t-3 14q0 1 -2 2.5t-10 1.5t-14 6t-6 14t6 14t14 6q20 0 31 -7.5t16 -15.5q17 -31 -2 -89q-9 -26 -21 -52t-23 -45q-5 -11 -17 -11zM74 320q-17 0 -29.5 12.5t-12.5 29.5t12.5 29.5
t29.5 12.5t29.5 -12.5t12.5 -29.5t-12.5 -29.5t-29.5 -12.5z" />
    <glyph glyph-name="less" unicode="&#x3c;" horiz-adv-x="531" 
d="M106 -168q-7 0 -13.5 6t-6.5 14q0 5 5.5 10.5t11.5 13t11.5 17.5t5.5 23q-24 1 -46 7t-38 15.5t-25.5 24t-9.5 34.5q0 27 20.5 44.5t50.5 17.5q34 0 59.5 -29t29.5 -77q63 1 121 22t106.5 57t85 82.5t57.5 98.5q6 13 19 13q10 0 15 -6.5t5 -13.5q0 -5 -1 -7
q-25 -62 -68.5 -114t-98 -89.5t-117 -59t-125.5 -22.5q0 -13 -5.5 -27.5t-13.5 -26.5t-17.5 -20t-17.5 -8zM72 19q-14 0 -22 -6t-8 -16q0 -16 18.5 -27t60.5 -14q-2 17 -8 31q-5 12 -15 22t-26 10z" />
    <glyph glyph-name="equal" unicode="=" horiz-adv-x="407" 
d="M363 255q-17 -14 -55 -13h-25t-50 0.5t-62 0.5t-60.5 0.5t-46 1l-18.5 0.5q-8 1 -13 8t-3 15t8.5 13t14.5 3q4 0 26 -0.5t53 -1t66 -1t65.5 -0.5t51 1t23.5 4q6 5 14.5 4t13.5 -7q5 -7 4 -15t-7 -13zM363 365q-17 -14 -55 -13h-25t-50 0.5t-62 0.5t-60.5 0.5t-46 1
l-18.5 0.5q-8 1 -13 8t-3 15t8.5 13t14.5 3q4 0 26 -0.5t53 -1t66 -1t65.5 -0.5t51 1t23.5 4q6 5 14.5 4t13.5 -7q5 -7 4 -15t-7 -13z" />
    <glyph glyph-name="greater" unicode="&#x3e;" horiz-adv-x="568" 
d="M463 -168q-8 0 -17.5 8t-17.5 20t-13.5 26.5t-5.5 27.5q-63 1 -125.5 22.5t-117 59t-98 89.5t-68.5 114q-1 2 -1 7q0 7 5 13.5t15 6.5q12 0 19 -13q21 -52 57.5 -98.5t85 -82.5t106.5 -57t121 -22q4 48 29.5 77t59.5 29q30 0 50.5 -17.5t20.5 -44.5q0 -20 -9.5 -34.5
t-25.5 -24t-38 -15.5t-46 -7q0 -13 5.5 -23t11.5 -17.5t11.5 -13t5.5 -10.5q0 -8 -6.5 -14t-13.5 -6zM497 19q-17 0 -26.5 -10t-14.5 -22q-6 -14 -8 -31q42 3 60.5 14t18.5 27q0 10 -8 16t-22 6z" />
    <glyph glyph-name="question" unicode="?" horiz-adv-x="340" 
d="M150 110q-8 0 -14 6t-6 14q0 5 3 10q0 1 17.5 33t37.5 82t37 110t17 117q0 43 -15.5 71t-43.5 28q-26 0 -52 -33.5t-35 -107.5q-1 -9 -7.5 -13t-14.5 -4q-17 2 -17 18q0 41 11.5 74.5t30 57t41 36t43.5 12.5q46 0 73 -17.5t41 -42t17.5 -50.5t3.5 -42q0 -39 -6.5 -75
t-16 -67.5t-20.5 -57t-20 -42.5q-27 -53 -55 -85t-50 -32zM146 0q-17 0 -29.5 12.5t-12.5 29.5t12.5 29.5t29.5 12.5t29.5 -12.5t12.5 -29.5t-12.5 -29.5t-29.5 -12.5z" />
    <glyph glyph-name="at" unicode="@" horiz-adv-x="564" 
d="M488 577q26 -40 34 -85t8 -79q0 -38 -6 -74.5t-16.5 -65t-24.5 -46t-30 -17.5q-18 0 -31.5 8t-22.5 18t-14 18.5t-6 10.5q-7 -11 -16 -24t-19.5 -24t-22.5 -19t-25 -8q-45 0 -71 37.5t-26 99.5q0 63 26 96t73 33q19 0 34 -9.5t25.5 -26t16 -38.5t5.5 -47q0 -9 -6 -14.5
t-14 -5.5q-12 0 -17 16t-9 34.5t-10.5 34.5t-22.5 16q-14 0 -27 -21.5t-13 -68.5q0 -48 13 -72t23 -24q15 10 25.5 23.5t18.5 25.5t15.5 20t15.5 8q22 0 36 -7.5t22.5 -17.5t13.5 -19.5t8 -12.5q4 3 10.5 16.5t13 35t11.5 50t5 61.5q0 101 -43 152.5t-121 51.5q-28 0 -51 -8
t-41 -20.5t-31.5 -28t-22.5 -30.5q-26 -40 -40 -91.5t-14 -108.5q0 -59 15 -109.5t42 -87.5t65 -59t85 -23q25 0 49 1t51 7q2 0 2.5 0.5t2.5 0.5q8 0 14 -6t6 -15q0 -12 -14.5 -17.5t-33.5 -8t-39 -2.5h-30q-71 0 -126 26t-92 70.5t-56 102t-19 120.5q0 69 21 128.5
t57.5 103.5t87 69.5t109.5 25.5q54 0 95.5 -19t68.5 -61z" />
    <glyph glyph-name="A" unicode="A" horiz-adv-x="790" 
d="M814 228q14 -5 16 -19q-1 -3 -5.5 -25.5t-23.5 -75.5q-40 -107 -89 -107q-25 0 -50 12t-47.5 35t-41 57t-30.5 79q-13 -1 -26 -1h-27q-30 0 -60.5 1t-59.5 1q-50 -95 -99 -141t-113 -46q-36 0 -65 14.5t-50 39.5t-32 58t-11 70q0 36 11.5 68t32 56t49.5 38t65 14
q35 0 59.5 -12t40 -31t22.5 -42.5t7 -46.5q14 1 28.5 1h29.5q20 45 38 93.5t35 97.5q18 50 34 97t36 85t46 63.5t63 31.5q10 0 17 -4.5t7 -15.5q0 -8 -5 -13.5t-13 -6.5q-12 -6 -20 -45t-8 -99q0 -67 8.5 -141t24.5 -140q33 5 47.5 12.5t14.5 12.5q0 9 5.5 15.5t14.5 6.5
q8 0 14 -6t6 -14q0 -25 -21 -41.5t-70 -24.5q9 -30 19 -57t21.5 -47t24.5 -32t28 -12q5 0 19 16t32 64q13 34 20 62.5t7 29.5q3 15 20 15h4zM309 156q5 7 8.5 14l7.5 15h-23.5t-22.5 -1q-14 -35 -40 -52t-52 -17q-22 0 -35.5 12t-13.5 31q0 26 24.5 42t84.5 22q0 15 -4 32
t-13.5 30.5t-27 22.5t-44.5 9t-49 -10.5t-37.5 -29t-23.5 -43.5t-8 -53q0 -26 7 -51t21.5 -45.5t37 -33t52.5 -12.5q82 0 151 118zM418 224q29 -1 57.5 -1h55.5q-16 57 -24.5 119t-8.5 122q0 17 1 32t3 30q-14 -33 -27 -71t-27 -77t-29 -78t-31 -75q8 -1 15 -1h15zM232 180
q-23 -4 -33.5 -7.5t-15.5 -6.5q-5 -4 -5 -8q-2 -3 9 -3q10 0 22 6t23 19z" />
    <glyph glyph-name="B" unicode="B" horiz-adv-x="1095" 
d="M1121 228q15 -5 15 -20q0 -2 -0.5 -2.5t-0.5 -2.5q-32 -106 -116 -155t-232 -49q-67 0 -115.5 36t-74.5 109q-5 -21 -8.5 -46.5t-7.5 -48t-9.5 -38t-15.5 -15.5q-21 0 -35.5 35t-23.5 88t-13.5 116.5t-4.5 120.5q0 62 5.5 114.5t14.5 93.5q-21 -33 -41.5 -73t-43 -81
t-48 -79t-56.5 -68t-69 -48t-84 -18q-36 0 -65.5 14.5t-50 39t-31.5 57.5t-11 70q0 38 11.5 70t32.5 55.5t50 37t64 13.5q28 0 51.5 -8.5t40.5 -23.5t27 -36.5t10 -46.5q0 -18 -6.5 -39t-21.5 -38t-39.5 -28.5t-61.5 -11.5q-8 0 -14 6t-6 14t6 14t14 6q38 0 63.5 21t25.5 56
q0 29 -21 52t-68 23q-27 0 -49 -10t-37 -28t-23.5 -43t-8.5 -55q0 -26 7 -51t21.5 -45t37 -32.5t52.5 -12.5q56 0 99.5 34t78.5 85t65.5 110t61.5 110t66 85t79 34q11 0 19 -4t8 -16q0 -8 -6 -14t-14 -6q-4 0 -13 -8t-18.5 -39t-17 -92.5t-7.5 -167.5q0 -45 1.5 -90.5
t3.5 -84.5q49 225 120.5 343t166.5 118q72 0 111.5 -26.5t39.5 -74.5q0 -23 -11 -48t-31 -49t-48 -45t-62 -37q70 -21 112.5 -68.5t42.5 -110.5q0 -29 -11.5 -58.5t-33.5 -51.5q34 12 57 29.5t39 37t25.5 40.5t15.5 42q5 15 20 15q1 0 2 -0.5t3 -0.5zM621 245
q0 -34 9.5 -70.5t29 -66.5t49 -49.5t69.5 -19.5q37 0 64.5 12t45.5 31t27 43.5t9 48.5q0 33 -13 60.5t-36.5 47.5t-55.5 31.5t-71 11.5q-8 0 -13.5 5t-6.5 13q0 8 3.5 14t11.5 8q33 7 65.5 26.5t57.5 44.5t40.5 53.5t15.5 54.5q0 23 -16.5 36.5t-49.5 13.5q-38 0 -71.5 -24
t-62.5 -69t-54.5 -109.5t-46.5 -146.5z" />
    <glyph glyph-name="C" unicode="C" horiz-adv-x="536" 
d="M561 226q15 -5 15 -19q0 -2 -0.5 -3t-0.5 -3q-31 -95 -100 -145q-44 -32 -88 -43t-87 -13q-61 -2 -115.5 21.5t-95.5 68t-65 107.5t-24 141q0 67 21.5 131t60 114t91.5 80.5t115 30.5q45 0 82.5 -14t64 -39.5t41 -62t14.5 -81.5q0 -42 -14 -78t-39.5 -62.5t-60 -42
t-75.5 -15.5q-26 0 -48.5 10.5t-38.5 29.5t-25 44t-9 54t9 53.5t24.5 42.5t38 28t49.5 10q28 0 47.5 -8.5t31 -22t16.5 -29t5 -29.5q0 -15 -5 -31t-17 -29.5t-31 -22t-47 -8.5q-8 0 -14 6t-6 14t6 14t14 6q31 0 45.5 16t14.5 35q0 18 -14.5 33.5t-45.5 15.5q-38 0 -59.5 -27
t-21.5 -67q0 -18 5 -35.5t14.5 -31.5t25 -22.5t36.5 -8.5q33 0 60.5 12t47 33.5t30.5 50.5t11 62q0 29 -9.5 57.5t-29.5 50.5t-50.5 35.5t-72.5 13.5q-44 0 -82.5 -27t-66.5 -71.5t-44 -101t-16 -116.5q0 -72 16.5 -127.5t46 -93.5t70 -57.5t88.5 -19.5q34 0 76 12t77 38
q59 44 83 123q5 14 19 14q2 0 3 -0.5t3 -0.5z" />
    <glyph glyph-name="D" unicode="D" horiz-adv-x="1117" 
d="M1142 228q15 -5 15 -20q0 -11 -8 -29.5t-22 -39t-34.5 -41t-44.5 -36.5q-102 -66 -271 -66q-33 0 -62 11.5t-52.5 31.5t-40.5 47t-27 57q-7 -32 -12 -62t-10 -56v-5q0 -1 1 -2q0 -19 -17 -22q-21 0 -35.5 34t-24 87t-14 116t-4.5 122q0 61 5 114.5t16 94.5
q-22 -33 -43 -73t-43 -81t-47 -79t-56 -68t-69 -48t-85 -18q-37 0 -66 15t-49.5 39.5t-31.5 57.5t-11 69q0 38 11.5 70.5t32.5 56t50 36.5t64 13q28 0 52 -9t41.5 -24.5t27 -36.5t9.5 -45q0 -18 -6.5 -38.5t-21.5 -38t-40 -29t-62 -11.5q-8 0 -14 6t-6 14t6 14t14 6
q40 0 65 22t25 55q0 29 -21.5 52t-68.5 23q-54 0 -86 -38t-32 -98q0 -26 7 -51t21.5 -45t37 -32.5t52.5 -12.5q56 0 99.5 34t79 85t66 110t61.5 110t65.5 85t78.5 34q11 0 19.5 -4t8.5 -16q0 -8 -6 -14t-14 -6q-3 0 -8 -3t-11.5 -13.5t-13 -30.5t-12 -55.5t-9 -87.5
t-3.5 -126q0 -41 1.5 -81.5t3.5 -76.5q47 220 120.5 333.5t165.5 113.5q41 0 74 -21t56 -57.5t35.5 -87t12.5 -109.5q0 -93 -29.5 -173t-81.5 -130q51 12 86.5 32t59.5 43t37 46.5t18 42.5q3 15 19 15q2 0 3 -0.5t3 -0.5zM678 78q40 -42 99 -42q24 0 43.5 9.5t35 24t27 32.5
t19.5 35q22 46 34 105t12 122q0 47 -7 88t-20 71t-31.5 47.5t-40.5 17.5q-36 0 -69 -25t-62 -70t-53.5 -108t-44.5 -139q0 -19 2.5 -41t9.5 -44.5t18 -44t28 -38.5z" />
    <glyph glyph-name="E" unicode="E" horiz-adv-x="574" 
d="M599 226q15 -5 15 -19q0 -2 -0.5 -3t-0.5 -3q-31 -95 -100 -145q-44 -32 -88 -43t-87 -13q-82 -2 -150.5 39.5t-108.5 118.5q-6 -1 -11.5 -1h-10.5q-15 0 -26.5 2.5t-19.5 9.5q-12 9 -12 26q0 8 6 14t14 6q16 0 20 -16q6 -2 23 -2q-24 63 -24 141q0 67 21.5 131t60 114
t91.5 80.5t115 30.5q45 0 82.5 -14t64 -39.5t41 -62t14.5 -81.5q0 -42 -14 -78t-39.5 -62.5t-60 -42t-75.5 -15.5q-26 0 -48.5 10.5t-38.5 29.5t-25 44t-9 54t9 53.5t24.5 42.5t38 28t49.5 10q28 0 47.5 -8.5t31 -22t16.5 -29t5 -29.5q0 -15 -5 -31t-17 -29.5t-31 -22
t-47 -8.5q-8 0 -14 6t-6 14t6 14t14 6q31 0 45.5 16t14.5 35q0 18 -14.5 33.5t-45.5 15.5q-38 0 -59.5 -27t-21.5 -67q0 -18 5 -35.5t14.5 -31.5t25 -22.5t36.5 -8.5q33 0 60.5 12t47 33.5t30.5 50.5t11 62q0 29 -9.5 57.5t-29.5 50.5t-50.5 35.5t-72.5 13.5
q-44 0 -82.5 -27t-66.5 -71.5t-44 -101t-16 -116.5q0 -75 18 -132l34 6q60 11 93.5 14.5t48.5 -9.5q10 -8 10 -22q0 -8 -6 -14t-14 -6q-13 0 -18 11q-4 1 -11.5 1t-22.5 -2q-16 -2 -34.5 -5t-38.5 -7q-8 -2 -14 -3t-13 -2q29 -63 78 -95.5t111 -32.5q34 0 76 12t77 38
q59 44 83 123q5 14 19 14q2 0 3 -0.5t3 -0.5z" />
    <glyph glyph-name="F" unicode="F" horiz-adv-x="668" 
d="M713 674q12 -5 12 -18q0 -9 -6 -14.5t-14 -5.5q-5 0 -7 1q-41 16 -76 16q-29 0 -54 -8.5t-45 -27.5q-15 -14 -25 -29t-16 -38t-8 -57.5t-2 -86.5q0 -24 0.5 -50t0.5 -52q13 3 24 3q17 0 26.5 -9t9.5 -23q0 -8 -6 -14t-14 -6q-13 0 -18 12q-2 0 -9.5 -1t-12.5 -3v-59v-51
t-2 -49q36 12 69.5 20.5t60 19t44.5 26.5t23 43q5 16 20 16q9 0 14.5 -6t5.5 -14v-4q-6 -29 -23 -49t-43 -35t-60 -26.5t-73 -21.5q-11 -3 -22 -5.5t-20 -7.5q-11 -118 -50.5 -173.5t-104.5 -55.5q-33 0 -55 22t-22 57q0 21 10 44t29.5 46t49.5 43.5t70 36.5q1 16 1 32.5
v33.5q0 23 -0.5 47t-0.5 48q-8 -2 -15 -3t-14 -1q-20 0 -32 10t-12 28q0 8 6 14t14 6t13.5 -5t6.5 -13q3 0 10.5 0.5t22.5 4.5q0 15 -0.5 30t-0.5 30q0 38 1 75.5t7 65.5q-57 -69 -114.5 -109.5t-128.5 -40.5q-37 0 -66 15t-49.5 39.5t-31.5 57.5t-11 69q0 38 11.5 70.5
t32.5 56t50 36.5t64 13q28 0 52 -8.5t41 -24t26.5 -36.5t9.5 -46q0 -22 -8 -43t-24.5 -37.5t-40.5 -26.5t-56 -10q-8 0 -14 6t-6 14t6 14t14 6q39 0 64 21.5t25 55.5q0 29 -21 52t-68 23q-54 0 -86 -38t-32 -98q0 -26 7 -51t21.5 -45t37 -32.5t52.5 -12.5q39 0 70.5 13.5
t59 36t52 51t49.5 59.5q29 35 55.5 64.5t54.5 50.5t58 33t65 12q22 0 44.5 -5t46.5 -14zM385 -20q2 13 3.5 27t3.5 29q-31 -14 -53 -30.5t-36.5 -34t-21 -33.5t-6.5 -29q0 -17 9.5 -27.5t27.5 -10.5q9 0 19.5 4t20 15.5t18.5 33t15 56.5z" />
    <glyph glyph-name="G" unicode="G" horiz-adv-x="562" 
d="M587 227q14 -5 14 -19q0 -2 -0.5 -3t-0.5 -3q-12 -35 -33 -60.5t-47 -44.5t-57.5 -33t-64.5 -25q-6 -106 -32.5 -157t-80.5 -53q-33 -1 -55.5 20.5t-22.5 56.5q0 19 8 41t23.5 42.5t39 38.5t53.5 29q0 8 0.5 15t0.5 12q-44 -21 -90 -21q-61 0 -106.5 20t-75.5 56.5
t-45 88.5t-15 117q0 78 23.5 142.5t62.5 110t90 71t106 25.5q46 0 84 -14.5t66 -40.5t43.5 -62t15.5 -80q0 -42 -14 -78t-39 -62.5t-60 -42t-77 -15.5q-54 0 -87 39t-33 98q0 29 9 53.5t25 42.5t38 28t48 10q29 0 48 -8.5t30.5 -21.5t16.5 -29t5 -30q0 -15 -5 -31
t-16.5 -29.5t-31 -22t-47.5 -8.5q-8 0 -14 6t-6 14t6 14t14 6q26 0 43 14t17 37q0 19 -14 34t-46 15q-36 0 -58 -26t-22 -68q0 -18 5 -35t14.5 -31t24.5 -22.5t36 -8.5q34 0 61.5 12.5t47 34t30.5 50t11 61.5q0 29 -9.5 57.5t-29.5 50.5t-50.5 35.5t-72.5 13.5
q-43 0 -81 -26.5t-66.5 -71t-45.5 -101.5t-17 -118q0 -110 42 -172t121 -62q26 0 49 7.5t43 20.5q3 59 12 94.5t20.5 54t25 24.5t26.5 6q20 0 32 -13t12 -36q0 -27 -17.5 -62t-44.5 -64q-1 -7 -0.5 -25.5t0.5 -28.5q25 9 50 19.5t46.5 26t38.5 37t27 51.5q2 6 7 9.5t11 3.5
q5 0 7 -1zM250 -111q5 -12 15 -16t19 -4q4 0 10.5 4t13 18.5t12 43t8.5 78.5q-23 -11 -38.5 -26t-25 -30t-13.5 -28.5t-4 -22.5q0 -10 3 -17zM413 224q6 12 7 21.5t2 15.5q0 9 -4 9q1 0 -1.5 -2t-5.5 -9t-5.5 -20t-2.5 -35z" />
    <glyph glyph-name="H" unicode="H" horiz-adv-x="1046" 
d="M1070 228q15 -5 15 -20v-4q0 -1 -2 -9.5t-6 -22t-9.5 -30l-11.5 -34.5q-38 -107 -88 -107q-23 0 -47.5 16.5t-46 55.5t-36.5 104t-17 162v30.5t1 30.5q-36 -26 -81.5 -55t-103.5 -58q-5 -63 -16.5 -115.5t-28 -90.5t-39 -60t-50.5 -23q-29 0 -49.5 23.5t-20.5 67.5
q0 56 34.5 109.5t93.5 92.5q1 20 1.5 41.5t0.5 42.5q0 71 -5.5 122.5t-13 85.5t-14.5 51t-10 19q-9 -1 -19 -13t-20.5 -31.5t-21 -45t-20.5 -53.5q-22 -58 -47.5 -114t-59 -100t-76.5 -71t-99 -27q-37 0 -66 15t-49.5 39.5t-31.5 57.5t-11 69q0 37 11.5 69.5t32.5 56t50 37
t64 13.5q29 0 53 -9t41 -24.5t26.5 -36.5t9.5 -45q0 -22 -8.5 -43t-25 -37.5t-40.5 -26.5t-56 -10q-8 0 -14 6t-6 14t6 14t14 6q23 0 40 7t28 18t16.5 24.5t5.5 27.5q0 28 -21.5 51.5t-68.5 23.5q-30 0 -52.5 -11.5t-37 -31t-21.5 -44t-7 -49.5q0 -26 7 -51t21.5 -45
t37 -32.5t52.5 -12.5q45 0 79 19.5t59.5 51t45 72.5t36 83t31 83t30.5 73t36 52t46 21q27 0 49 -22.5t37.5 -63.5t24.5 -99.5t9 -131.5q0 -11 0.5 -21t-1.5 -21q53 28 100 57.5t86 60.5q10 108 39.5 172t73.5 66q37 0 55.5 -16.5t18.5 -42.5q0 -35 -28.5 -74.5t-80.5 -91.5
q-4 -20 -3.5 -45t0.5 -48q0 -67 6 -127t15.5 -105.5t21.5 -72t25 -26.5q5 0 19 16t32 64q13 35 20 63t7 29q3 15 20 15h4zM495 167q-22 -41 -22 -78q0 -2 0.5 -10t3 -17t8 -16.5t15.5 -7.5q2 -1 9 6.5t16 29t18 61.5t14 104q-24 -19 -39 -38t-23 -34zM972 632q0 11 -10 14.5
t-21 3.5q-1 -1 -4.5 -6t-8 -18.5t-10 -37t-10.5 -62.5q34 35 49 62.5t15 43.5z" />
    <glyph glyph-name="I" unicode="I" horiz-adv-x="590" 
d="M614 228q16 -5 16 -19q-1 -4 -5.5 -26.5t-23.5 -75.5q-22 -55 -42.5 -81t-46.5 -26q-84 0 -142 133q-45 -67 -101 -100.5t-113 -33.5q-39 0 -68 15.5t-49 40.5t-30 57.5t-10 65.5q0 38 12 70.5t33 56t50 37t64 13.5q58 0 93.5 -33t35.5 -82q0 -19 -6.5 -39.5t-21.5 -38
t-39.5 -28.5t-61.5 -11q-8 0 -14 6t-6 14t6 14t14 6q38 0 63.5 21t25.5 56q0 28 -21.5 51.5t-67.5 23.5q-31 0 -53.5 -12t-37 -31t-21.5 -44t-7 -50t7 -50t21 -44.5t36.5 -32t52.5 -12.5q33 0 62 12.5t53.5 32.5t45 45t36.5 50q-17 57 -27.5 122.5t-10.5 129.5
q0 65 10 113.5t27.5 81t39.5 48.5t46 16q9 0 21 -4.5t23 -18t19 -39.5t8 -69q0 -37 -6.5 -80.5t-18.5 -89.5t-28.5 -91t-36.5 -85q16 -78 42 -124.5t49 -48.5q3 0 7.5 2.5t11.5 11t15.5 24.5t18.5 43q13 35 20 63t7 29q3 15 20 15h4zM407 282q29 69 45.5 143t16.5 134
q0 44 -10 67.5t-21 23.5q-8 0 -16 -15t-14 -41t-10 -62.5t-4 -79.5q0 -42 3.5 -85t9.5 -85z" />
    <glyph glyph-name="J" unicode="J" horiz-adv-x="565" 
d="M589 228q7 -2 11 -7.5t4 -12.5v-4q-6 -32 -20.5 -53.5t-34 -36t-43 -24.5t-48.5 -19q-14 -121 -50 -180.5t-104 -59.5q-32 0 -55 20.5t-23 57.5q0 23 12.5 51t43.5 58q25 24 51 40t52 27q1 23 1.5 46.5t0.5 48.5q0 52 -1 104t-1 104q0 32 1 62t3 58q-19 -61 -36 -118
t-41.5 -100.5t-61 -70t-94.5 -26.5q-37 0 -66 15t-49.5 39.5t-31.5 57.5t-11 69q0 38 11.5 70t32.5 55.5t50 37t64 13.5q28 0 52 -8.5t41.5 -24t27 -36.5t9.5 -46q0 -18 -6 -38.5t-21 -38t-40 -29t-63 -11.5q-8 0 -14 6t-6 14t6 14t14 6q41 0 65.5 22.5t24.5 54.5
q0 29 -21.5 52t-68.5 23q-53 0 -85.5 -38t-32.5 -98q0 -26 7 -51t21.5 -45t37 -32.5t52.5 -12.5q42 0 71 19.5t49.5 53t35 77.5t27.5 93q12 47 25.5 86.5t30.5 68t40.5 45t55.5 18.5q10 0 19 -4t9 -17q0 -11 -7.5 -15t-15.5 -4q-6 0 -11.5 -8t-10.5 -30.5t-8 -63t-3 -104.5
q0 -48 1 -99.5t1 -102.5q0 -68 -3 -131q40 15 67 34.5t36 62.5q3 16 20 16h4zM303 -129q38 2 55.5 49t23.5 119q-26 -12 -47.5 -29t-36.5 -35t-23.5 -35.5t-8.5 -30.5q0 -19 10.5 -28.5t26.5 -9.5z" />
    <glyph glyph-name="K" unicode="K" horiz-adv-x="968" 
d="M992 228q15 -5 15 -20v-4q0 -1 -2 -9.5t-6 -22t-9.5 -30l-11.5 -34.5q-39 -107 -88 -107q-26 0 -50 12.5t-45 32t-38 44t-29 48.5q-54 105 -167 105q1 -46 3.5 -86.5t4.5 -71.5t3.5 -49l1.5 -18q0 -19 -17 -22q-21 0 -35.5 35t-23.5 89t-13.5 117.5t-4.5 120.5
q0 61 5.5 113t14.5 93q-21 -33 -41.5 -73t-43 -81t-48 -79t-56.5 -68t-68.5 -48t-84.5 -18q-36 0 -65.5 14.5t-50 39t-31.5 57.5t-11 70q0 38 11.5 70t32.5 55.5t50 37t64 13.5q28 0 51.5 -8.5t40.5 -23.5t27 -36.5t10 -46.5q0 -18 -6.5 -39t-21.5 -38t-39.5 -28.5
t-61.5 -11.5q-8 0 -14 6t-6 14t6 14t14 6q38 0 63.5 21t25.5 56q0 29 -21 52t-68 23q-27 0 -49 -10t-37 -28t-23.5 -43t-8.5 -55q0 -26 7 -51t21.5 -45t37 -32.5t52.5 -12.5q56 0 99.5 34t78.5 85t65.5 110t61.5 110t66 85t79 34q11 0 19 -4t8 -16q0 -8 -6 -14t-14 -6
q-4 0 -13 -8t-18.5 -39t-17 -92.5t-7.5 -167.5v-62q9 6 26 17t38.5 26t46 33.5t49.5 39.5q80 66 121.5 121.5t41.5 94.5q0 8 6 14t14 6t14 -6t6 -14q0 -37 -27.5 -81.5t-70.5 -90t-96 -89t-105 -77.5q127 -13 177 -108q9 -22 19 -45t21 -42t23.5 -31.5t26.5 -12.5q5 0 19 16
t32 64q6 16 11 32.5t8.5 29.5t5.5 21.5l2 8.5q3 15 20 15h4v0z" />
    <glyph glyph-name="L" unicode="L" horiz-adv-x="945" 
d="M970 228q15 -5 15 -20v-4q0 -1 -2 -9.5t-6 -22t-9 -30t-12 -34.5q-21 -56 -42 -81.5t-46 -25.5q-45 0 -93 11t-94.5 25t-90 28.5t-80.5 21.5q-14 -42 -40.5 -65t-56.5 -23q-21 0 -36 12t-15 31q0 7 2.5 18t12 23.5t29 26.5t53.5 26q1 14 1 29v32q0 35 -0.5 74t-0.5 78
q0 47 2 91.5t10 85.5q-28 -50 -56 -107.5t-64 -106.5t-82.5 -81.5t-110.5 -32.5q-38 0 -67.5 15t-49.5 40t-30.5 58t-10.5 68q0 38 11.5 70t32.5 55.5t50 37t64 13.5q28 0 51.5 -8.5t40.5 -23.5t27 -36.5t10 -46.5q0 -18 -6.5 -39t-21.5 -38t-39.5 -28.5t-61.5 -11.5
q-8 0 -14 6t-6 14t6 14t14 6q39 0 64 22.5t25 54.5q0 29 -21.5 52t-67.5 23q-55 0 -86.5 -38.5t-31.5 -97.5q0 -26 7 -51t21.5 -45t37 -32.5t52.5 -12.5q45 0 80.5 21t64.5 55.5t53 78.5t47 89t45.5 84t46.5 67t51 44t59 16q11 0 20.5 -3.5t9.5 -16.5q0 -8 -5.5 -14
t-13.5 -6q-27 -1 -42 -27t-23 -68t-10.5 -95t-4 -109t-3.5 -110t-9 -98h9q52 0 103 -16.5t95.5 -36t80 -36t56.5 -16.5q5 0 19.5 16t31.5 64q12 34 19.5 62.5t7.5 29.5q3 15 20 15h4zM455 90q-32 -7 -42.5 -23t-10.5 -21q0 -7 11 -7q4 0 10 2t12.5 7t12 15t7.5 27z" />
    <glyph glyph-name="M" unicode="M" horiz-adv-x="1252" 
d="M1277 228q15 -5 15 -20v-4q0 -1 -2 -9.5t-6 -22t-9 -30.5t-12 -35q-41 -107 -88 -107q-50 0 -75.5 71t-25.5 202q0 38 1.5 79t1.5 79q0 77 -10 118.5t-32 41.5q-23 0 -45.5 -18t-52.5 -55q9 -48 9 -105q0 -68 -9.5 -126t-26 -100.5t-39.5 -67t-49 -24.5q-24 0 -38 18.5
t-14 59.5q0 28 7 66t20 79.5t31 84.5t41 81q-5 78 -22 117.5t-34 41.5q-24 0 -47.5 -33t-51 -106.5t-61 -193t-78.5 -291.5q0 -8 -4.5 -14t-12.5 -7q-23 0 -38 35t-24 88t-12.5 116t-3.5 119q0 61 5 114.5t16 95.5q-21 -34 -42 -74t-43.5 -81t-48 -79t-56.5 -67.5
t-68.5 -47.5t-84.5 -18q-37 0 -66 15t-49.5 39.5t-31.5 57.5t-11 69q0 38 11.5 70t32.5 55.5t50 37t64 13.5q28 0 52 -8.5t41.5 -24t27 -36.5t9.5 -46q0 -18 -6.5 -38.5t-21.5 -38t-40 -29t-62 -11.5q-8 0 -14 6t-6 14t6 14t14 6q39 0 64.5 21.5t25.5 55.5q0 28 -21.5 51.5
t-68.5 23.5q-54 0 -86 -38.5t-32 -97.5q0 -26 7 -51t21.5 -45t37 -32.5t52.5 -12.5q46 0 82 21.5t65.5 56t54.5 78.5t49 89q23 44 45 80.5t45.5 64t50 45t58.5 23.5q11 0 19.5 -4t8.5 -16q0 -8 -6 -14t-14 -6q-2 0 -7.5 -2.5t-11.5 -13t-12.5 -30t-12 -53.5t-9 -84.5
t-3.5 -121.5q0 -56 1.5 -110t4.5 -99q39 148 70 251t58.5 167t55 93t60.5 29q38 0 68.5 -29t47.5 -87q23 28 50.5 46t56.5 18q41 0 65.5 -27.5t37.5 -71t16.5 -96t3 -103t-3 -92.5t-2.5 -63q0 -53 4 -81t8.5 -40.5t8.5 -14.5l4 -2q5 0 19 16.5t32 64.5q6 16 11 32.5
t8.5 29.5t5.5 21.5l2 8.5q3 15 20 15h4zM869 396q-27 -61 -43 -121.5t-16 -101.5q0 -26 3.5 -31t5.5 -7q2 3 9 15.5t15 44.5q10 40 17 93.5t9 107.5z" />
    <glyph glyph-name="N" unicode="N" horiz-adv-x="1036" 
d="M1060 228q15 -5 15 -20v-4q0 -1 -2 -9.5t-6 -22t-9 -30t-12 -34.5q-21 -56 -42 -81.5t-46 -25.5q-34 0 -53.5 24t-29.5 67.5t-12.5 103.5t-2.5 131q0 67 -0.5 123t-5 96.5t-15 63t-31.5 22.5q-32 0 -58.5 -33t-53 -106.5t-55.5 -190t-66 -283.5q0 -19 -17 -21
q-21 0 -36 35t-24 88t-13.5 116t-4.5 119q0 61 5 114.5t16 95.5q-21 -34 -42 -74t-43.5 -81t-48 -79t-56.5 -67.5t-68.5 -47.5t-84.5 -18q-37 0 -66 15t-49.5 39.5t-31.5 57.5t-11 69q0 38 11.5 70t32.5 55.5t50 37t64 13.5q28 0 52 -8.5t41.5 -24t27 -36.5t9.5 -46
q0 -18 -6.5 -38.5t-21.5 -38t-40 -29t-62 -11.5q-8 0 -14 6t-6 14t6 14t14 6q39 0 64.5 21.5t25.5 55.5q0 28 -21.5 51.5t-68.5 23.5q-54 0 -86 -38.5t-32 -97.5q0 -26 7 -51t21.5 -45t37 -32.5t52.5 -12.5q46 0 82 21.5t65.5 56t54.5 78.5t49 89q23 44 45 80.5t45.5 64
t50 45t58.5 23.5q11 0 19.5 -4t8.5 -16q0 -8 -6 -14t-14 -6q-2 0 -7.5 -2.5t-11.5 -13t-12.5 -30t-12 -53.5t-9 -84.5t-3.5 -121.5q0 -51 1.5 -101.5t3.5 -92.5q33 142 60 240t55 159t58.5 88t69.5 27q45 0 71.5 -31t39.5 -78.5t16.5 -105t3.5 -109.5q0 -59 -3.5 -118.5
t-3.5 -107.5q0 -29 2 -45.5t6 -24.5t8.5 -9.5t9.5 -1.5t19 16t32 64q6 16 11 32.5t8.5 29.5t5.5 21.5l2 8.5q3 15 20 15h4v0z" />
    <glyph glyph-name="O" unicode="O" horiz-adv-x="560" 
d="M578 229q8 0 14.5 -6.5t6.5 -14.5q0 -16 -10 -30.5t-26.5 -26t-38 -18.5t-44.5 -7t-40 4q-23 -62 -69 -96.5t-100 -34.5q-65 0 -115.5 26.5t-85 72t-52.5 107.5t-18 133q0 70 23.5 134.5t63 114t91.5 79t110 29.5q45 -1 82.5 -16t64 -41.5t41 -62.5t14.5 -78t-14 -78
t-39.5 -62.5t-60 -41.5t-75.5 -15q-27 0 -49 10.5t-38 29t-25 43.5t-9 54t9 53.5t24.5 42.5t38 28t49.5 10q28 0 47.5 -8.5t31 -22t16.5 -29t5 -29.5q0 -15 -5 -31t-17 -29.5t-31 -22t-47 -8.5q-8 0 -14 6t-6 14t6 14t14 6q31 0 45.5 16t14.5 35q0 18 -14.5 33.5t-45.5 15.5
q-38 0 -59.5 -27t-21.5 -67q0 -18 5 -35t14.5 -31t25 -22.5t36.5 -8.5q33 0 60 12t47 33t31 50t11 62q0 30 -9.5 58t-29.5 50.5t-50.5 36t-72.5 13.5t-80.5 -26.5t-67 -71t-45.5 -101.5t-17 -118q0 -60 14 -114t39.5 -95t61 -65.5t78.5 -24.5q24 0 44.5 8.5t37 23t29 33.5
t20.5 39q-35 17 -54 47t-19 56q0 28 18.5 46t44.5 18q29 0 47.5 -24t18.5 -68q0 -25 -6 -50q12 -3 25 -3q9 0 21 1.5t24 6.5t22 14.5t15 25.5q2 7 7.5 11.5t11.5 4.5zM414 182q2 9 3 18.5t1 17.5q0 3 -0.5 11.5t-3 17.5t-8 16t-14.5 7q-10 0 -16.5 -6.5t-6.5 -17.5t9.5 -30
t35.5 -34z" />
    <glyph glyph-name="P" unicode="P" horiz-adv-x="1027" 
d="M1051 228q14 -3 14 -19q0 -4 -1 -6q0 -1 -4 -10.5t-12 -24t-22.5 -33t-35.5 -37.5q-55 -48 -131 -74.5t-173 -26.5q-33 0 -60.5 15t-50.5 47q0 -122 -25.5 -176t-61.5 -54q-9 -1 -15 5.5t-6 14.5t6 14t14 6q1 1 4 5.5t6.5 19.5t6 42.5t2.5 74.5q0 37 -1.5 79t-3 86.5
t-3 89.5t-1.5 89q0 73 5.5 135t16.5 103q-24 -31 -46 -72t-45.5 -85t-50 -86.5t-59 -76.5t-72.5 -54.5t-90 -20.5q-37 0 -66 15t-49.5 39.5t-31.5 57.5t-11 69q0 38 11.5 70t32.5 55.5t50 37t64 13.5q58 0 93.5 -33t35.5 -82q0 -19 -6 -39.5t-21 -38t-40 -28.5t-62 -11
q-8 0 -14 6t-6 14t6 14t14 6q40 0 64.5 21t24.5 56q0 28 -21.5 51.5t-67.5 23.5q-27 0 -49 -10.5t-37 -28.5t-23.5 -43t-8.5 -54q0 -26 7 -51t21.5 -45t37 -32.5t52.5 -12.5q46 0 82 21t65.5 55.5t54.5 78.5t49 89q24 46 47.5 84.5t48 66.5t52 44t59.5 16q9 0 16 -5t7 -15
q0 -12 -6.5 -16t-17.5 -4q-4 0 -10 -12.5t-12 -44.5t-10 -86.5t-4 -138.5q41 152 86 236t104 84q39 0 70.5 -19t54 -54.5t35 -85.5t12.5 -113q0 -55 -9 -109t-26 -103t-41 -89t-53 -66q92 21 151 74q19 17 31 32.5t20 28.5q9 15 14 28q2 7 7 10.5t11 3.5q5 0 7 -1zM578 154
q1 -4 6.5 -22.5t17.5 -39.5t31.5 -38t46.5 -17q42 0 75 35.5t56.5 92.5t36 128t12.5 142q0 46 -6 85.5t-17.5 68.5t-28.5 45.5t-39 16.5q-27 0 -52.5 -35.5t-48.5 -93.5t-44 -131.5t-40 -149.5q-6 -23 -6 -44v-43z" />
    <glyph glyph-name="Q" unicode="Q" horiz-adv-x="561" 
d="M584 228q16 -5 16 -20q0 -18 -10.5 -33t-27.5 -26t-38.5 -17t-42.5 -6q-23 0 -40 4q-17 -47 -46.5 -75.5t-66.5 -45.5q0 -2 0.5 -2.5t0.5 -2.5q14 -36 27.5 -64.5t29 -48.5t36.5 -30.5t50 -10.5q27 0 39.5 16.5t12.5 36.5t-12.5 36t-39.5 16q-18 0 -26 -7.5t-8 -16.5
q0 -11 8.5 -14.5t18.5 -5.5t18.5 -6t8.5 -16q0 -8 -6 -14t-14 -6q-33 0 -53.5 18t-20.5 44q0 27 21 45.5t53 18.5q22 0 39.5 -8t29 -21t17.5 -29.5t6 -33.5q0 -39 -26 -66t-66 -27q-37 0 -65 14.5t-50 40t-39 60.5t-30 75q-4 0 -7.5 -0.5t-8.5 -0.5q-94 0 -157 52.5
t-92 140.5q-2 5 -4.5 17t-5.5 16q-12 54 -12 113q0 70 23.5 134.5t63 114t91.5 79t110 29.5q45 -1 82.5 -16t64 -41.5t41 -62.5t14.5 -78t-14 -78t-39.5 -62.5t-60 -41.5t-75.5 -15q-8 0 -14 5.5t-6 14.5q0 8 6 14t14 6q33 0 60 12t47 33t31 50t11 62q0 30 -9.5 58
t-29.5 50.5t-50.5 36t-72.5 13.5t-80.5 -26.5t-67 -71t-45.5 -101.5t-17 -118q0 -50 10 -93q44 -6 78 -24t61 -44t47.5 -59.5t36.5 -71.5q33 12 55.5 38.5t35.5 58.5q-35 17 -54 47t-19 56q0 28 18.5 46t44.5 18q29 0 47.5 -24t18.5 -68q0 -25 -6 -50q12 -3 25 -3
q9 0 21 1.5t24 6.5t22 14.5t15 25.5q2 7 7.5 11.5t11.5 4.5q2 0 2.5 -0.5t2.5 -0.5zM272 39q-12 28 -27 54t-35 48t-47 37.5t-63 23.5q23 -73 67.5 -117t104.5 -46zM415 182q2 9 3 18.5t1 17.5q0 3 -0.5 11.5t-3 17.5t-8 16t-14.5 7q-10 0 -16.5 -6.5t-6.5 -17.5t9.5 -30
t35.5 -34z" />
    <glyph glyph-name="R" unicode="R" horiz-adv-x="1040" 
d="M1064 228q15 -5 15 -20v-4q0 -1 -2 -9.5t-6 -22t-9 -30t-12 -34.5q-21 -56 -42 -81.5t-46 -25.5q-30 0 -56 10t-52 25.5t-53 33t-58 33t-66.5 26.5t-79.5 12q-4 -21 -7 -45.5t-6.5 -45.5t-9.5 -36t-16 -18q-26 0 -41 34t-23.5 87t-11 116t-2.5 122q0 61 5 114.5t16 94.5
q-22 -33 -43 -73t-43 -81t-47 -79t-56 -68t-69 -48t-85 -18q-37 0 -66 15t-49.5 39.5t-31.5 57.5t-11 69q0 38 11.5 70.5t32.5 56t50 36.5t64 13q28 0 52 -9t41.5 -24.5t27 -36.5t9.5 -45q0 -18 -6.5 -38.5t-21.5 -38t-40 -29t-62 -11.5q-8 0 -14 6t-6 14t6 14t14 6
q40 0 65 22t25 55q0 29 -21.5 52t-68.5 23q-54 0 -86 -38t-32 -98q0 -26 7 -51t21.5 -45t37 -32.5t52.5 -12.5q56 0 99.5 34t79 85t66 110t61.5 110t65.5 85t78.5 34q11 0 19.5 -4t8.5 -16q0 -8 -6 -14t-14 -6q-3 0 -8 -3t-11.5 -13.5t-13 -30.5t-12 -55.5t-9 -87.5
t-3.5 -126q0 -42 1.5 -84t3.5 -80q23 107 52.5 191.5t65.5 143.5t78.5 90.5t90.5 31.5q71 0 110 -34t39 -91q0 -50 -24.5 -100.5t-65 -95.5t-92.5 -81t-107 -57q68 -12 110 -34t68 -43.5t41.5 -38t31.5 -16.5q5 0 19 16t32 64q6 16 11 32.5t8.5 29.5t5.5 21.5l2 8.5
q3 15 20 15h4zM665 384q-18 -48 -32.5 -98.5t-25.5 -101.5q61 14 117.5 49.5t100.5 82.5t70.5 100t26.5 101q0 72 -66 75q-56 0 -102.5 -49.5t-88.5 -158.5z" />
    <glyph glyph-name="S" unicode="S" horiz-adv-x="585" 
d="M609 226q14 -5 14 -19q0 -2 -0.5 -3t-0.5 -3q0 -1 -4 -10t-12 -23t-20.5 -32t-30.5 -36q-54 -55 -123.5 -77.5t-148.5 -22.5q-33 0 -59.5 12t-45.5 33.5t-29 52t-10 66.5q0 8 6 14t14 6t14 -6t6 -14q0 -57 27.5 -90.5t75.5 -33.5q17 0 36 5t35 16.5t26.5 30t10.5 45.5
q0 17 -11.5 30.5t-30.5 25.5t-44.5 22.5t-53.5 21.5q-49 19 -94 41.5t-79.5 52.5t-55.5 69.5t-21 92.5q0 51 30 88.5t75 63t97.5 38t97.5 12.5q59 0 106 -15.5t79.5 -43t50 -65t17.5 -80.5q0 -35 -14.5 -64.5t-39.5 -51t-58.5 -33.5t-72.5 -12q-38 0 -71.5 11.5t-58.5 32.5
t-39 50.5t-14 65.5q0 25 9 47.5t25 39t38.5 26t48.5 9.5q30 0 51 -9t33.5 -23.5t18 -31.5t5.5 -32q0 -16 -5.5 -33.5t-18 -31.5t-33 -23.5t-51.5 -9.5q-8 0 -14 6t-6 14t6 14t14 6q30 0 49 17t19 41q0 20 -16.5 38t-51.5 18q-34 0 -57.5 -23t-23.5 -57q0 -56 40 -89t102 -33
q26 0 52 7.5t47 23t34 38.5t13 54q0 72 -56 115t-151 47q-48 0 -89.5 -10.5t-72 -30.5t-48.5 -49t-18 -65t16 -63.5t43.5 -50t63.5 -41t76 -36.5q41 -20 76 -38.5t60.5 -39.5t40 -46t14.5 -58q0 -29 -17 -54q36 17 61 41t41 46t23.5 37.5t7.5 16.5q2 6 7 9.5t11 3.5
q5 0 7 -1z" />
    <glyph glyph-name="T" unicode="T" horiz-adv-x="686" 
d="M709 228q16 -5 16 -20v-4q0 -1 -2 -9.5t-6 -22t-9 -30t-12 -34.5q-40 -107 -88 -107q-43 0 -78 28t-59.5 77t-38 116t-13.5 144q0 90 20 164q-30 -40 -61.5 -76t-66 -63t-72.5 -43t-81 -16q-36 0 -65 14.5t-50 39.5t-32 58t-11 70q0 38 11.5 70.5t32.5 56t50 36.5t64 13
q28 0 52 -9t41 -24.5t27 -36.5t10 -45q0 -22 -8.5 -43t-25 -37.5t-40.5 -26.5t-56 -10q-8 0 -14 6t-6 14t6 14t14 6q40 0 65 21.5t25 55.5q0 28 -21.5 51.5t-68.5 23.5q-27 0 -49 -10.5t-37.5 -29t-23.5 -43.5t-8 -53q0 -26 7 -51t21.5 -45.5t37 -33t52.5 -12.5
q51 0 90.5 23.5t74 59.5t66.5 77t66.5 77t75 59.5t92.5 23.5q10 0 27 -1.5t33.5 -6t29 -11.5t12.5 -18q0 -8 -5.5 -14t-13.5 -6q-4 0 -8 2q-41 15 -75 15q-28 0 -52 -9t-45 -24q-19 -27 -29 -78.5t-10 -119.5q0 -69 10.5 -137t27 -122t38 -87.5t44.5 -33.5q6 0 19.5 16
t31.5 64q12 34 19.5 62.5t8.5 29.5q3 15 19 15h4v0z" />
    <glyph glyph-name="U" unicode="U" horiz-adv-x="1099" 
d="M1124 228q14 -4 16 -18v-1q-1 -3 -5 -25.5t-24 -76.5q-40 -107 -89 -107q-44 0 -82.5 33.5t-65.5 96.5q-41 -64 -89 -97t-101 -33t-94.5 31.5t-70.5 86t-44.5 127t-15.5 153.5q0 61 9 112q-27 -50 -56 -105t-65 -101t-82 -76t-107 -30q-36 0 -65.5 14.5t-50 39
t-31.5 57.5t-11 70q0 38 11.5 70t32.5 55.5t50 37t64 13.5q57 0 93 -32t36 -83q0 -19 -6.5 -39.5t-21.5 -38t-39.5 -28.5t-61.5 -11q-8 0 -14 6t-6 14t6 14t14 6q37 0 63 20.5t26 56.5q0 28 -21.5 51.5t-67.5 23.5q-31 0 -53 -11.5t-36.5 -31t-21.5 -44t-7 -49.5
q0 -26 7 -51t21.5 -45t37 -32.5t52.5 -12.5q57 0 100 34t77.5 85t64 110t61 110t68 85t84.5 34q11 0 16.5 -6t5.5 -14t-6 -14t-14 -6q-17 0 -31 -21t-24 -56t-16 -82t-6 -98q0 -63 8 -126.5t26 -115.5t45.5 -84.5t66.5 -32.5q94 0 171 137q-19 57 -29.5 123.5t-10.5 132.5
q0 74 12 123.5t30.5 79.5t40 42.5t41.5 12.5q7 0 17 -4t19 -17t15 -38t6 -66q0 -38 -5.5 -82t-16 -90.5t-24.5 -91.5t-30 -84q16 -85 45.5 -131.5t56.5 -46.5q5 0 19 16.5t32 64.5q13 34 20 62.5t7 29.5q3 15 20 15h4zM894 455q0 -83 12 -162q26 75 38 148.5t12 124.5
q0 38 -6.5 63.5t-10.5 21.5q-17 0 -31 -53.5t-14 -142.5z" />
    <glyph glyph-name="V" unicode="V" horiz-adv-x="1012" 
d="M1040 227q12 -5 12 -19q0 -5 -1 -7q-17 -30 -49 -50t-67 -21q-23 -1 -44.5 4.5t-41.5 19.5q-32 -77 -67.5 -116.5t-69.5 -39.5q-28 0 -52 17.5t-44 43.5t-35 55t-25 53q-16 37 -28 78.5t-20.5 83.5t-12.5 83.5t-4 78.5q0 17 1.5 33.5t3.5 30.5q-22 -34 -42.5 -73.5
t-42.5 -79t-47 -76.5t-55.5 -65.5t-67.5 -45.5t-83 -17q-37 0 -66 15t-49.5 39.5t-31.5 57.5t-11 69q0 38 11.5 70.5t32.5 56t50 36.5t64 13q29 0 53 -9t41 -24.5t26.5 -36.5t9.5 -45q0 -18 -6.5 -39t-21.5 -38t-40 -28.5t-62 -11.5q-8 0 -14 6t-6 14t6 14t14 6q38 0 64 21
t26 56q0 28 -21.5 51.5t-68.5 23.5q-27 0 -49 -10.5t-37 -28.5t-23.5 -43t-8.5 -54q0 -26 7 -51t21.5 -45t37 -32.5t52.5 -12.5q45 0 81 21t66 55.5t55 78t49 88.5q24 46 47 84.5t48 66.5t52 44t60 16q9 0 15.5 -5.5t6.5 -14.5q0 -20 -22 -20q-8 0 -17 -6.5t-16.5 -23.5
t-12 -46t-4.5 -74q0 -75 15 -156.5t37.5 -150t47.5 -113t46 -44.5q18 0 46.5 35.5t60.5 111.5q-26 37 -41 89t-15 114q0 45 8.5 80t22 59t30.5 36t34 12q8 0 19 -3t21 -14.5t17 -33.5t7 -59q0 -52 -14 -121.5t-39 -138.5q11 -17 29 -25.5t38 -8.5q33 0 60 24q8 7 12.5 13
t7.5 10.5t6.5 7t9.5 2.5q5 0 8 -1zM845 260q17 57 27 110.5t10 94.5q0 27 -3 41.5t-7 21t-8 7t-5 0.5q-4 0 -9.5 -10.5t-10.5 -29.5t-8.5 -44.5t-3.5 -55.5q0 -36 5 -71t13 -64z" />
    <glyph glyph-name="W" unicode="W" horiz-adv-x="1291" 
d="M1291 214q4 9 12 11t14.5 -0.5t10 -9.5t0.5 -16q0 -1 -6.5 -12t-21 -23.5t-39 -22.5t-61.5 -10q-18 0 -34.5 4t-30.5 14q-32 -72 -66 -111t-68 -39q-45 0 -88.5 34.5t-82.5 100.5q-4 8 -7 12q-32 -71 -66 -109t-67 -38q-27 0 -54 19.5t-52 53t-46.5 78.5t-37 96.5
t-24.5 106t-9 107.5q0 14 0.5 27.5t1.5 25.5q-25 -50 -54.5 -105.5t-66.5 -102t-84 -77t-108 -30.5q-37 0 -66 15t-49.5 39.5t-31.5 57.5t-11 69q0 38 11.5 70t32.5 55.5t50 37t64 13.5q28 0 52 -8.5t41.5 -24t27 -36.5t9.5 -46q0 -18 -6.5 -38.5t-21.5 -38t-40 -29
t-62 -11.5q-8 0 -14 6t-6 14t6 14t14 6q39 0 64.5 21.5t25.5 55.5q0 28 -21.5 51.5t-68.5 23.5q-54 0 -86 -38.5t-32 -97.5q0 -26 7 -51t21.5 -45t37 -32.5t52.5 -12.5q58 0 101 33.5t77.5 84.5t63.5 109.5t60.5 109.5t68.5 84.5t87 33.5q9 0 15.5 -5.5t6.5 -14.5
t-6.5 -14.5t-16.5 -5.5q-11 0 -23 -7t-22 -26t-16.5 -52t-6.5 -85q0 -48 7 -99.5t18.5 -101t26.5 -93.5t31 -77.5t32 -53t30 -19.5q18 0 48 37t62 117q-26 59 -42 122.5t-16 118.5q0 65 24.5 103t72.5 38q31 0 47 -28t16 -81q0 -45 -10.5 -103.5t-30.5 -118.5
q15 -44 33.5 -81.5t37 -65t36.5 -43t33 -15.5q17 0 44.5 32.5t56.5 103.5q-17 18 -30 42.5t-22 53.5t-14 61.5t-5 65.5q0 79 26 128t70 49q38 0 57.5 -32t19.5 -94q0 -53 -13.5 -120t-37.5 -133q9 -11 20 -18t25 -7q28 0 46 6t28.5 14t14.5 15t4 8zM839 312q11 43 17 83
t6 71q0 27 -3.5 41.5t-7.5 20.5t-7.5 6.5t-4.5 0.5q-8 1 -13 -5q-5 -5 -9 -19t-4 -43q0 -32 7 -72t19 -84zM1164 449q0 43 -10 64.5t-25 21.5q-4 0 -9 -10t-9 -27.5t-7 -40.5t-3 -49q0 -45 6.5 -88t19.5 -76q17 55 27 108.5t10 96.5z" />
    <glyph glyph-name="X" unicode="X" horiz-adv-x="1110" 
d="M1133 228q7 -2 11 -7.5t4 -12.5v-4q0 -1 -2 -9.5t-6 -22t-9 -30.5t-12 -35q-21 -56 -42 -81.5t-46 -25.5q-29 0 -65.5 12t-74 35.5t-74 57.5t-65.5 78q-42 -56 -71.5 -105t-29.5 -83q0 -8 -6 -14t-14 -6t-14 6t-6 14q0 38 29 91.5t87 130.5q-32 45 -57.5 94.5t-43.5 100
t-27.5 99.5t-9.5 94q0 24 3 48q-27 -8 -50 -31.5t-44.5 -57t-42 -74t-42.5 -81t-47.5 -78.5t-56 -67.5t-68 -47.5t-84.5 -18q-36 0 -65.5 14.5t-50 39t-31.5 57.5t-11 70q0 38 11.5 70t32.5 55.5t50 37t64 13.5q57 0 93 -32t36 -83q0 -19 -6.5 -39.5t-21.5 -38t-39.5 -28.5
t-61.5 -11q-8 0 -14 6t-6 14t6 14t14 6q37 0 63 20.5t26 56.5q0 28 -21.5 51.5t-67.5 23.5q-55 0 -86.5 -39t-31.5 -97q0 -26 7 -51t21.5 -45t37 -32.5t52.5 -12.5q55 0 97.5 32.5t77 82t64 108t61 109t66.5 86t81 39.5q5 5 15 5q8 -1 13 -6.5t5 -13.5q0 -41 9.5 -88.5
t27.5 -99t44 -105.5t59 -106q40 50 78 101t68 97.5t48 86.5t18 70q0 8 6 14t14 6t14 -6t6 -14q0 -41 -20.5 -88t-53.5 -97t-74 -102t-81 -104q31 -47 63 -84.5t62 -64.5t57.5 -41.5t48.5 -14.5q5 0 19 16.5t32 64.5q6 16 11 32.5t8.5 29.5t5.5 21.5l2 8.5q2 7 7.5 11t12.5 4
h4v0z" />
    <glyph glyph-name="Y" unicode="Y" horiz-adv-x="1063" 
d="M1086 227q14 -5 14 -19q0 -2 -0.5 -3t-0.5 -3q-24 -72 -90 -114q-11 -7 -32 -16.5t-42 -18t-36.5 -14.5l-15.5 -6q-9 -109 -34 -156.5t-65 -47.5q-34 0 -55.5 21.5t-21.5 56.5q0 18 7 39t21 40.5t35 37t49 29.5v29.5t-1 31.5q-62 -54 -134 -54q-52 0 -93.5 28.5t-71 78.5
t-45 118t-15.5 147q0 42 6 83q-27 -50 -55.5 -104t-64 -99t-81 -74.5t-106.5 -29.5q-37 0 -66 15t-49.5 39.5t-31.5 57.5t-11 69q0 38 11.5 70.5t32.5 56t50 36.5t64 13q28 0 52 -8.5t41 -24t26.5 -36.5t9.5 -46q0 -18 -6 -39t-21 -38t-40 -28.5t-62 -11.5q-8 0 -14 6t-6 14
t6 14t14 6q23 0 39.5 7t27.5 18t16.5 24.5t5.5 27.5q0 29 -21 52t-68 23q-54 0 -86 -38t-32 -98q0 -26 7 -51t21.5 -45t37 -32.5t52.5 -12.5q57 0 99.5 33.5t77 83.5t64.5 109t60.5 110t65.5 85.5t80 36.5q11 0 20.5 -3.5t9.5 -16.5q0 -8 -6 -14t-14 -6q-20 0 -34.5 -21.5
t-24 -55t-14 -75.5t-4.5 -83q0 -58 8 -117t25.5 -106.5t45.5 -77.5t67 -30q42 0 74.5 20t58.5 49q0 46 -2 93.5t-2 93.5q0 162 23.5 236t81.5 74q8 0 19.5 -4.5t22 -18t17.5 -39t7 -67.5q0 -41 -7 -85t-19.5 -88.5t-30 -86t-38.5 -77.5q0 -65 -3 -123q27 9 54 20t50 26.5
t41.5 37.5t29.5 54q5 13 18 13q5 0 7 -1zM889 288q26 60 40.5 126t14.5 123q0 38 -7.5 63.5t-18.5 25.5q-2 -2 -5.5 -7t-7.5 -17t-7 -32.5t-5 -53.5q-3 -48 -3.5 -106.5t-0.5 -121.5zM750 -111q5 -12 14.5 -16t18.5 -4q-1 0 4.5 1.5t12 14.5t12.5 41.5t6 81.5
q-21 -11 -34.5 -25t-21.5 -28.5t-11.5 -27t-3.5 -20.5q0 -11 3 -18z" />
    <glyph glyph-name="Z" unicode="Z" horiz-adv-x="896" 
d="M919 228q15 -5 15 -19q0 -21 -11 -38.5t-28.5 -32t-40 -24.5t-46.5 -16q15 -38 15 -76q0 -41 -14.5 -76t-40.5 -61t-61.5 -40.5t-76.5 -14.5q-30 0 -58 11t-50 30t-35.5 44t-13.5 52q0 37 20 66t53.5 49t77 30.5t90.5 10.5q-26 38 -72 62t-115 24q-8 0 -14 6t-6 14t6 14
t14 6q58 0 104.5 26t79 65.5t50 86t17.5 88.5q0 63 -35.5 98t-99.5 35q-35 0 -63 -17t-52.5 -45.5t-46.5 -65t-44 -75.5q-29 -51 -58.5 -95.5t-63 -78.5t-72 -53.5t-85.5 -19.5q-36 0 -65.5 14.5t-50 39t-31.5 57.5t-11 70t11.5 69.5t32 56t49.5 37t65 13.5q57 0 93 -32
t36 -83q0 -22 -8 -43t-24.5 -37.5t-40.5 -26.5t-56 -10q-8 0 -14 6t-6 14t6 14t14 6q23 0 39.5 7t27.5 18t16.5 24.5t5.5 27.5q0 28 -21.5 51.5t-67.5 23.5q-55 0 -86.5 -39t-31.5 -97q0 -26 7 -51t21.5 -45t37 -32.5t52.5 -12.5q40 0 73.5 18.5t63 49.5t55.5 72t52 87
t52 86.5t55 71t62 48t72 17.5q51 0 90 -13.5t65.5 -38.5t40.5 -59t14 -75q0 -45 -15.5 -87t-42.5 -77t-62.5 -63t-74.5 -44q44 -16 76.5 -39t54.5 -57q39 8 67.5 25.5t38.5 53.5q3 15 18 15q2 0 3 -0.5t3 -0.5zM520 -62q13 -29 43.5 -48.5t61.5 -19.5q27 0 49 11t38 30.5
t25 46t9 57.5q0 37 -12 70q-42 -5 -81.5 -11t-70 -18.5t-49.5 -33.5t-19 -54q0 -15 6 -30z" />
    <glyph glyph-name="bracketleft" unicode="[" horiz-adv-x="987" 
d="M763 -1q-62 0 -124.5 25t-123.5 55.5t-118 55.5t-107 25q-44 0 -79.5 -8.5t-63.5 -22.5q8 -26 8 -48q0 -36 -18 -58t-48 -22q-27 0 -44 14.5t-17 38.5q0 23 17.5 45.5t47.5 44.5q-11 11 -27.5 23t-46.5 12q-8 0 -14 6t-6 14t6 14t14 6q22 0 39.5 -5.5t31 -14t23 -18
t15.5 -17.5q39 17 77.5 26.5t84.5 9.5q37 0 75.5 -12t78.5 -30t80.5 -38.5t80.5 -38.5t80 -30t78 -12q96 0 170 88q14 17 24 32.5t17 28.5q8 15 13 28t19 13q9 0 14 -6t5 -14q0 -5 -1 -7q0 -4 -8 -20.5t-23 -39t-37.5 -48t-51.5 -46.5t-64.5 -35t-76.5 -14zM111 108
q-23 -19 -33 -32t-10 -24q0 -8 8 -9.5t13 -1.5q9 0 14 5t8 11.5t3.5 13t0.5 10.5q0 15 -4 27z" />
    <glyph glyph-name="bracketright" unicode="]" horiz-adv-x="1028" 
d="M263 -1q-58 0 -108.5 26.5t-91.5 75.5q-31 38 -46 68.5t-15 32.5q-2 4 -2 7q0 8 5.5 14t13.5 6q15 0 20 -13t13 -28q7 -13 17 -28.5t24 -32.5q74 -88 170 -88q57 0 117.5 25t121 55.5t119.5 55.5t115 25q45 0 84 -9.5t78 -26.5q6 8 15.5 17.5t23 18t31 14t39.5 5.5
q8 0 14 -6t6 -14t-6 -14t-14 -6q-30 0 -46.5 -12t-27.5 -23q30 -22 47 -44.5t17 -45.5q0 -24 -17 -38.5t-43 -14.5q-30 0 -48 22t-18 58q0 22 8 48q-28 14 -63.5 22.5t-79.5 8.5q-34 0 -70.5 -12t-75.5 -30t-79.5 -38.5t-82 -38.5t-83 -30t-82.5 -12zM915 108q-4 -12 -4 -27
q0 -4 0.5 -10.5t3.5 -13t8 -11.5t14 -5q5 0 12.5 1.5t7.5 9.5q0 11 -9.5 24t-32.5 32z" />
    <glyph glyph-name="asciicircum" unicode="^" horiz-adv-x="378" 
d="M195 311l-28 155l-164 31l162 13l17 143l27 -143l167 -10l-165 -33z" />
    <glyph glyph-name="underscore" unicode="_" horiz-adv-x="604" 
d="M397 530l38 113l43 -113l105 9l-88 -90l27 -91l-87 54l-83 -54l23 93l-83 88zM215 296l65 193l73 -193l179 15l-150 -153l46 -156l-148 92l-143 -92l40 159l-142 150zM104 487l28 84l32 -84l77 7l-65 -67l20 -67l-64 40l-62 -40l17 69l-61 65zM205 608l19 58l22 -58l54 5
l-45 -47l14 -46l-45 28l-43 -28l12 48l-42 45z" />
    <glyph glyph-name="grave" unicode="`" horiz-adv-x="130" 
d="M96 524q-22 0 -51 25q-10 8 -16 14.5t-7 7.5q-5 6 -4.5 14.5t6.5 13.5t14.5 5t13.5 -7q2 -3 5 -6l5.5 -5.5t8.5 -6.5q7 -6 11.5 -8.5t7.5 -4.5q4 -2 6 -2q8 0 14 -6t6 -14t-6 -14t-14 -6z" />
    <glyph glyph-name="a" unicode="a" 
d="M405 228q15 -4 15 -24q0 -1 -2 -9.5t-6 -22t-9.5 -30l-11.5 -34.5q-39 -107 -88 -107q-11 0 -25 4.5t-27.5 18t-25 38t-17.5 64.5q-14 -33 -25.5 -57t-23.5 -39t-24.5 -22t-28.5 -7q-54 0 -86 36t-32 99q0 45 13.5 83t36.5 66.5t53 45t62 17.5q14 0 30.5 -6t33.5 -29
q7 20 19 27t20 7q11 0 16 -12.5t7 -29t1.5 -33t-0.5 -25.5q0 -58 2.5 -97.5t6 -63.5t7.5 -34.5t7 -10.5q5 0 19 16t32 64q13 35 20 63t7 29q3 15 20 15h4zM151 94q5 10 13 31t16.5 44t14.5 44.5t8 31.5l-2.5 10t-8 22t-14.5 21.5t-21 9.5q-19 0 -35.5 -16.5t-28.5 -42.5
t-19 -58.5t-7 -63.5q0 -45 12.5 -65.5t25.5 -20.5q21 0 46 53z" />
    <glyph glyph-name="b" unicode="b" 
d="M408 227q13 -5 13 -19q0 -5 -1 -7l-16 -32t-47 -67q-44 -50 -97.5 -75.5t-114.5 -25.5q-32 0 -56 26q-2 -8 -5.5 -17t-14.5 -9q-20 0 -33.5 23.5t-21.5 60t-11.5 81.5t-3.5 88q0 76 10 125.5t26 78.5t34.5 40.5t35.5 11.5q10 0 17 -5t7 -15q0 -8 -6 -14t-14 -6
q-2 0 -7 -7t-10.5 -30t-10 -66.5t-4.5 -115.5q0 -29 0.5 -57.5t2.5 -54.5q30 105 57.5 157t59.5 52q54 0 85.5 -38.5t31.5 -101.5q0 -31 -8 -62.5t-24 -59.5q26 21 45 43.5t31 41t18 31.5t6 14q2 6 7.5 9t11.5 3q5 0 7 -1zM112 62q13 -20 34 -20q19 0 35.5 16.5t28.5 42
t19 57.5t7 64q0 42 -12 64t-26 22q1 0 -1.5 -0.5t-8.5 -6.5t-14.5 -21t-20.5 -44q-14 -35 -26 -77t-23 -81q2 -3 3.5 -7t4.5 -9z" />
    <glyph glyph-name="c" unicode="c" horiz-adv-x="300" 
d="M324 228q8 -2 12 -7.5t4 -12.5v-4q0 -1 -2.5 -9.5t-7.5 -22.5t-12.5 -32t-18.5 -36q-62 -103 -163 -103q-69 0 -107.5 35.5t-40.5 98.5q0 41 13 79.5t36.5 68t55.5 47.5t70 18q7 0 17 -3t18.5 -10t14.5 -19t6 -29q0 -8 -6 -13.5t-14 -5.5q-10 0 -14 6t-6 13.5t-5 14
t-10 6.5q-6 0 -21.5 -8t-32 -27.5t-29.5 -52t-13 -81.5q0 -41 17.5 -69.5t50.5 -28.5q77 0 128 83q10 16 17 31.5t11 28t6 20.5t2 9q5 15 20 15h4v0z" />
    <glyph glyph-name="d" unicode="d" horiz-adv-x="380" 
d="M403 228q16 -3 16 -19v-4q0 -1 -1.5 -9.5t-4.5 -22t-7.5 -30.5t-10.5 -35q-19 -56 -39 -82t-46 -26q-12 0 -26 5t-28 19t-26 40.5t-20 69.5q-26 -69 -48.5 -101t-56.5 -32q-54 0 -86 36t-32 99q0 45 13.5 83t36.5 66.5t53 45t62 17.5q11 0 25.5 -4t28.5 -18
q7 57 19.5 92.5t26.5 56t29 28t28 7.5q9 1 15.5 -4.5t6.5 -14.5q0 -8 -5 -13.5t-13 -6.5q-2 -2 -7.5 -17.5t-11 -44.5t-10 -71.5t-4.5 -99.5q0 -93 12.5 -143t18.5 -55q6 1 18.5 17.5t27.5 62.5q11 35 17 63t6 29q3 16 19 16h4zM151 94q6 13 14 33.5t15.5 42.5t13 43.5
t7.5 36.5q-2 6 -5 15.5t-8.5 19t-13.5 16.5t-18 7q-19 0 -35.5 -16.5t-28.5 -43t-19 -58.5t-7 -63q0 -45 12.5 -65.5t25.5 -20.5q22 0 47 53z" />
    <glyph glyph-name="e" unicode="e" horiz-adv-x="299" 
d="M323 228q16 -4 16 -19q0 -2 -0.5 -2.5t-0.5 -2.5q0 -1 -2 -9.5t-6.5 -22.5t-12 -32t-18.5 -36q-62 -103 -163 -103q-70 0 -107.5 39.5t-37.5 105.5q0 41 13.5 78t36.5 64.5t54.5 43.5t67.5 16q20 0 38.5 -12.5t18.5 -45.5q0 -39 -39.5 -78.5t-110.5 -69.5q0 -43 16.5 -72
t49.5 -29q31 0 55.5 12.5t42.5 31.5t30.5 41t20 41t11 32l3.5 13q5 16 20 16h4zM180 288q0 5 -2.5 12.5t-12.5 7.5q-7 0 -19 -6t-25.5 -20.5t-26 -37t-20.5 -55.5q16 8 35 19t34.5 24t26 27t10.5 29z" />
    <glyph glyph-name="f" unicode="f" horiz-adv-x="212" 
d="M131 -169q-30 -1 -54 26t-41 75t-26 114.5t-9 144.5q0 75 7.5 134t21.5 100t35 63t47 22q8 0 14 -6t6 -14t-4.5 -13t-12.5 -5q-5 0 -16 -41t-17 -142q-2 -19 -2 -37.5v-37.5v-26.5t1 -26.5q8 -2 20.5 -5t26.5 -3q60 0 84 62q5 13 19 13q8 0 14 -6t6 -14q0 -14 -7.5 -28
t-18 -25t-23 -19.5t-21.5 -12.5q-14 -6 -27 -8t-27 -2q-7 0 -13 0.5t-12 1.5q42 -85 59.5 -143.5t17.5 -82.5q0 -31 -13 -44.5t-35 -13.5zM86 55q7 -63 14.5 -99.5t13.5 -55.5t10.5 -24t6.5 -5q8 0 8 17q0 14 -9 55t-44 112z" />
    <glyph glyph-name="g" unicode="g" horiz-adv-x="358" 
d="M385 227q12 -5 12 -18q0 -6 -1 -8q-20 -55 -53 -90t-69 -64q-9 -66 -24.5 -108t-33 -65.5t-36.5 -32.5t-36 -10q-26 0 -42.5 13.5t-16.5 39.5q0 21 10 41.5t25.5 40.5t35.5 38.5t40 34.5q2 15 3 32t2 37q-40 -107 -95 -107q-54 0 -86 36t-32 99q0 45 13.5 83t36.5 66.5
t53 45t62 17.5q10 0 22 -3t26 -14q0 7 6.5 11.5t12.5 4.5q20 0 32 -19.5t18 -49.5t8 -66t2 -69v-20t-1 -20q25 22 45.5 48.5t34.5 63.5q5 13 18 13q5 0 8 -1zM189 -19q-36 -33 -49.5 -59t-13.5 -38q0 -4 2 -8.5t12 -4.5q11 0 25 24t24 86zM152 94q13 28 24 63l22 70
q2 5 3.5 9.5t1.5 9.5q-1 4 -4 14t-8.5 20.5t-14 19t-19.5 8.5q-19 0 -35.5 -16.5t-28.5 -43t-19 -58.5t-7 -63q0 -45 12.5 -65.5t25.5 -20.5q22 0 47 53z" />
    <glyph glyph-name="h" unicode="h" horiz-adv-x="396" 
d="M421 227q12 -5 14 -19l-1 -4.5t-5 -16t-12 -31.5t-22 -50q-26 -54 -50.5 -79.5t-47.5 -25.5q-26 0 -42 20t-24.5 49t-11.5 63t-3 62q0 7 1 25.5t1.5 38t-0.5 34.5t-5 15q-7 0 -19.5 -7.5t-29 -36.5t-36 -86t-41.5 -156v-3q0 -8 -6 -13t-14 -5q-18 0 -30 21t-20.5 54
t-12.5 74t-5 81q0 84 9.5 138t25 85.5t34.5 43.5t38 12q10 0 16.5 -5t6.5 -15q0 -8 -6 -14t-14 -6q-3 -2 -8 -11t-10.5 -32.5t-9 -65.5t-3.5 -109q0 -24 0.5 -49t0.5 -48q30 100 62.5 146.5t70.5 46.5q26 0 42 -10.5t25 -28.5t12.5 -41t3.5 -48q0 -34 -2 -67.5t-2 -62.5
q0 -27 2.5 -37t4.5 -12q1 0 5.5 2.5t12 10.5t18 24.5t24.5 44.5q16 34 26.5 62.5t11.5 29.5q2 6 7 9.5t11 3.5q5 0 7 -1z" />
    <glyph glyph-name="i" unicode="i" horiz-adv-x="180" 
d="M102 1q-14 0 -32 9t-33.5 32t-26 62.5t-10.5 100.5q0 64 14.5 103t40.5 39q13 0 18.5 -18.5t6.5 -42.5t0 -48t-1 -36q0 -57 3 -89.5t7 -48t8 -19.5t5 -4q5 0 19 16t32 64q13 34 20 62.5t7 29.5q3 15 20 15q8 0 14 -6t6 -14q-1 -5 -6 -27.5t-24 -72.5q-38 -107 -88 -107z
M57 389q-17 0 -29.5 12.5t-12.5 29.5t12.5 29.5t29.5 12.5t29.5 -12.5t12.5 -29.5t-12.5 -29.5t-29.5 -12.5z" />
    <glyph glyph-name="j" unicode="j" horiz-adv-x="154" 
d="M182 227q13 -5 13 -19q0 -5 -1 -7q-21 -55 -53.5 -90t-69.5 -64q-8 -66 -23 -108t-33.5 -65.5t-38 -32.5t-35.5 -10q-27 0 -42.5 14t-15.5 39q0 20 10 40.5t25.5 41t35.5 39t40 34.5q3 22 4 63t1.5 85t-0.5 83t-2 56q0 8 6 14.5t14 6.5q12 0 21 -8t15 -18.5t9 -21.5
t4 -17q5 -24 8.5 -55.5t3.5 -66.5q0 -14 -0.5 -28.5t-1.5 -28.5q25 22 45.5 48.5t34.5 63.5q5 13 19 13q5 0 7 -1zM-62 -129q10 0 18 13t14 31t10 36.5t6 29.5q-34 -34 -48.5 -58.5t-14.5 -38.5q0 -3 2 -8t13 -5zM17 389q-17 0 -29.5 12.5t-12.5 29.5t12.5 29.5t29.5 12.5
t29.5 -12.5t12.5 -29.5t-12.5 -29.5t-29.5 -12.5z" />
    <glyph glyph-name="k" unicode="k" horiz-adv-x="329" 
d="M354 228q16 -3 16 -19v-4q0 -1 -2 -9.5t-5 -22t-7.5 -30.5t-10.5 -35q-35 -107 -84 -107q-25 0 -38.5 12t-22 30.5t-15 40.5t-18.5 42t-32 35t-56 20q1 -32 2 -61t2.5 -50.5t2.5 -34.5l1 -13v-3q0 -8 -6 -13t-14 -5q-19 0 -32 24.5t-20.5 61.5t-11 81.5t-3.5 85.5
q0 77 10 126.5t26 78.5t34.5 40t35.5 11q9 0 16 -4.5t7 -13.5t-5.5 -15.5t-14.5 -6.5q-3 -2 -8 -10.5t-10 -31.5t-9 -64.5t-4 -108.5v-23q33 11 61 23.5t49 25t32.5 24.5t11.5 23q0 8 6 14t14 6t14 -6t6 -14q0 -35 -32.5 -59t-94.5 -55q44 -11 69 -32t37.5 -45t15.5 -48
t3 -42q8 7 17 24t20 50q11 34 17 62t6 29q3 16 20 16h4v0z" />
    <glyph glyph-name="l" unicode="l" horiz-adv-x="178" 
d="M108 0q-16 0 -35 11t-35 38.5t-27 73.5t-11 117q0 76 11.5 128t28 83.5t36 45t34.5 13.5q8 0 14 -5.5t6 -13.5q0 -11 -6.5 -15t-10.5 -5q-5 -1 -13 -26t-14 -83q-3 -29 -5 -60.5t-2 -63.5q0 -37 3 -70.5t7.5 -60.5t10 -45t10.5 -22q6 1 18.5 17.5t27.5 62.5
q11 34 17 62.5t6 29.5q3 16 19 16q9 0 14.5 -5.5t5.5 -13.5v-4q0 -5 -3.5 -22t-10 -40t-16 -48t-21.5 -46t-27 -35t-32 -14z" />
    <glyph glyph-name="m" unicode="m" horiz-adv-x="541" 
d="M567 227q13 -5 13 -19q0 1 -1.5 -4t-6 -17.5t-13.5 -32.5t-24 -49q-28 -54 -53 -79t-49 -25t-38 19.5t-21.5 49.5t-9.5 66.5t-2 71.5v1q0 18 -0.5 36t-2.5 31.5t-5.5 22t-9.5 8.5q-10 0 -23.5 -9.5t-31.5 -33.5q5 -16 7.5 -33.5t2.5 -36.5q0 -45 -9 -74t-21.5 -45
t-25.5 -22t-21 -6q-17 0 -28.5 12t-11.5 38q0 28 13.5 69.5t36.5 81.5q-2 9 -4.5 19t-6 19t-9 15t-12.5 6q-26 0 -58.5 -73.5t-62.5 -216.5q-3 -10 -9.5 -12.5t-9.5 -3.5q-17 0 -28 17t-18.5 45t-10.5 65t-3 76q0 62 15 102.5t44 40.5q12 0 16.5 -15t5 -39.5t-0.5 -54.5
t-1 -60q27 86 56 127.5t65 41.5q21 0 39.5 -11t31.5 -31q15 17 33 29.5t38 12.5q47 0 73 -36.5t26 -102.5q0 -41 -1.5 -81.5t1.5 -82.5q9 5 24 23t35 56q9 17 16.5 33.5t12.5 29.5q6 15 12 29q5 13 19 13q5 0 7 -1zM228 134q-4 -14 -5 -23t-1 -15q4 8 7 23t5 37z" />
    <glyph glyph-name="n" unicode="n" horiz-adv-x="387" 
d="M413 227q14 -5 14 -19q0 -2 -1.5 -7.5t-5.5 -17.5t-12 -30.5t-21 -46.5q-26 -54 -50 -79.5t-48 -25.5q-26 0 -42 20t-24.5 49.5t-11.5 63.5t-3 62q0 10 0.5 29t1 37.5t-0.5 32t-4 13.5q-7 0 -19.5 -7.5t-29 -36.5t-36 -86.5t-41.5 -156.5q0 -8 -5.5 -14t-13.5 -6
q-16 -1 -27 16t-18.5 45.5t-11 65.5t-3.5 76q0 64 13.5 103.5t45.5 39.5q12 0 16.5 -15t5 -39t-0.5 -54t-1 -60q28 88 58.5 128.5t66.5 40.5q26 0 42 -10.5t25 -28.5t12.5 -41t3.5 -48q0 -16 -1.5 -41t-2.5 -51t0 -50t7 -37q1 0 6 2.5t12.5 10.5t18 24.5t24.5 44.5
q16 34 26.5 62.5t10.5 29.5q2 6 7 9.5t11 3.5q5 0 7 -1z" />
    <glyph glyph-name="o" unicode="o" horiz-adv-x="299" 
d="M324 227q13 -5 13 -18q0 -5 -1 -7q-28 -79 -111 -90q-15 -56 -46 -83.5t-74 -27.5q-34 0 -59.5 10.5t-42.5 27.5t-25.5 40t-8.5 47q0 33 11.5 59.5t33.5 37.5q0 2 -0.5 5t-0.5 6q0 22 7.5 42.5t20.5 36.5t31.5 25.5t39.5 9.5q54 0 87.5 -45.5t33.5 -125.5
q0 -6 -0.5 -11.5t-0.5 -11.5q26 6 41.5 21t25.5 40q2 6 7 9.5t11 3.5q5 0 7 -1zM193 177q0 24 -5 47.5t-15 42t-23.5 30t-31.5 11.5q-23 0 -32 -21t-9 -50q0 -20 11.5 -36.5t28.5 -28t36 -17.5t34 -6q5 0 5.5 11t0.5 17zM169 80q4 7 7.5 14t5.5 15q-17 0 -35.5 4.5t-36.5 12
t-34 17t-28 21.5q-1 -5 -1 -11v-13q2 -44 16 -71.5t42 -27.5q41 0 64 39z" />
    <glyph glyph-name="p" unicode="p" horiz-adv-x="354" 
d="M381 227q12 -5 12 -19q0 -5 -1 -7q0 -2 -15 -32t-47 -67q-44 -50 -98.5 -75.5t-114.5 -25.5q-25 0 -45 17q-8 -59 -18.5 -95.5t-22.5 -57t-25 -27.5t-25 -7q-8 0 -14 6t-6 14q0 15 16 19q2 4 7 20t10 60q6 69 6 188q0 37 -0.5 70.5t-1.5 59.5t-1.5 42l-0.5 16v2q0 7 6 13
t14 6q18 0 28.5 -15.5t16.5 -37.5t8.5 -45.5t4.5 -39.5q24 73 46.5 106t49.5 33q54 0 85.5 -39t31.5 -101q0 -31 -8.5 -62.5t-24.5 -59.5q26 19 45 42t31.5 42.5t18.5 32.5l6 13q2 6 7.5 9t11.5 3q5 0 7 -1zM84 62q14 -20 35 -20q19 0 35 16.5t28 42t19 57.5t7 64
q0 40 -11.5 62.5t-25.5 23.5l-3 -0.5t-8.5 -7t-14 -21.5t-19.5 -43q-14 -35 -26.5 -77t-23.5 -81z" />
    <glyph glyph-name="q" unicode="q" horiz-adv-x="404" 
d="M431 227q13 -5 13 -19q0 -4 -1 -6q-16 -45 -47.5 -67t-75.5 -22q-7 0 -13 0.5t-12 1.5q42 -85 59.5 -143.5t17.5 -82.5q0 -31 -13 -44.5t-35 -13.5q-27 0 -49 22t-38 59t-26 86t-13 104q-17 -53 -42 -77t-51 -24q-55 0 -86 37t-31 101q0 42 13 79t35.5 65.5t52.5 46
t63 18.5q14 0 31 -6t34 -30q15 35 41 35q8 0 14 -5.5t6 -13.5q0 -28 -2.5 -59t-2.5 -63v-22.5t1 -22.5q8 -2 20.5 -5t27.5 -3q59 0 83 62q5 13 19 13q5 0 7 -1zM151 94q13 28 24.5 63t22.5 70q0 5 1.5 10.5t1.5 11.5q-1 5 -4 15t-8.5 19.5t-13.5 17t-19 7.5q-19 0 -35 -17
t-28 -43t-19 -58t-7 -63q0 -45 12.5 -65.5t25.5 -20.5q21 0 46 53zM279 56q5 -46 10 -81.5t13 -61.5t14.5 -33.5t7.5 -8.5q4 0 6 1.5t2 15.5t-6.5 44t-29.5 85z" />
    <glyph glyph-name="r" unicode="r" horiz-adv-x="316" 
d="M342 228q16 -4 16 -20q-1 -5 -6 -27.5t-24 -72.5q-38 -107 -88 -107q-14 0 -32 9t-33.5 32t-26 62.5t-10.5 100.5v8t1 8q-14 -13 -32 -21t-39 -8q-31 0 -52 8.5t-33.5 23.5t-18 34t-5.5 40q0 20 6 39t16.5 34t24.5 24t29 9q20 0 30 -14t10 -38q0 -20 -5.5 -52.5
t-16.5 -65.5q4 -2 7.5 -2h6.5q30 0 46.5 18t28.5 39.5t23 39.5t28 18t21 -21.5t4 -78.5q0 -11 -0.5 -22.5t-0.5 -22.5q0 -55 3 -87t7 -49t8 -21.5t5 -3.5q5 0 19 16t32 64q13 35 20 63t7 29q3 15 20 15h4zM24 329q-3 -14 -3 -28q0 -5 0.5 -10t1.5 -10q5 18 8.5 38t3.5 31
q0 2 -0.5 4t-0.5 4q-2 -5 -5 -12t-5 -17z" />
    <glyph glyph-name="s" unicode="s" horiz-adv-x="290" 
d="M316 227q12 -5 12 -19q0 -5 -1 -7q0 -1 -2.5 -9.5t-8.5 -22.5t-16 -31.5t-26 -35.5q-41 -47 -91 -74t-104 -27q-13 0 -29.5 4t-31.5 16t-25 34.5t-10 58.5q0 9 6 14.5t14 5.5t14 -5.5t6 -14.5q0 -37 15.5 -54t37.5 -19q32 0 53.5 21.5t21.5 57.5q0 20 -15.5 29.5
t-51.5 21.5q-25 8 -47.5 19t-40 26.5t-27.5 38t-10 54.5q0 19 6 36.5t16.5 30.5t23.5 20.5t28 7.5q20 0 29.5 -14t9.5 -38q0 -18 -4 -41.5t-11 -52.5q41 -18 73 -31.5t54.5 -28.5t34 -35t11.5 -50q30 35 42.5 62t17.5 41q4 12 18 12q5 0 8 -1zM13 311q0 -15 9 -27
q3 18 6.5 35.5t3.5 29.5q0 5 -0.5 8.5t-0.5 5.5q-5 -4 -11.5 -17.5t-6.5 -34.5z" />
    <glyph glyph-name="t" unicode="t" horiz-adv-x="178" 
d="M203 228q16 -4 16 -20v-3q0 -1 -2 -9.5t-5 -22t-7.5 -30.5t-10.5 -35q-35 -108 -84 -108q-17 0 -35.5 10.5t-35 36.5t-27.5 70t-12 112q0 36 3 71.5t9 67t15 57.5t20 42q-20 0 -31.5 -4t-11.5 -6q0 -7 -5.5 -13t-15.5 -6q-8 0 -14 6t-6 14q0 21 18 31.5t45 15t58.5 5.5
t58.5 3q8 1 16 3t8 5q0 4 5 9t13 5q9 0 14.5 -6t5.5 -14q0 -25 -26.5 -33.5t-66.5 -10.5q-3 -6 -8.5 -20t-10.5 -40.5t-9 -68t-4 -103.5q0 -47 3.5 -82.5t8.5 -60.5t10 -39t8 -17q6 1 18.5 17.5t27.5 62.5q11 35 17 63t6 29q3 16 20 16h4v0z" />
    <glyph glyph-name="u" unicode="u" 
d="M406 228q15 -4 15 -24q0 -1 -2 -9.5t-6 -22t-9 -30t-12 -34.5q-21 -56 -42 -81.5t-46 -25.5q-11 0 -22.5 3.5t-23 13t-22 27t-19.5 45.5q-31 -89 -88 -89q-29 0 -53 15.5t-41 43.5t-26 65.5t-9 81.5q0 42 7 69t17 43t21 22t20 6q8 0 14 -6t6 -14q0 -21 -3 -61t-3 -85
q0 -47 5 -74.5t12 -42t14.5 -18.5t11.5 -5q19 0 33 16.5t23 41.5t15 55t9 57q1 40 6 66.5t12.5 42t17 21.5t19.5 6q4 0 8.5 -1.5t8 -7.5t5.5 -18t2 -33v-90q0 -53 3 -84t7 -47t8 -20.5t5 -4.5q5 0 19 16t32 64q6 16 11 32.5t8.5 29.5t5.5 21.5l2 8.5q3 15 20 15h4v0z" />
    <glyph glyph-name="v" unicode="v" horiz-adv-x="334" 
d="M361 227q12 -5 12 -18q0 -5 -1 -7q-6 -17 -14.5 -33.5t-21.5 -29.5t-32 -21t-46 -8q-12 0 -27 5q0 -2 -2 -6q-19 -51 -43 -79.5t-50 -28.5q-17 0 -39.5 12.5t-46.5 53.5q-22 38 -38 90.5t-16 106.5q0 33 11 58t37 25q11 0 16 -11t8.5 -33.5t7.5 -57t15 -82.5
q14 -63 28 -91.5t18 -30.5q7 1 23.5 21t34.5 69q-22 14 -35 41t-13 57q0 22 6 43t16 37.5t24 27t29 10.5q44 0 44 -69q0 -26 -5.5 -59t-16.5 -67q4 -1 7 -1.5t7 -0.5q30 0 46.5 14.5t30.5 50.5q5 13 18 13q5 0 8 -1zM222 234q2 14 3 24.5t1 18.5q0 12 -1 19t-3 10
q-8 -8 -13 -30t-5 -47q0 -23 8 -44q3 13 5.5 25t4.5 24z" />
    <glyph glyph-name="w" unicode="w" horiz-adv-x="486" 
d="M512 227q13 -5 13 -19q0 -4 -1 -6q-6 -17 -15 -33.5t-22 -29.5t-32 -21t-46 -8q-13 0 -26 5q-14 -27 -24.5 -48t-21.5 -36t-23 -22.5t-27 -7.5q-22 0 -44 12t-41 33q-32 -45 -68 -45q-16 0 -38.5 12t-45.5 52q-23 38 -38 90.5t-15 106.5q0 16 2.5 31.5t8 27.5t15 19
t23.5 7q8 0 13 -5t7 -13q9 -78 19.5 -132t20.5 -88t18 -50.5t11 -17.5q17 0 42 40q-17 28 -26.5 58.5t-9.5 56.5q0 14 3 27.5t11.5 24.5t22.5 18t36 7q20 0 31.5 -16.5t11.5 -45.5q0 -23 -7 -53.5t-20 -59.5q1 0 1 -1q16 -29 30.5 -42t24.5 -14q6 -2 23 18t37 72
q-23 15 -35 42t-12 56q0 22 6 43t16 37.5t23.5 26.5t29.5 11q22 1 32.5 -18t10.5 -51q0 -26 -5.5 -59t-16.5 -66q7 -3 14 -3q30 0 46.5 14.5t30.5 50.5q5 13 18 13q5 0 8 -1zM216 196q1 5 1 9v7q0 21 -6 21q-4 0 -8.5 -5t-4.5 -24q0 -24 9 -52q7 24 9 44zM373 234
q2 14 3 24.5t1 18.5q0 12 -1 19t-3 10q-8 -8 -12.5 -29.5t-4.5 -47.5t7 -43q3 12 5.5 24t4.5 24z" />
    <glyph glyph-name="x" unicode="x" horiz-adv-x="305" 
d="M330 228q16 -3 16 -19v-4q0 -1 -2 -9.5t-5 -22t-7.5 -30.5t-10.5 -35q-19 -59 -40.5 -83.5t-49.5 -24.5q-33 0 -69 21.5t-74 63.5q-14 -20 -20 -35.5t-10 -26.5t-8 -16.5t-13 -5.5q-8 0 -14 6t-6 14q0 20 12 44t32 52q-20 26 -36.5 53.5t-28.5 52.5t-18.5 46.5t-6.5 36.5
q0 19 9.5 30t26.5 11q13 0 18 -12q14 -30 36 -70.5t48 -81.5q14 19 28 39.5t25 39t18 35.5t7 30q0 8 6 14t14 6t14 -6t6 -14q0 -19 -8 -40.5t-21.5 -45t-30.5 -47t-35 -47.5q21 -32 39 -52.5t31.5 -32.5t22 -16.5t11.5 -4.5q2 -1 6.5 2t11 12t14 25t15.5 41q11 34 17 62
t6 29q3 16 20 16h4v0z" />
    <glyph glyph-name="y" unicode="y" horiz-adv-x="365" 
d="M392 227q12 -5 12 -18q0 -6 -1 -8q-20 -55 -53 -90t-69 -64q-9 -66 -24.5 -108t-33 -65.5t-36.5 -32.5t-36 -10q-26 0 -42.5 13.5t-16.5 39.5q0 19 10 40t25.5 41t35.5 39t40 35q1 5 1.5 11t0.5 13q-28 -62 -77 -62q-29 0 -52.5 15.5t-40.5 43.5t-26.5 65.5t-9.5 81.5
q0 42 7 69t17 43t21 22t20 6q8 0 14 -6t6 -14q0 -21 -3 -61t-3 -85q0 -47 5 -74.5t12 -42t14.5 -18.5t11.5 -5q22 0 38.5 26t27.5 63t16.5 77.5t5.5 68.5q0 23 -1 36t-1 14q0 7 6 14t14 7q21 0 33 -19.5t18 -49.5t7.5 -66t1.5 -69v-20t-1 -20q25 22 45.5 48.5t34.5 63.5
q5 13 18 13q5 0 8 -1zM161 -122q8 8 17.5 30.5t17.5 72.5q-36 -33 -49.5 -59t-13.5 -38q0 -4 0.5 -8.5t13.5 -4.5q3 0 6 1t8 6z" />
    <glyph glyph-name="z" unicode="z" horiz-adv-x="334" 
d="M361 227q13 -3 13 -19q0 -4 -1 -6q-12 -33 -28 -59t-35.5 -47t-41 -38.5t-42.5 -33.5q-1 0 -1.5 -0.5t-1.5 -0.5q24 -33 24 -75q0 -25 -9 -46.5t-25.5 -37t-39.5 -24.5t-50 -9q-24 0 -39.5 14t-15.5 39q0 28 21.5 62.5t56.5 64.5q-12 16 -30.5 26t-44.5 10q-8 0 -14 6
t-6 14t6 14t14 6q24 0 47 12.5t41 33.5t29 48t11 55q0 11 -2.5 23.5t-10 23t-20.5 17.5t-35 7q-40 0 -65.5 -26.5t-25.5 -65.5q0 -3 0.5 -11t4 -16.5t11 -15t20.5 -6.5q8 0 14 -6t6 -14t-6 -14t-14 -6q-34 0 -55 25t-21 64q0 20 6.5 43.5t22 43t40.5 32.5t62 13
q66 0 105.5 -33t39.5 -84q0 -47 -27.5 -91.5t-79.5 -70.5q8 -4 14.5 -8t11.5 -8l6 4q21 16 41 32t37.5 34.5t31.5 41t24 51.5q5 13 19 13q5 0 7 -1zM134 -60q-15 -20 -20 -34t-5 -22q0 -4 0.5 -8.5t13.5 -4.5q21 0 33 20t12 49q0 18 -4 33q-17 -15 -30 -33z" />
    <glyph glyph-name="braceleft" unicode="{" horiz-adv-x="1220" 
d="M996 -1q-49 0 -97.5 14t-95.5 35.5t-93 46t-91 46t-89 35.5t-87 14q-37 0 -71.5 -8.5t-71.5 -24.5q9 -23 9 -46q0 -36 -18.5 -58t-48.5 -22q-26 0 -43 14t-17 38q0 23 16.5 46.5t48.5 43.5q-6 5 -12.5 11.5t-15 12t-20 9t-27.5 3.5q-57 0 -99 -45q-17 -18 -24.5 -33
t-8.5 -15q-5 -12 -18 -12q-8 0 -14 6t-6 14q0 2 2 8q0 2 9.5 19t29.5 39q54 59 129 59q22 0 40 -5.5t31.5 -14t23 -18.5t15.5 -18q37 18 79.5 27.5t81.5 9.5q47 0 93.5 -14t92.5 -35.5t92 -46t91.5 -46t91.5 -35.5t92 -14q97 0 169 87q14 17 24 32.5t17 28.5q8 15 14 29
q5 13 19 13q8 0 14 -6.5t6 -14.5q0 -4 -1 -6q-2 -3 -9.5 -19t-22.5 -38.5t-36 -48t-50 -47t-65 -36t-79 -14.5zM265 137q-22 -14 -32.5 -29.5t-10.5 -24.5q0 -8 7.5 -10t12.5 -2q9 0 14.5 5t8.5 11.5t3.5 13t0.5 10.5q0 6 -1 12.5t-3 13.5z" />
    <glyph glyph-name="braceright" unicode="}" horiz-adv-x="1258" 
d="M263 -1q-114 0 -201 102q-16 18 -27 36t-18.5 32t-11.5 23t-4 10q-1 2 -1 6q0 8 5.5 14.5t13.5 6.5q15 0 20 -13q6 -14 14 -29q7 -13 17 -28.5t24 -32.5q72 -87 169 -87q46 0 92 14t91.5 35.5t91.5 46t92 46t92.5 35.5t93.5 14q39 0 81.5 -9.5t79.5 -27.5q5 8 14.5 18
t23.5 18.5t32 14t40 5.5q75 0 129 -59q20 -22 29.5 -39.5t9.5 -18.5q2 -6 2 -8q0 -8 -6 -14t-14 -6q-13 0 -18 12q-1 0 -8.5 15t-24.5 33q-42 45 -99 45q-32 0 -48 -12.5t-27 -23.5q32 -20 48.5 -43.5t16.5 -46.5q0 -24 -17 -38t-43 -14q-30 0 -48.5 22t-18.5 58q0 23 9 46
q-37 16 -71.5 24.5t-71.5 8.5q-43 0 -87 -14t-89 -35.5t-91 -46t-93 -46t-95.5 -35.5t-97.5 -14zM994 137q-2 -7 -3 -13.5t-1 -12.5q0 -4 0.5 -10.5t3.5 -13t8.5 -11.5t14.5 -5q5 0 12.5 2t7.5 10q0 9 -10.5 24.5t-32.5 29.5z" />
    <glyph glyph-name="exclamdown" unicode="&#xa1;" horiz-adv-x="203" 
d="M92 341q16 0 27 -20t17.5 -51t9.5 -70t4 -76q0 -19 -1 -48t-4.5 -62t-10 -65.5t-18 -59t-29 -43t-41.5 -16.5q-8 0 -14 6t-6 14q0 17 16 19q2 3 7 23t10 61t9 104t4 152q0 48 -0.5 79.5t-0.5 32.5q0 8 5.5 14t15.5 6zM92 451q17 0 29.5 -12.5t12.5 -29.5t-12.5 -29.5
t-29.5 -12.5t-29.5 12.5t-12.5 29.5t12.5 29.5t29.5 12.5z" />
    <glyph glyph-name="sterling" unicode="&#xa3;" horiz-adv-x="478" 
d="M443 -1q-37 0 -72.5 9.5t-69 23t-64 28t-58.5 23.5q-14 -42 -43.5 -63t-56.5 -21q-23 0 -36.5 14t-13.5 32q0 7 3.5 20.5t14 27.5t29 25t48.5 13q0 24 -1.5 50.5t-3.5 54.5q-29 1 -48 5.5t-19 17.5q0 8 5.5 14t13.5 6h4q4 0 15.5 -0.5t27.5 -1.5v8q0 44 7 85t26 72.5
t52.5 50.5t86.5 19q8 0 14 -6t6 -14t-6 -14t-14 -6q-32 0 -50.5 -16.5t-28 -43.5t-12.5 -62.5t-3 -73.5q13 0 21 1.5t12.5 3t7 3t5.5 1.5q8 0 14 -5.5t6 -13.5q0 -10 -7 -16q-16 -13 -48 -13h-11q-1 -31 -2 -60t-6 -55q28 -9 58.5 -23t62.5 -27.5t65.5 -23t68.5 -9.5
q8 0 14 -6t6 -14t-6 -14t-14 -6zM122 91q-16 -4 -26.5 -11t-16.5 -14t-8 -12.5t-2 -7.5q0 -7 11 -7q4 0 10 0.5t12 5.5t11.5 15.5t8.5 30.5z" />
    <glyph glyph-name="dieresis" unicode="&#xa8;" horiz-adv-x="266" 
d="M93 525q-8 0 -14 6t-6 14t6 14t14 6t14 -6t6 -14t-6 -14t-14 -6zM173 525q-8 0 -14 6t-6 14t6 14t14 6t14 -6t6 -14t-6 -14t-14 -6z" />
    <glyph glyph-name="acute" unicode="&#xb4;" horiz-adv-x="130" 
d="M34 524q-8 0 -14 6t-6 14t6 14t14 6q2 0 6 2q3 2 7.5 4.5t11.5 8.5q4 3 8 6.5t6 5.5q3 3 5 6q6 7 15 7q8 0 14 -6t6 -14q0 -6 -5 -13q-1 -1 -7 -7.5t-16 -14.5q-29 -25 -51 -25z" />
    <glyph glyph-name="cedilla" unicode="&#xb8;" horiz-adv-x="110" 
d="M83 8q5 -21 9 -50.5t4 -61.5q0 -58 -24 -79q-5 -5 -13 -8t-19 -3q-8 0 -20 3q-7 2 -10.5 7t-3.5 11q0 10 6 15.5t14 5.5q5 0 8 -1.5t6 -1.5q4 0 6.5 4.5t3.5 6.5q2 6 4 17t2 29q0 26 -4 52t-8 46v4q1 9 6.5 15t13.5 6q7 0 12.5 -5.5t6.5 -11.5z" />
    <glyph glyph-name="questiondown" unicode="&#xbf;" horiz-adv-x="340" 
d="M168 342q8 0 14 -6t6 -14q0 -6 -3 -10q0 -1 -17.5 -33t-37.5 -82t-37 -110t-17 -117q0 -43 15.5 -71t43.5 -28q26 0 52 33.5t35 107.5q1 9 7.5 13t14.5 4q17 -2 17 -18q0 -41 -11.5 -74.5t-30 -57t-41 -36t-43.5 -12.5q-47 0 -73.5 17.5t-40.5 42t-17.5 50t-3.5 42.5
q0 39 6.5 75t16 67.5t20.5 57t20 42.5q27 53 55 85t50 32zM172 452q17 0 29.5 -12.5t12.5 -29.5t-12.5 -29.5t-29.5 -12.5t-29.5 12.5t-12.5 29.5t12.5 29.5t29.5 12.5z" />
    <glyph glyph-name="Agrave" unicode="&#xc0;" horiz-adv-x="790" 
d="M814 228q16 -5 16 -19q-1 -3 -5.5 -25.5t-23.5 -75.5q-40 -107 -89 -107q-25 0 -50 12t-47.5 35t-41 57t-30.5 79q-13 -1 -26 -1h-27q-30 0 -60.5 1t-59.5 1q-50 -95 -99 -141t-113 -46q-36 0 -65 14.5t-50 39.5t-32 58t-11 70q0 36 11.5 68t32 56t49.5 38t65 14
q35 0 59.5 -12t40 -31t22.5 -42.5t7 -46.5q14 1 28.5 1h29.5q20 45 38 93.5t35 97.5q18 50 34 97t36 85t46 63.5t63 31.5q10 0 17 -4.5t7 -15.5q0 -8 -5 -13.5t-13 -6.5q-12 -6 -20 -45t-8 -99q0 -67 8.5 -141t24.5 -140q33 5 47.5 12.5t14.5 12.5q0 9 5.5 15.5t14.5 6.5
q8 0 14 -6t6 -14q0 -25 -21 -41.5t-70 -24.5q9 -30 19 -57t21.5 -47t24.5 -32t28 -12q5 0 19 16t32 64q13 34 20 62.5t7 29.5q3 15 20 15h4zM309 156q5 7 8.5 14l7.5 15h-23.5t-22.5 -1q-14 -35 -40 -52t-52 -17q-22 0 -35.5 12t-13.5 31q0 26 24.5 42t84.5 22q0 15 -4 32
t-13.5 30.5t-27 22.5t-44.5 9t-49 -10.5t-37.5 -29t-23.5 -43.5t-8 -53q0 -26 7 -51t21.5 -45.5t37 -33t52.5 -12.5q82 0 151 118zM418 224q29 -1 57.5 -1h55.5q-16 57 -24.5 119t-8.5 122q0 17 1 32t3 30q-14 -33 -27 -71t-27 -77t-29 -78t-31 -75q8 -1 15 -1h15zM597 715
q-22 0 -51 25q-10 8 -16 14.5t-7 7.5q-5 6 -4.5 14.5t6.5 13.5t14.5 5t13.5 -7q2 -3 5 -6l5.5 -5.5t8.5 -6.5q7 -6 11.5 -8.5t7.5 -4.5q4 -2 6 -2q8 0 14 -6t6 -14t-6 -14t-14 -6zM232 180q-23 -4 -33.5 -7.5t-15.5 -6.5q-5 -4 -5 -8q-2 -3 9 -3q10 0 22 6t23 19z" />
    <glyph glyph-name="Aacute" unicode="&#xc1;" horiz-adv-x="790" 
d="M814 228q14 -5 16 -18q0 -1 -0.5 -6.5t-3.5 -17.5t-9 -31t-16 -47q-40 -107 -89 -107q-25 0 -50 12t-47.5 35t-41 57t-30.5 79q-13 -1 -26 -1h-27q-30 0 -60.5 1t-59.5 1q-50 -95 -99 -141t-113 -46q-36 0 -65 14.5t-50 39.5t-32 58t-11 70q0 36 11.5 68t32 56t49.5 38
t65 14q35 0 59.5 -12t40 -31t22.5 -42.5t7 -46.5q14 1 28.5 1h29.5q20 45 38 93.5t35 97.5q18 50 34 97t36 85t46 63.5t63 31.5q10 0 17 -4.5t7 -15.5q0 -8 -5 -13.5t-13 -6.5q-12 -6 -20 -45t-8 -99q0 -67 8.5 -141t24.5 -140q33 5 47.5 12.5t14.5 12.5q0 9 5.5 15.5
t14.5 6.5q8 0 14 -6t6 -14q0 -25 -21 -41.5t-70 -24.5q9 -30 19 -57t21.5 -47t24.5 -32t28 -12q5 0 19 16t32 64q13 34 20 62.5t7 29.5q3 15 20 15h4zM309 156q5 7 8.5 14l7.5 15h-23.5t-22.5 -1q-14 -35 -40 -52t-52 -17q-22 0 -35.5 12t-13.5 31q0 26 24.5 42t84.5 22
q0 15 -4 32t-13.5 30.5t-27 22.5t-44.5 9t-49 -10.5t-37.5 -29t-23.5 -43.5t-8 -53q0 -26 7 -51t21.5 -45.5t37 -33t52.5 -12.5q82 0 151 118zM418 224q29 -1 57.5 -1h55.5q-16 57 -24.5 119t-8.5 122q0 17 1 32t3 30q-14 -33 -27 -71t-27 -77t-29 -78t-31 -75q8 -1 15 -1
h15zM597 715q-8 0 -14 6t-6 14t6 14t14 6q2 0 6 2q3 2 7.5 4.5t11.5 8.5q4 3 8 6.5t6 5.5q3 3 5 6q6 7 15 7q8 0 14 -6t6 -14q0 -6 -5 -13q-1 -1 -7 -7.5t-16 -14.5q-29 -25 -51 -25zM232 180q-23 -4 -33.5 -7.5t-15.5 -6.5q-5 -4 -5 -8q-2 -3 9 -3q10 0 22 6t23 19z" />
    <glyph glyph-name="Acircumflex" unicode="&#xc2;" horiz-adv-x="790" 
d="M814 228q14 -5 16 -19q-1 -3 -5.5 -25.5t-23.5 -75.5q-40 -107 -89 -107q-25 0 -50 12t-47.5 35t-41 57t-30.5 79q-13 -1 -26 -1h-27q-30 0 -60.5 1t-59.5 1q-50 -95 -99 -141t-113 -46q-36 0 -65 14.5t-50 39.5t-32 58t-11 70q0 36 11.5 68t32 56t49.5 38t65 14
q35 0 59.5 -12t40 -31t22.5 -42.5t7 -46.5q14 1 28.5 1h29.5q20 45 38 93.5t35 97.5q18 50 34 97t36 85t46 63.5t63 31.5q10 0 17 -4.5t7 -15.5q0 -8 -5 -13.5t-13 -6.5q-12 -6 -20 -45t-8 -99q0 -67 8.5 -141t24.5 -140q33 5 47.5 12.5t14.5 12.5q0 9 5.5 15.5t14.5 6.5
q8 0 14 -6t6 -14q0 -25 -21 -41.5t-70 -24.5q9 -30 19 -57t21.5 -47t24.5 -32t28 -12q5 0 19 16t32 64q13 34 20 62.5t7 29.5q3 15 20 15h4zM309 156q5 7 8.5 14l7.5 15h-23.5t-22.5 -1q-14 -35 -40 -52t-52 -17q-22 0 -35.5 12t-13.5 31q0 26 24.5 42t84.5 22q0 15 -4 32
t-13.5 30.5t-27 22.5t-44.5 9t-49 -10.5t-37.5 -29t-23.5 -43.5t-8 -53q0 -26 7 -51t21.5 -45.5t37 -33t52.5 -12.5q82 0 151 118zM418 224q29 -1 57.5 -1h55.5q-16 57 -24.5 119t-8.5 122q0 17 1 32t3 30q-14 -33 -27 -71t-27 -77t-29 -78t-31 -75q8 -1 15 -1h15zM598 825
q10 0 18.5 -9.5t24.5 -38.5q5 -9 12 -23.5t7 -22.5q0 -7 -5.5 -13t-14.5 -6q-6 0 -11.5 3t-7.5 9q-6 15 -13 29.5t-12 23.5q-10 -17 -18 -42q-2 -7 -7.5 -10.5t-11.5 -3.5q-8 0 -14 5t-6 14q0 10 4.5 20t9.5 21q8 16 18 30t27 14zM232 180q-23 -4 -33.5 -7.5t-15.5 -6.5
q-5 -4 -5 -8q-2 -3 9 -3q10 0 22 6t23 19z" />
    <glyph glyph-name="Atilde" unicode="&#xc3;" horiz-adv-x="790" 
d="M814 228q16 -5 16 -19q-1 -3 -5.5 -25.5t-23.5 -75.5q-40 -107 -89 -107q-25 0 -50 12t-47.5 35t-41 57t-30.5 79q-13 -1 -26 -1h-27q-30 0 -60.5 1t-59.5 1q-50 -95 -99 -141t-113 -46q-36 0 -65 14.5t-50 39.5t-32 58t-11 70q0 36 11.5 68t32 56t49.5 38t65 14
q35 0 59.5 -12t40 -31t22.5 -42.5t7 -46.5q14 1 28.5 1h29.5q20 45 38 93.5t35 97.5q18 50 34 97t36 85t46 63.5t63 31.5q10 0 17 -4.5t7 -15.5q0 -8 -5 -13.5t-13 -6.5q-12 -6 -20 -45t-8 -99q0 -67 8.5 -141t24.5 -140q33 5 47.5 12.5t14.5 12.5q0 9 5.5 15.5t14.5 6.5
q8 0 14 -6t6 -14q0 -25 -21 -41.5t-70 -24.5q9 -30 19 -57t21.5 -47t24.5 -32t28 -12q5 0 19 16t32 64q13 34 20 62.5t7 29.5q3 15 20 15h4zM309 156q5 7 8.5 14l7.5 15h-23.5t-22.5 -1q-14 -35 -40 -52t-52 -17q-22 0 -35.5 12t-13.5 31q0 26 24.5 42t84.5 22q0 15 -4 32
t-13.5 30.5t-27 22.5t-44.5 9t-49 -10.5t-37.5 -29t-23.5 -43.5t-8 -53q0 -26 7 -51t21.5 -45.5t37 -33t52.5 -12.5q82 0 151 118zM418 224q29 -1 57.5 -1h55.5q-16 57 -24.5 119t-8.5 122q0 17 1 32t3 30q-14 -33 -27 -71t-27 -77t-29 -78t-31 -75q8 -1 15 -1h15zM625 715
q-18 0 -33 18q-9 10 -13 22q-6 0 -8 -5.5t-2 -12.5q0 -8 -5.5 -13.5t-14.5 -5.5q-8 0 -14 5.5t-6 13.5q0 30 17 45q13 13 35 13q16 0 24.5 -10t11.5 -18q4 -8 7 -11l4 14q5 17 22 17q8 0 13 -6.5t5 -15.5q0 -3 -4 -17.5t-17 -24.5q-10 -8 -22 -8zM232 180q-23 -4 -33.5 -7.5
t-15.5 -6.5q-5 -4 -5 -8q-2 -3 9 -3q10 0 22 6t23 19z" />
    <glyph glyph-name="Adieresis" unicode="&#xc4;" horiz-adv-x="790" 
d="M814 228q14 -5 16 -19q0 1 -0.5 -3.5t-3 -15.5t-8.5 -31t-17 -51q-40 -107 -89 -107q-25 0 -50 12t-47.5 35t-41 57t-30.5 79q-13 -1 -26 -1h-27q-30 0 -60.5 1t-59.5 1q-50 -95 -99 -141t-113 -46q-36 0 -65 14.5t-50 39.5t-32 58t-11 70q0 36 11.5 68t32 56t49.5 38
t65 14q35 0 59.5 -12t40 -31t22.5 -42.5t7 -46.5q14 1 28.5 1h29.5q20 45 38 93.5t35 97.5q18 50 34 97t36 85t46 63.5t63 31.5q10 0 17 -4.5t7 -15.5q0 -8 -5 -13.5t-13 -6.5q-12 -6 -20 -45t-8 -99q0 -67 8.5 -141t24.5 -140q33 5 47.5 12.5t14.5 12.5q0 9 5.5 15.5
t14.5 6.5q8 0 14 -6t6 -14q0 -25 -21 -41.5t-70 -24.5q9 -30 19 -57t21.5 -47t24.5 -32t28 -12q5 0 19 16t32 64q13 34 20 62.5t7 29.5q3 15 20 15h4zM309 156q5 7 8.5 14l7.5 15h-23.5t-22.5 -1q-14 -35 -40 -52t-52 -17q-22 0 -35.5 12t-13.5 31q0 26 24.5 42t84.5 22
q0 15 -4 32t-13.5 30.5t-27 22.5t-44.5 9t-49 -10.5t-37.5 -29t-23.5 -43.5t-8 -53q0 -26 7 -51t21.5 -45.5t37 -33t52.5 -12.5q82 0 151 118zM418 224q29 -1 57.5 -1h55.5q-16 57 -24.5 119t-8.5 122q0 17 1 32t3 30q-14 -33 -27 -71t-27 -77t-29 -78t-31 -75q8 -1 15 -1
h15zM557 716q-8 0 -14 6t-6 14t6 14t14 6t14 -6t6 -14t-6 -14t-14 -6zM637 716q-8 0 -14 6t-6 14t6 14t14 6t14 -6t6 -14t-6 -14t-14 -6zM232 180q-23 -4 -33.5 -7.5t-15.5 -6.5q-5 -4 -5 -8q-2 -3 9 -3q10 0 22 6t23 19z" />
    <glyph glyph-name="Aring" unicode="&#xc5;" horiz-adv-x="790" 
d="M814 228q14 -5 16 -19q-1 -3 -5.5 -25.5t-23.5 -75.5q-40 -107 -89 -107q-25 0 -50 12t-47.5 35t-41 57t-30.5 79q-13 -1 -26 -1h-27q-30 0 -60.5 1t-59.5 1q-50 -95 -99 -141t-113 -46q-36 0 -65 14.5t-50 39.5t-32 58t-11 70q0 36 11.5 68t32 56t49.5 38t65 14
q35 0 59.5 -12t40 -31t22.5 -42.5t7 -46.5q14 1 28.5 1h29.5q20 45 38 93.5t35 97.5q18 50 34 97t36 85t46 63.5t63 31.5q10 0 17 -4.5t7 -15.5q0 -8 -5 -13.5t-13 -6.5q-12 -6 -20 -45t-8 -99q0 -67 8.5 -141t24.5 -140q33 5 47.5 12.5t14.5 12.5q0 9 5.5 15.5t14.5 6.5
q8 0 14 -6t6 -14q0 -25 -21 -41.5t-70 -24.5q9 -30 19 -57t21.5 -47t24.5 -32t28 -12q5 0 19 16t32 64q13 34 20 62.5t7 29.5q3 15 20 15h4zM309 156q5 7 8.5 14l7.5 15h-23.5t-22.5 -1q-14 -35 -40 -52t-52 -17q-22 0 -35.5 12t-13.5 31q0 26 24.5 42t84.5 22q0 15 -4 32
t-13.5 30.5t-27 22.5t-44.5 9t-49 -10.5t-37.5 -29t-23.5 -43.5t-8 -53q0 -26 7 -51t21.5 -45.5t37 -33t52.5 -12.5q82 0 151 118zM418 224q29 -1 57.5 -1h55.5q-16 57 -24.5 119t-8.5 122q0 17 1 32t3 30q-14 -33 -27 -71t-27 -77t-29 -78t-31 -75q8 -1 15 -1h15zM597 710
q-22 0 -35 17.5t-13 38.5q0 23 12.5 38t34.5 15q20 0 33 -15t13 -39q0 -23 -12 -38t-32 -17h-1zM596 789q-17 0 -17 -22q0 -19 8 -23t10 -4q4 0 10 5t6 19t-6.5 19.5t-10.5 5.5zM232 180q-23 -4 -33.5 -7.5t-15.5 -6.5q-5 -4 -5 -8q-2 -3 9 -3q10 0 22 6t23 19z" />
    <glyph glyph-name="AE" unicode="&#xc6;" horiz-adv-x="1050" 
d="M1075 226q15 -5 15 -19q0 -2 -0.5 -3t-0.5 -3q-31 -95 -100 -145q-44 -32 -88 -43t-87 -13q-88 -2 -159.5 45t-109.5 134q-2 2 -2 5q-13 -1 -26 -1h-27q-30 0 -60.5 1t-59.5 1q-50 -95 -99 -141t-113 -46q-36 0 -65 14.5t-50 39.5t-32 58t-11 70q0 36 11.5 68t32 56
t49.5 38t65 14q35 0 59.5 -12t40 -31t22.5 -42.5t7 -46.5q14 1 28.5 1h29.5q20 45 38 93.5t35 97.5q18 50 34 97t36 85t46 63.5t63 31.5q10 0 17 -4.5t7 -15.5q0 -8 -5 -13.5t-13 -6.5q-10 -5 -17 -30.5t-10 -67.5q39 62 97 100.5t129 38.5q45 0 82.5 -14t64 -39.5t41 -62
t14.5 -81.5q0 -42 -14 -78t-39.5 -62.5t-60 -42t-75.5 -15.5q-26 0 -48.5 10.5t-38.5 29.5t-25 44t-9 54t9 53.5t24.5 42.5t38 28t49.5 10q28 0 47.5 -8.5t31 -22t16.5 -29t5 -29.5q0 -15 -5 -31t-17 -29.5t-31 -22t-47 -8.5q-8 0 -14 6t-6 14t6 14t14 6q31 0 45.5 16
t14.5 35q0 18 -14.5 33.5t-45.5 15.5q-38 0 -59.5 -27t-21.5 -67q0 -18 5 -35.5t14.5 -31.5t25 -22.5t36.5 -8.5q33 0 60.5 12t47 33.5t30.5 50.5t11 62q0 29 -9.5 57.5t-29.5 50.5t-50.5 35.5t-72.5 13.5q-44 0 -82.5 -27t-66.5 -71.5t-44 -101t-16 -116.5q0 -29 3.5 -55
t11.5 -55q33 5 47.5 12.5t14.5 12.5q0 9 5.5 15.5t14.5 6.5q8 0 14 -6t6 -14q0 -25 -21 -41.5t-70 -24.5q-1 -1 -2 -1q27 -73 78.5 -110.5t118.5 -37.5q34 0 76 12t77 38q59 44 83 123q5 14 19 14q2 0 3 -0.5t3 -0.5zM309 156q5 7 8.5 14l7.5 15h-23.5t-22.5 -1
q-14 -35 -40 -52t-52 -17q-22 0 -35.5 12t-13.5 31q0 26 24.5 42t84.5 22q0 15 -4 32t-13.5 30.5t-27 22.5t-44.5 9t-49 -10.5t-37.5 -29t-23.5 -43.5t-8 -53q0 -26 7 -51t21.5 -45.5t37 -33t52.5 -12.5q82 0 151 118zM418 224q28 -1 56.5 -1h54.5q-16 57 -23.5 117.5
t-7.5 123.5q0 17 1 32t3 30q-14 -33 -27 -71t-27 -77t-29 -78t-31 -75q8 -1 15 -1h15zM232 180q-23 -4 -33.5 -7.5t-15.5 -6.5q-5 -4 -5 -8q-2 -3 9 -3q10 0 22 6t23 19z" />
    <glyph glyph-name="Ccedilla" unicode="&#xc7;" horiz-adv-x="536" 
d="M561 226q15 -5 15 -19q0 -2 -0.5 -3t-0.5 -3q-31 -95 -100 -145q-38 -28 -76.5 -40t-76.5 -15q4 -20 7 -45t3 -52q0 -58 -24 -79q-5 -5 -13 -8t-19 -3q-8 0 -20 3q-7 2 -10.5 7t-3.5 11q0 10 6 15.5t14 5.5q5 0 8 -1.5t6 -1.5q4 0 6.5 4.5t3.5 6.5q2 6 4 17t2 29
q0 23 -3.5 47t-7.5 43q-58 2 -109 27t-89.5 69.5t-60.5 105.5t-22 136q0 67 21.5 131t60 114t91.5 80.5t115 30.5q45 0 82.5 -14t64 -39.5t41 -62t14.5 -81.5q0 -42 -14 -78t-39.5 -62.5t-60 -42t-75.5 -15.5q-26 0 -48.5 10.5t-38.5 29.5t-25 44t-9 54t9 53.5t24.5 42.5
t38 28t49.5 10q28 0 47.5 -8.5t31 -22t16.5 -29t5 -29.5q0 -15 -5 -31t-17 -29.5t-31 -22t-47 -8.5q-8 0 -14 6t-6 14t6 14t14 6q31 0 45.5 16t14.5 35q0 18 -14.5 33.5t-45.5 15.5q-38 0 -59.5 -27t-21.5 -67q0 -18 5 -35.5t14.5 -31.5t25 -22.5t36.5 -8.5q33 0 60.5 12
t47 33.5t30.5 50.5t11 62q0 29 -9.5 57.5t-29.5 50.5t-50.5 35.5t-72.5 13.5q-44 0 -82.5 -27t-66.5 -71.5t-44 -101t-16 -116.5q0 -72 16.5 -127.5t46 -93.5t70 -57.5t88.5 -19.5q34 0 76 12t77 38q59 44 83 123q5 14 19 14q2 0 3 -0.5t3 -0.5z" />
    <glyph glyph-name="Egrave" unicode="&#xc8;" horiz-adv-x="574" 
d="M599 226q15 -5 15 -19q0 -2 -0.5 -3t-0.5 -3q-31 -95 -100 -145q-44 -32 -88 -43t-87 -13q-82 -2 -150.5 39.5t-108.5 118.5q-6 -1 -11.5 -1h-10.5q-15 0 -26.5 2.5t-19.5 9.5q-12 9 -12 26q0 8 6 14t14 6q16 0 20 -16q6 -2 23 -2q-24 63 -24 141q0 67 21.5 131t60 114
t91.5 80.5t115 30.5q45 0 82.5 -14t64 -39.5t41 -62t14.5 -81.5q0 -42 -14 -78t-39.5 -62.5t-60 -42t-75.5 -15.5q-26 0 -48.5 10.5t-38.5 29.5t-25 44t-9 54t9 53.5t24.5 42.5t38 28t49.5 10q28 0 47.5 -8.5t31 -22t16.5 -29t5 -29.5q0 -15 -5 -31t-17 -29.5t-31 -22
t-47 -8.5q-8 0 -14 6t-6 14t6 14t14 6q31 0 45.5 16t14.5 35q0 18 -14.5 33.5t-45.5 15.5q-38 0 -59.5 -27t-21.5 -67q0 -18 5 -35.5t14.5 -31.5t25 -22.5t36.5 -8.5q33 0 60.5 12t47 33.5t30.5 50.5t11 62q0 29 -9.5 57.5t-29.5 50.5t-50.5 35.5t-72.5 13.5
q-44 0 -82.5 -27t-66.5 -71.5t-44 -101t-16 -116.5q0 -75 18 -132l34 6q60 11 93.5 14.5t48.5 -9.5q10 -8 10 -22q0 -8 -6 -14t-14 -6q-13 0 -18 11q-4 1 -11.5 1t-22.5 -2q-16 -2 -34.5 -5t-38.5 -7q-8 -2 -14 -3t-13 -2q29 -63 78 -95.5t111 -32.5q34 0 76 12t77 38
q59 44 83 123q5 14 19 14q2 0 3 -0.5t3 -0.5zM326 715q-22 0 -51 25q-10 8 -16 14.5t-7 7.5q-5 6 -4.5 14.5t6.5 13.5t14.5 5t13.5 -7q2 -3 5 -6l5.5 -5.5t8.5 -6.5q7 -6 11.5 -8.5t7.5 -4.5q4 -2 6 -2q8 0 14 -6t6 -14t-6 -14t-14 -6z" />
    <glyph glyph-name="Eacute" unicode="&#xc9;" horiz-adv-x="574" 
d="M599 226q15 -5 15 -19q0 -2 -0.5 -3t-0.5 -3q-31 -95 -100 -145q-44 -32 -88 -43t-87 -13q-82 -2 -150.5 39.5t-108.5 118.5q-6 -1 -11.5 -1h-10.5q-15 0 -26.5 2.5t-19.5 9.5q-12 9 -12 26q0 8 6 14t14 6q16 0 20 -16q6 -2 23 -2q-24 63 -24 141q0 67 21.5 131t60 114
t91.5 80.5t115 30.5q45 0 82.5 -14t64 -39.5t41 -62t14.5 -81.5q0 -42 -14 -78t-39.5 -62.5t-60 -42t-75.5 -15.5q-26 0 -48.5 10.5t-38.5 29.5t-25 44t-9 54t9 53.5t24.5 42.5t38 28t49.5 10q28 0 47.5 -8.5t31 -22t16.5 -29t5 -29.5q0 -15 -5 -31t-17 -29.5t-31 -22
t-47 -8.5q-8 0 -14 6t-6 14t6 14t14 6q31 0 45.5 16t14.5 35q0 18 -14.5 33.5t-45.5 15.5q-38 0 -59.5 -27t-21.5 -67q0 -18 5 -35.5t14.5 -31.5t25 -22.5t36.5 -8.5q33 0 60.5 12t47 33.5t30.5 50.5t11 62q0 29 -9.5 57.5t-29.5 50.5t-50.5 35.5t-72.5 13.5
q-44 0 -82.5 -27t-66.5 -71.5t-44 -101t-16 -116.5q0 -75 18 -132l34 6q60 11 93.5 14.5t48.5 -9.5q10 -8 10 -22q0 -8 -6 -14t-14 -6q-13 0 -18 11q-4 1 -11.5 1t-22.5 -2q-16 -2 -34.5 -5t-38.5 -7q-8 -2 -14 -3t-13 -2q29 -63 78 -95.5t111 -32.5q34 0 76 12t77 38
q59 44 83 123q5 14 19 14q2 0 3 -0.5t3 -0.5zM326 715q-8 0 -14 6t-6 14t6 14t14 6q2 0 6 2q3 2 7.5 4.5t11.5 8.5q4 3 8 6.5t6 5.5q3 3 5 6q6 7 15 7q8 0 14 -6t6 -14q0 -6 -5 -13q-1 -1 -7 -7.5t-16 -14.5q-29 -25 -51 -25z" />
    <glyph glyph-name="Ecircumflex" unicode="&#xca;" horiz-adv-x="574" 
d="M599 226q15 -5 15 -19q0 -2 -0.5 -3t-0.5 -3q-31 -95 -100 -145q-44 -32 -88 -43t-87 -13q-82 -2 -150.5 39.5t-108.5 118.5q-6 -1 -11.5 -1h-10.5q-15 0 -26.5 2.5t-19.5 9.5q-12 9 -12 26q0 8 6 14t14 6q16 0 20 -16q6 -2 23 -2q-24 63 -24 141q0 67 21.5 131t60 114
t91.5 80.5t115 30.5q45 0 82.5 -14t64 -39.5t41 -62t14.5 -81.5q0 -42 -14 -78t-39.5 -62.5t-60 -42t-75.5 -15.5q-26 0 -48.5 10.5t-38.5 29.5t-25 44t-9 54t9 53.5t24.5 42.5t38 28t49.5 10q28 0 47.5 -8.5t31 -22t16.5 -29t5 -29.5q0 -15 -5 -31t-17 -29.5t-31 -22
t-47 -8.5q-8 0 -14 6t-6 14t6 14t14 6q31 0 45.5 16t14.5 35q0 18 -14.5 33.5t-45.5 15.5q-38 0 -59.5 -27t-21.5 -67q0 -18 5 -35.5t14.5 -31.5t25 -22.5t36.5 -8.5q33 0 60.5 12t47 33.5t30.5 50.5t11 62q0 29 -9.5 57.5t-29.5 50.5t-50.5 35.5t-72.5 13.5
q-44 0 -82.5 -27t-66.5 -71.5t-44 -101t-16 -116.5q0 -75 18 -132l34 6q60 11 93.5 14.5t48.5 -9.5q10 -8 10 -22q0 -8 -6 -14t-14 -6q-13 0 -18 11q-4 1 -11.5 1t-22.5 -2q-16 -2 -34.5 -5t-38.5 -7q-8 -2 -14 -3t-13 -2q29 -63 78 -95.5t111 -32.5q34 0 76 12t77 38
q59 44 83 123q5 14 19 14q2 0 3 -0.5t3 -0.5zM327 825q10 0 18.5 -9.5t24.5 -38.5q5 -9 12 -23.5t7 -22.5q0 -7 -5.5 -13t-14.5 -6q-6 0 -11.5 3t-7.5 9q-6 15 -13 29.5t-12 23.5q-10 -17 -18 -42q-2 -7 -7.5 -10.5t-11.5 -3.5q-8 0 -14 5t-6 14q0 10 4.5 20t9.5 21
q8 16 18 30t27 14z" />
    <glyph glyph-name="Edieresis" unicode="&#xcb;" horiz-adv-x="574" 
d="M599 226q15 -5 15 -19q0 -2 -0.5 -3t-0.5 -3q-31 -95 -100 -145q-44 -32 -88 -43t-87 -13q-82 -2 -150.5 39.5t-108.5 118.5q-6 -1 -11.5 -1h-10.5q-15 0 -26.5 2.5t-19.5 9.5q-12 9 -12 26q0 8 6 14t14 6q16 0 20 -16q6 -2 23 -2q-24 63 -24 141q0 67 21.5 131t60 114
t91.5 80.5t115 30.5q45 0 82.5 -14t64 -39.5t41 -62t14.5 -81.5q0 -42 -14 -78t-39.5 -62.5t-60 -42t-75.5 -15.5q-26 0 -48.5 10.5t-38.5 29.5t-25 44t-9 54t9 53.5t24.5 42.5t38 28t49.5 10q28 0 47.5 -8.5t31 -22t16.5 -29t5 -29.5q0 -15 -5 -31t-17 -29.5t-31 -22
t-47 -8.5q-8 0 -14 6t-6 14t6 14t14 6q31 0 45.5 16t14.5 35q0 18 -14.5 33.5t-45.5 15.5q-38 0 -59.5 -27t-21.5 -67q0 -18 5 -35.5t14.5 -31.5t25 -22.5t36.5 -8.5q33 0 60.5 12t47 33.5t30.5 50.5t11 62q0 29 -9.5 57.5t-29.5 50.5t-50.5 35.5t-72.5 13.5
q-44 0 -82.5 -27t-66.5 -71.5t-44 -101t-16 -116.5q0 -75 18 -132l34 6q60 11 93.5 14.5t48.5 -9.5q10 -8 10 -22q0 -8 -6 -14t-14 -6q-13 0 -18 11q-4 1 -11.5 1t-22.5 -2q-16 -2 -34.5 -5t-38.5 -7q-8 -2 -14 -3t-13 -2q29 -63 78 -95.5t111 -32.5q34 0 76 12t77 38
q59 44 83 123q5 14 19 14q2 0 3 -0.5t3 -0.5zM286 716q-8 0 -14 6t-6 14t6 14t14 6t14 -6t6 -14t-6 -14t-14 -6zM366 716q-8 0 -14 6t-6 14t6 14t14 6t14 -6t6 -14t-6 -14t-14 -6z" />
    <glyph glyph-name="Igrave" unicode="&#xcc;" horiz-adv-x="590" 
d="M614 228q14 -5 16 -18q0 -2 -5 -24.5t-24 -78.5q-22 -55 -42.5 -81t-46.5 -26q-84 0 -142 133q-45 -67 -101 -100.5t-113 -33.5q-39 0 -68 15.5t-49 40.5t-30 57.5t-10 65.5q0 38 12 70.5t33 56t50 37t64 13.5q58 0 93.5 -33t35.5 -82q0 -19 -6.5 -39.5t-21.5 -38
t-39.5 -28.5t-61.5 -11q-8 0 -14 6t-6 14t6 14t14 6q38 0 63.5 21t25.5 56q0 28 -21.5 51.5t-67.5 23.5q-31 0 -53.5 -12t-37 -31t-21.5 -44t-7 -50t7 -50t21 -44.5t36.5 -32t52.5 -12.5q33 0 62 12.5t53.5 32.5t45 45t36.5 50q-17 57 -27.5 122.5t-10.5 129.5
q0 65 10 113.5t27.5 81t39.5 48.5t46 16q9 0 21 -4.5t23 -18t19 -39.5t8 -69q0 -37 -6.5 -80.5t-18.5 -89.5t-28.5 -91t-36.5 -85q16 -78 42 -124.5t49 -48.5q3 0 7.5 2.5t11.5 11t15.5 24.5t18.5 43q13 35 20 63t7 29q3 15 20 15h4zM407 282q29 69 45.5 143t16.5 134
q0 44 -10 67.5t-21 23.5q-8 0 -16 -15t-14 -41t-10 -62.5t-4 -79.5q0 -42 3.5 -85t9.5 -85zM438 715q-22 0 -51 25q-10 8 -16 14.5t-7 7.5q-5 6 -4.5 14.5t6.5 13.5t14.5 5t13.5 -7q2 -3 5 -6l5.5 -5.5t8.5 -6.5q7 -6 11.5 -8.5t7.5 -4.5q4 -2 6 -2q8 0 14 -6t6 -14t-6 -14
t-14 -6z" />
    <glyph glyph-name="Iacute" unicode="&#xcd;" horiz-adv-x="590" 
d="M614 228q14 -5 16 -18q0 -2 -5 -24.5t-24 -78.5q-22 -55 -42.5 -81t-46.5 -26q-84 0 -142 133q-45 -67 -101 -100.5t-113 -33.5q-39 0 -68 15.5t-49 40.5t-30 57.5t-10 65.5q0 38 12 70.5t33 56t50 37t64 13.5q58 0 93.5 -33t35.5 -82q0 -19 -6.5 -39.5t-21.5 -38
t-39.5 -28.5t-61.5 -11q-8 0 -14 6t-6 14t6 14t14 6q38 0 63.5 21t25.5 56q0 28 -21.5 51.5t-67.5 23.5q-31 0 -53.5 -12t-37 -31t-21.5 -44t-7 -50t7 -50t21 -44.5t36.5 -32t52.5 -12.5q33 0 62 12.5t53.5 32.5t45 45t36.5 50q-17 57 -27.5 122.5t-10.5 129.5
q0 65 10 113.5t27.5 81t39.5 48.5t46 16q9 0 21 -4.5t23 -18t19 -39.5t8 -69q0 -37 -6.5 -80.5t-18.5 -89.5t-28.5 -91t-36.5 -85q16 -78 42 -124.5t49 -48.5q3 0 7.5 2.5t11.5 11t15.5 24.5t18.5 43q13 35 20 63t7 29q3 15 20 15h4zM407 282q29 69 45.5 143t16.5 134
q0 44 -10 67.5t-21 23.5q-8 0 -16 -15t-14 -41t-10 -62.5t-4 -79.5q0 -42 3.5 -85t9.5 -85zM438 715q-8 0 -14 6t-6 14t6 14t14 6q2 0 6 2q3 2 7.5 4.5t11.5 8.5q4 3 8 6.5t6 5.5q3 3 5 6q6 7 15 7q8 0 14 -6t6 -14q0 -6 -5 -13q-1 -1 -7 -7.5t-16 -14.5q-29 -25 -51 -25z
" />
    <glyph glyph-name="Icircumflex" unicode="&#xce;" horiz-adv-x="590" 
d="M614 228q14 -5 16 -18q0 -2 -5 -24.5t-24 -78.5q-22 -55 -42.5 -81t-46.5 -26q-84 0 -142 133q-45 -67 -101 -100.5t-113 -33.5q-39 0 -68 15.5t-49 40.5t-30 57.5t-10 65.5q0 38 12 70.5t33 56t50 37t64 13.5q58 0 93.5 -33t35.5 -82q0 -19 -6.5 -39.5t-21.5 -38
t-39.5 -28.5t-61.5 -11q-8 0 -14 6t-6 14t6 14t14 6q38 0 63.5 21t25.5 56q0 28 -21.5 51.5t-67.5 23.5q-31 0 -53.5 -12t-37 -31t-21.5 -44t-7 -50t7 -50t21 -44.5t36.5 -32t52.5 -12.5q33 0 62 12.5t53.5 32.5t45 45t36.5 50q-17 57 -27.5 122.5t-10.5 129.5
q0 65 10 113.5t27.5 81t39.5 48.5t46 16q9 0 21 -4.5t23 -18t19 -39.5t8 -69q0 -37 -6.5 -80.5t-18.5 -89.5t-28.5 -91t-36.5 -85q16 -78 42 -124.5t49 -48.5q3 0 7.5 2.5t11.5 11t15.5 24.5t18.5 43q13 35 20 63t7 29q3 15 20 15h4zM407 282q29 69 45.5 143t16.5 134
q0 44 -10 67.5t-21 23.5q-8 0 -16 -15t-14 -41t-10 -62.5t-4 -79.5q0 -42 3.5 -85t9.5 -85zM439 825q10 0 18.5 -9.5t24.5 -38.5q5 -9 12 -23.5t7 -22.5q0 -7 -5.5 -13t-14.5 -6q-6 0 -11.5 3t-7.5 9q-6 15 -13 29.5t-12 23.5q-10 -17 -18 -42q-2 -7 -7.5 -10.5t-11.5 -3.5
q-8 0 -14 5t-6 14q0 10 4.5 20t9.5 21q8 16 18 30t27 14z" />
    <glyph glyph-name="Idieresis" unicode="&#xcf;" horiz-adv-x="590" 
d="M614 228q16 -5 16 -19q-1 -4 -5.5 -26.5t-23.5 -75.5q-22 -55 -42.5 -81t-46.5 -26q-84 0 -142 133q-45 -67 -101 -100.5t-113 -33.5q-39 0 -68 15.5t-49 40.5t-30 57.5t-10 65.5q0 38 12 70.5t33 56t50 37t64 13.5q58 0 93.5 -33t35.5 -82q0 -19 -6.5 -39.5t-21.5 -38
t-39.5 -28.5t-61.5 -11q-8 0 -14 6t-6 14t6 14t14 6q38 0 63.5 21t25.5 56q0 28 -21.5 51.5t-67.5 23.5q-31 0 -53.5 -12t-37 -31t-21.5 -44t-7 -50t7 -50t21 -44.5t36.5 -32t52.5 -12.5q33 0 62 12.5t53.5 32.5t45 45t36.5 50q-17 57 -27.5 122.5t-10.5 129.5
q0 65 10 113.5t27.5 81t39.5 48.5t46 16q9 0 21 -4.5t23 -18t19 -39.5t8 -69q0 -37 -6.5 -80.5t-18.5 -89.5t-28.5 -91t-36.5 -85q16 -78 42 -124.5t49 -48.5q3 0 7.5 2.5t11.5 11t15.5 24.5t18.5 43q13 35 20 63t7 29q3 15 20 15h4zM407 282q29 69 45.5 143t16.5 134
q0 44 -10 67.5t-21 23.5q-8 0 -16 -15t-14 -41t-10 -62.5t-4 -79.5q0 -42 3.5 -85t9.5 -85zM398 716q-8 0 -14 6t-6 14t6 14t14 6t14 -6t6 -14t-6 -14t-14 -6zM478 716q-8 0 -14 6t-6 14t6 14t14 6t14 -6t6 -14t-6 -14t-14 -6z" />
    <glyph glyph-name="Eth" unicode="&#xd0;" horiz-adv-x="1117" 
d="M1142 228q15 -5 15 -20q0 -11 -8 -29.5t-22 -39t-34.5 -41t-44.5 -36.5q-102 -66 -271 -66q-33 0 -62 11.5t-52.5 31.5t-40.5 47t-27 57q-7 -32 -12 -62t-10 -56v-5q0 -1 1 -2q0 -19 -17 -22q-14 0 -25.5 17t-20.5 45.5t-15 66t-10 79.5q-28 1 -47.5 1t-19.5 1
q-8 1 -13 8t-3 15t8.5 13t14.5 3q4 0 19 -0.5t37 -1.5q-3 57 -3 112q0 61 5 114.5t16 94.5q-22 -33 -43 -73t-43 -81t-47 -79t-56 -68t-69 -48t-85 -18q-37 0 -66 15t-49.5 39.5t-31.5 57.5t-11 69q0 38 11.5 70.5t32.5 56t50 36.5t64 13q28 0 52 -9t41.5 -24.5t27 -36.5
t9.5 -45q0 -18 -6.5 -38.5t-21.5 -38t-40 -29t-62 -11.5q-8 0 -14 6t-6 14t6 14t14 6q40 0 65 22t25 55q0 29 -21.5 52t-68.5 23q-54 0 -86 -38t-32 -98q0 -26 7 -51t21.5 -45t37 -32.5t52.5 -12.5q56 0 99.5 34t79 85t66 110t61.5 110t65.5 85t78.5 34q11 0 19.5 -4
t8.5 -16q0 -8 -6 -14t-14 -6q-3 0 -8 -3t-11.5 -13.5t-13 -30.5t-12 -55.5t-9 -87.5t-3.5 -126q0 -25 0.5 -49.5t1.5 -47.5h17q48 190 117.5 288t154.5 98q41 0 74 -21t56 -57.5t35.5 -87t12.5 -109.5q0 -93 -29.5 -173t-81.5 -130q51 12 86.5 32t59.5 43t37 46.5t18 42.5
q3 15 19 15q2 0 3 -0.5t3 -0.5zM696 216q-17 -14 -55 -13h-18q5 -32 17 -65.5t38 -59.5q40 -42 99 -42q24 0 43.5 9.5t35 24t27 32.5t19.5 35q22 46 34 105t12 122q0 47 -7 88t-20 71t-31.5 47.5t-40.5 17.5q-36 0 -69 -25t-62 -70t-53.5 -108t-44.5 -139v-4q21 0 35 1.5
t16 3.5q6 5 14.5 4t13.5 -7q5 -7 4 -15t-7 -13zM567 203h-6l2 -22z" />
    <glyph glyph-name="Ntilde" unicode="&#xd1;" horiz-adv-x="1036" 
d="M1060 228q15 -5 15 -20v-4q0 -1 -2 -9.5t-6 -22t-9 -30t-12 -34.5q-21 -56 -42 -81.5t-46 -25.5q-34 0 -53.5 24t-29.5 67.5t-12.5 103.5t-2.5 131q0 67 -0.5 123t-5 96.5t-15 63t-31.5 22.5q-32 0 -58.5 -33t-53 -106.5t-55.5 -190t-66 -283.5q0 -19 -17 -21
q-21 0 -36 35t-24 88t-13.5 116t-4.5 119q0 61 5 114.5t16 95.5q-21 -34 -42 -74t-43.5 -81t-48 -79t-56.5 -67.5t-68.5 -47.5t-84.5 -18q-37 0 -66 15t-49.5 39.5t-31.5 57.5t-11 69q0 38 11.5 70t32.5 55.5t50 37t64 13.5q28 0 52 -8.5t41.5 -24t27 -36.5t9.5 -46
q0 -18 -6.5 -38.5t-21.5 -38t-40 -29t-62 -11.5q-8 0 -14 6t-6 14t6 14t14 6q39 0 64.5 21.5t25.5 55.5q0 28 -21.5 51.5t-68.5 23.5q-54 0 -86 -38.5t-32 -97.5q0 -26 7 -51t21.5 -45t37 -32.5t52.5 -12.5q46 0 82 21.5t65.5 56t54.5 78.5t49 89q23 44 45 80.5t45.5 64
t50 45t58.5 23.5q11 0 19.5 -4t8.5 -16q0 -8 -6 -14t-14 -6q-2 0 -7.5 -2.5t-11.5 -13t-12.5 -30t-12 -53.5t-9 -84.5t-3.5 -121.5q0 -51 1.5 -101.5t3.5 -92.5q33 142 60 240t55 159t58.5 88t69.5 27q45 0 71.5 -31t39.5 -78.5t16.5 -105t3.5 -109.5q0 -59 -3.5 -118.5
t-3.5 -107.5q0 -29 2 -45.5t6 -24.5t8.5 -9.5t9.5 -1.5t19 16t32 64q6 16 11 32.5t8.5 29.5t5.5 21.5l2 8.5q3 15 20 15h4zM837 695q-18 0 -33 18q-9 10 -13 22q-6 0 -8 -5.5t-2 -12.5q0 -8 -5.5 -13.5t-14.5 -5.5q-8 0 -14 5.5t-6 13.5q0 30 17 45q13 13 35 13
q16 0 24.5 -10t11.5 -18q4 -8 7 -11l4 14q5 17 22 17q8 0 13 -6.5t5 -15.5q0 -3 -4 -17.5t-17 -24.5q-10 -8 -22 -8z" />
    <glyph glyph-name="Ograve" unicode="&#xd2;" horiz-adv-x="560" 
d="M578 229q8 0 14.5 -6.5t6.5 -14.5q0 -16 -10 -30.5t-26.5 -26t-38 -18.5t-44.5 -7t-40 4q-23 -62 -69 -96.5t-100 -34.5q-65 0 -115.5 26.5t-85 72t-52.5 107.5t-18 133q0 70 23.5 134.5t63 114t91.5 79t110 29.5q45 -1 82.5 -16t64 -41.5t41 -62.5t14.5 -78t-14 -78
t-39.5 -62.5t-60 -41.5t-75.5 -15q-27 0 -49 10.5t-38 29t-25 43.5t-9 54t9 53.5t24.5 42.5t38 28t49.5 10q28 0 47.5 -8.5t31 -22t16.5 -29t5 -29.5q0 -15 -5 -31t-17 -29.5t-31 -22t-47 -8.5q-8 0 -14 6t-6 14t6 14t14 6q31 0 45.5 16t14.5 35q0 18 -14.5 33.5t-45.5 15.5
q-38 0 -59.5 -27t-21.5 -67q0 -18 5 -35t14.5 -31t25 -22.5t36.5 -8.5q33 0 60 12t47 33t31 50t11 62q0 30 -9.5 58t-29.5 50.5t-50.5 36t-72.5 13.5t-80.5 -26.5t-67 -71t-45.5 -101.5t-17 -118q0 -60 14 -114t39.5 -95t61 -65.5t78.5 -24.5q24 0 44.5 8.5t37 23t29 33.5
t20.5 39q-35 17 -54 47t-19 56q0 28 18.5 46t44.5 18q29 0 47.5 -24t18.5 -68q0 -25 -6 -50q12 -3 25 -3q9 0 21 1.5t24 6.5t22 14.5t15 25.5q2 7 7.5 11.5t11.5 4.5zM414 182q2 9 3 18.5t1 17.5q0 3 -0.5 11.5t-3 17.5t-8 16t-14.5 7q-10 0 -16.5 -6.5t-6.5 -17.5t9.5 -30
t35.5 -34zM289 715q-22 0 -51 25q-10 8 -16 14.5t-7 7.5q-5 6 -4.5 14.5t6.5 13.5t14.5 5t13.5 -7q2 -3 5 -6l5.5 -5.5t8.5 -6.5q7 -6 11.5 -8.5t7.5 -4.5q4 -2 6 -2q8 0 14 -6t6 -14t-6 -14t-14 -6z" />
    <glyph glyph-name="Oacute" unicode="&#xd3;" horiz-adv-x="560" 
d="M578 229q8 0 14.5 -6.5t6.5 -14.5q0 -16 -10 -30.5t-26.5 -26t-38 -18.5t-44.5 -7t-40 4q-23 -62 -69 -96.5t-100 -34.5q-65 0 -115.5 26.5t-85 72t-52.5 107.5t-18 133q0 70 23.5 134.5t63 114t91.5 79t110 29.5q45 -1 82.5 -16t64 -41.5t41 -62.5t14.5 -78t-14 -78
t-39.5 -62.5t-60 -41.5t-75.5 -15q-27 0 -49 10.5t-38 29t-25 43.5t-9 54t9 53.5t24.5 42.5t38 28t49.5 10q28 0 47.5 -8.5t31 -22t16.5 -29t5 -29.5q0 -15 -5 -31t-17 -29.5t-31 -22t-47 -8.5q-8 0 -14 6t-6 14t6 14t14 6q31 0 45.5 16t14.5 35q0 18 -14.5 33.5t-45.5 15.5
q-38 0 -59.5 -27t-21.5 -67q0 -18 5 -35t14.5 -31t25 -22.5t36.5 -8.5q33 0 60 12t47 33t31 50t11 62q0 30 -9.5 58t-29.5 50.5t-50.5 36t-72.5 13.5t-80.5 -26.5t-67 -71t-45.5 -101.5t-17 -118q0 -60 14 -114t39.5 -95t61 -65.5t78.5 -24.5q24 0 44.5 8.5t37 23t29 33.5
t20.5 39q-35 17 -54 47t-19 56q0 28 18.5 46t44.5 18q29 0 47.5 -24t18.5 -68q0 -25 -6 -50q12 -3 25 -3q9 0 21 1.5t24 6.5t22 14.5t15 25.5q2 7 7.5 11.5t11.5 4.5zM414 182q2 9 3 18.5t1 17.5q0 3 -0.5 11.5t-3 17.5t-8 16t-14.5 7q-10 0 -16.5 -6.5t-6.5 -17.5t9.5 -30
t35.5 -34zM289 715q-8 0 -14 6t-6 14t6 14t14 6q2 0 6 2q3 2 7.5 4.5t11.5 8.5q4 3 8 6.5t6 5.5q3 3 5 6q6 7 15 7q8 0 14 -6t6 -14q0 -6 -5 -13q-1 -1 -7 -7.5t-16 -14.5q-29 -25 -51 -25z" />
    <glyph glyph-name="Ocircumflex" unicode="&#xd4;" horiz-adv-x="560" 
d="M578 229q8 0 14.5 -6.5t6.5 -14.5q0 -16 -10 -30.5t-26.5 -26t-38 -18.5t-44.5 -7t-40 4q-23 -62 -69 -96.5t-100 -34.5q-65 0 -115.5 26.5t-85 72t-52.5 107.5t-18 133q0 70 23.5 134.5t63 114t91.5 79t110 29.5q45 -1 82.5 -16t64 -41.5t41 -62.5t14.5 -78t-14 -78
t-39.5 -62.5t-60 -41.5t-75.5 -15q-27 0 -49 10.5t-38 29t-25 43.5t-9 54t9 53.5t24.5 42.5t38 28t49.5 10q28 0 47.5 -8.5t31 -22t16.5 -29t5 -29.5q0 -15 -5 -31t-17 -29.5t-31 -22t-47 -8.5q-8 0 -14 6t-6 14t6 14t14 6q31 0 45.5 16t14.5 35q0 18 -14.5 33.5t-45.5 15.5
q-38 0 -59.5 -27t-21.5 -67q0 -18 5 -35t14.5 -31t25 -22.5t36.5 -8.5q33 0 60 12t47 33t31 50t11 62q0 30 -9.5 58t-29.5 50.5t-50.5 36t-72.5 13.5t-80.5 -26.5t-67 -71t-45.5 -101.5t-17 -118q0 -60 14 -114t39.5 -95t61 -65.5t78.5 -24.5q24 0 44.5 8.5t37 23t29 33.5
t20.5 39q-35 17 -54 47t-19 56q0 28 18.5 46t44.5 18q29 0 47.5 -24t18.5 -68q0 -25 -6 -50q12 -3 25 -3q9 0 21 1.5t24 6.5t22 14.5t15 25.5q2 7 7.5 11.5t11.5 4.5zM414 182q2 9 3 18.5t1 17.5q0 3 -0.5 11.5t-3 17.5t-8 16t-14.5 7q-10 0 -16.5 -6.5t-6.5 -17.5t9.5 -30
t35.5 -34zM290 825q10 0 18.5 -9.5t24.5 -38.5q5 -9 12 -23.5t7 -22.5q0 -7 -5.5 -13t-14.5 -6q-6 0 -11.5 3t-7.5 9q-6 15 -13 29.5t-12 23.5q-10 -17 -18 -42q-2 -7 -7.5 -10.5t-11.5 -3.5q-8 0 -14 5t-6 14q0 10 4.5 20t9.5 21q8 16 18 30t27 14z" />
    <glyph glyph-name="Otilde" unicode="&#xd5;" horiz-adv-x="560" 
d="M578 229q8 0 14.5 -6.5t6.5 -14.5q0 -16 -10 -30.5t-26.5 -26t-38 -18.5t-44.5 -7t-40 4q-23 -62 -69 -96.5t-100 -34.5q-65 0 -115.5 26.5t-85 72t-52.5 107.5t-18 133q0 70 23.5 134.5t63 114t91.5 79t110 29.5q45 -1 82.5 -16t64 -41.5t41 -62.5t14.5 -78t-14 -78
t-39.5 -62.5t-60 -41.5t-75.5 -15q-27 0 -49 10.5t-38 29t-25 43.5t-9 54t9 53.5t24.5 42.5t38 28t49.5 10q28 0 47.5 -8.5t31 -22t16.5 -29t5 -29.5q0 -15 -5 -31t-17 -29.5t-31 -22t-47 -8.5q-8 0 -14 6t-6 14t6 14t14 6q31 0 45.5 16t14.5 35q0 18 -14.5 33.5t-45.5 15.5
q-38 0 -59.5 -27t-21.5 -67q0 -18 5 -35t14.5 -31t25 -22.5t36.5 -8.5q33 0 60 12t47 33t31 50t11 62q0 30 -9.5 58t-29.5 50.5t-50.5 36t-72.5 13.5t-80.5 -26.5t-67 -71t-45.5 -101.5t-17 -118q0 -60 14 -114t39.5 -95t61 -65.5t78.5 -24.5q24 0 44.5 8.5t37 23t29 33.5
t20.5 39q-35 17 -54 47t-19 56q0 28 18.5 46t44.5 18q29 0 47.5 -24t18.5 -68q0 -25 -6 -50q12 -3 25 -3q9 0 21 1.5t24 6.5t22 14.5t15 25.5q2 7 7.5 11.5t11.5 4.5zM414 182q2 9 3 18.5t1 17.5q0 3 -0.5 11.5t-3 17.5t-8 16t-14.5 7q-10 0 -16.5 -6.5t-6.5 -17.5t9.5 -30
t35.5 -34zM317 715q-18 0 -33 18q-9 10 -13 22q-6 0 -8 -5.5t-2 -12.5q0 -8 -5.5 -13.5t-14.5 -5.5q-8 0 -14 5.5t-6 13.5q0 30 17 45q13 13 35 13q16 0 24.5 -10t11.5 -18q4 -8 7 -11l4 14q5 17 22 17q8 0 13 -6.5t5 -15.5q0 -3 -4 -17.5t-17 -24.5q-10 -8 -22 -8z" />
    <glyph glyph-name="Odieresis" unicode="&#xd6;" horiz-adv-x="560" 
d="M578 229q8 0 14.5 -6.5t6.5 -14.5q0 -16 -10 -30.5t-26.5 -26t-38 -18.5t-44.5 -7t-40 4q-23 -62 -69 -96.5t-100 -34.5q-65 0 -115.5 26.5t-85 72t-52.5 107.5t-18 133q0 70 23.5 134.5t63 114t91.5 79t110 29.5q45 -1 82.5 -16t64 -41.5t41 -62.5t14.5 -78t-14 -78
t-39.5 -62.5t-60 -41.5t-75.5 -15q-27 0 -49 10.5t-38 29t-25 43.5t-9 54t9 53.5t24.5 42.5t38 28t49.5 10q28 0 47.5 -8.5t31 -22t16.5 -29t5 -29.5q0 -15 -5 -31t-17 -29.5t-31 -22t-47 -8.5q-8 0 -14 6t-6 14t6 14t14 6q31 0 45.5 16t14.5 35q0 18 -14.5 33.5t-45.5 15.5
q-38 0 -59.5 -27t-21.5 -67q0 -18 5 -35t14.5 -31t25 -22.5t36.5 -8.5q33 0 60 12t47 33t31 50t11 62q0 30 -9.5 58t-29.5 50.5t-50.5 36t-72.5 13.5t-80.5 -26.5t-67 -71t-45.5 -101.5t-17 -118q0 -60 14 -114t39.5 -95t61 -65.5t78.5 -24.5q24 0 44.5 8.5t37 23t29 33.5
t20.5 39q-35 17 -54 47t-19 56q0 28 18.5 46t44.5 18q29 0 47.5 -24t18.5 -68q0 -25 -6 -50q12 -3 25 -3q9 0 21 1.5t24 6.5t22 14.5t15 25.5q2 7 7.5 11.5t11.5 4.5zM414 182q2 9 3 18.5t1 17.5q0 3 -0.5 11.5t-3 17.5t-8 16t-14.5 7q-10 0 -16.5 -6.5t-6.5 -17.5t9.5 -30
t35.5 -34zM249 716q-8 0 -14 6t-6 14t6 14t14 6t14 -6t6 -14t-6 -14t-14 -6zM329 716q-8 0 -14 6t-6 14t6 14t14 6t14 -6t6 -14t-6 -14t-14 -6z" />
    <glyph glyph-name="Oslash" unicode="&#xd8;" horiz-adv-x="560" 
d="M578 229q8 0 14.5 -6.5t6.5 -14.5q0 -16 -10 -30.5t-26.5 -26t-38 -18.5t-44.5 -7t-40 4q-23 -62 -69 -96.5t-100 -34.5q-13 0 -25.5 1t-23.5 3q-2 -5 -2.5 -8t-1.5 -5q-1 -3 -1 -4q-2 -8 -10 -11t-16 0q-7 3 -10.5 10.5t0.5 15.5q0 1 3 12q-45 15 -79 46t-57.5 73.5
t-35.5 95t-12 110.5q0 70 23.5 134.5t63 114t91.5 79t110 29.5q14 -1 27 -2.5t26 -4.5v3q-4 8 -1 15.5t10 11.5q8 4 15.5 1t11.5 -10q7 -14 4 -35q51 -24 80 -70.5t29 -106.5q0 -42 -14 -78t-39.5 -62.5t-60 -41.5t-75.5 -15h-8l-61 -255q18 -6 39 -6q24 0 44.5 8.5t37 23
t29 33.5t20.5 39q-35 17 -54 47t-19 56q0 28 18.5 46t44.5 18q29 0 47.5 -24t18.5 -68q0 -25 -6 -50q12 -3 25 -3q9 0 21 1.5t24 6.5t22 14.5t15 25.5q2 7 7.5 11.5t11.5 4.5zM317 570q5 24 10 44t8 36q-23 5 -47 5q-42 0 -80.5 -26.5t-67 -71t-45.5 -101.5t-17 -118
q0 -45 8.5 -87.5t23.5 -79t37 -65t49 -45.5l59 248q-35 14 -55 48.5t-20 79.5q0 29 9 53.5t24.5 42.5t38 28t49.5 10q4 0 8 -0.5t8 -0.5zM303 340q32 0 59 12t46.5 33t30.5 50t11 62q0 42 -19 79.5t-58 58.5l-18 -76q26 -13 36 -35t10 -42q0 -14 -4.5 -29t-15 -28t-26.5 -22
t-40 -11zM265 348q11 48 22.5 94.5t20.5 88.5h-7q-38 0 -59.5 -27t-21.5 -67q0 -27 11 -52t34 -37zM414 182q2 9 3 18.5t1 17.5q0 3 -0.5 11.5t-3 17.5t-8 16t-14.5 7q-10 0 -16.5 -6.5t-6.5 -17.5t9.5 -30t35.5 -34zM325 434q18 6 27 19.5t9 28.5q0 20 -16 35z" />
    <glyph glyph-name="Ugrave" unicode="&#xd9;" horiz-adv-x="1099" 
d="M1124 228q14 -4 16 -18q0 -1 -0.5 -6.5t-3.5 -17.5t-9 -31.5t-16 -47.5q-40 -107 -89 -107q-44 0 -82.5 33.5t-65.5 96.5q-41 -64 -89 -97t-101 -33t-94.5 31.5t-70.5 86t-44.5 127t-15.5 153.5q0 61 9 112q-27 -50 -56 -105t-65 -101t-82 -76t-107 -30q-36 0 -65.5 14.5
t-50 39t-31.5 57.5t-11 70q0 38 11.5 70t32.5 55.5t50 37t64 13.5q57 0 93 -32t36 -83q0 -19 -6.5 -39.5t-21.5 -38t-39.5 -28.5t-61.5 -11q-8 0 -14 6t-6 14t6 14t14 6q37 0 63 20.5t26 56.5q0 28 -21.5 51.5t-67.5 23.5q-31 0 -53 -11.5t-36.5 -31t-21.5 -44t-7 -49.5
q0 -26 7 -51t21.5 -45t37 -32.5t52.5 -12.5q57 0 100 34t77.5 85t64 110t61 110t68 85t84.5 34q11 0 16.5 -6t5.5 -14t-6 -14t-14 -6q-17 0 -31 -21t-24 -56t-16 -82t-6 -98q0 -63 8 -126.5t26 -115.5t45.5 -84.5t66.5 -32.5q94 0 171 137q-19 57 -29.5 123.5t-10.5 132.5
q0 74 12 123.5t30.5 79.5t40 42.5t41.5 12.5q7 0 17 -4t19 -17t15 -38t6 -66q0 -38 -5.5 -82t-16 -90.5t-24.5 -91.5t-30 -84q16 -85 45.5 -131.5t56.5 -46.5q5 0 19 16.5t32 64.5q13 34 20 62.5t7 29.5q3 15 20 15h4zM894 455q0 -83 12 -162q26 75 38 148.5t12 124.5
q0 38 -6.5 63.5t-10.5 21.5q-17 0 -31 -53.5t-14 -142.5zM747 711q-22 0 -51 25q-10 8 -16 14.5t-7 7.5q-5 6 -4.5 14.5t6.5 13.5t14.5 5t13.5 -7q2 -3 5 -6l5.5 -5.5t8.5 -6.5q7 -6 11.5 -8.5t7.5 -4.5q4 -2 6 -2q8 0 14 -6t6 -14t-6 -14t-14 -6z" />
    <glyph glyph-name="Uacute" unicode="&#xda;" horiz-adv-x="1099" 
d="M1124 228q16 -4 16 -19q-1 -3 -5 -25.5t-24 -76.5q-40 -107 -89 -107q-44 0 -82.5 33.5t-65.5 96.5q-41 -64 -89 -97t-101 -33t-94.5 31.5t-70.5 86t-44.5 127t-15.5 153.5q0 61 9 112q-27 -50 -56 -105t-65 -101t-82 -76t-107 -30q-36 0 -65.5 14.5t-50 39t-31.5 57.5
t-11 70q0 38 11.5 70t32.5 55.5t50 37t64 13.5q57 0 93 -32t36 -83q0 -19 -6.5 -39.5t-21.5 -38t-39.5 -28.5t-61.5 -11q-8 0 -14 6t-6 14t6 14t14 6q37 0 63 20.5t26 56.5q0 28 -21.5 51.5t-67.5 23.5q-31 0 -53 -11.5t-36.5 -31t-21.5 -44t-7 -49.5q0 -26 7 -51t21.5 -45
t37 -32.5t52.5 -12.5q57 0 100 34t77.5 85t64 110t61 110t68 85t84.5 34q11 0 16.5 -6t5.5 -14t-6 -14t-14 -6q-17 0 -31 -21t-24 -56t-16 -82t-6 -98q0 -63 8 -126.5t26 -115.5t45.5 -84.5t66.5 -32.5q94 0 171 137q-19 57 -29.5 123.5t-10.5 132.5q0 74 12 123.5
t30.5 79.5t40 42.5t41.5 12.5q7 0 17 -4t19 -17t15 -38t6 -66q0 -38 -5.5 -82t-16 -90.5t-24.5 -91.5t-30 -84q16 -85 45.5 -131.5t56.5 -46.5q5 0 19 16.5t32 64.5q13 34 20 62.5t7 29.5q3 15 20 15h4zM894 455q0 -83 12 -162q26 75 38 148.5t12 124.5q0 38 -6.5 63.5
t-10.5 21.5q-17 0 -31 -53.5t-14 -142.5zM747 711q-8 0 -14 6t-6 14t6 14t14 6q2 0 6 2q3 2 7.5 4.5t11.5 8.5q4 3 8 6.5t6 5.5q3 3 5 6q6 7 15 7q8 0 14 -6t6 -14q0 -6 -5 -13q-1 -1 -7 -7.5t-16 -14.5q-29 -25 -51 -25z" />
    <glyph glyph-name="Ucircumflex" unicode="&#xdb;" horiz-adv-x="1099" 
d="M1124 228q16 -4 16 -19q-1 -3 -5 -25.5t-24 -76.5q-40 -107 -89 -107q-44 0 -82.5 33.5t-65.5 96.5q-41 -64 -89 -97t-101 -33t-94.5 31.5t-70.5 86t-44.5 127t-15.5 153.5q0 61 9 112q-27 -50 -56 -105t-65 -101t-82 -76t-107 -30q-36 0 -65.5 14.5t-50 39t-31.5 57.5
t-11 70q0 38 11.5 70t32.5 55.5t50 37t64 13.5q57 0 93 -32t36 -83q0 -19 -6.5 -39.5t-21.5 -38t-39.5 -28.5t-61.5 -11q-8 0 -14 6t-6 14t6 14t14 6q37 0 63 20.5t26 56.5q0 28 -21.5 51.5t-67.5 23.5q-31 0 -53 -11.5t-36.5 -31t-21.5 -44t-7 -49.5q0 -26 7 -51t21.5 -45
t37 -32.5t52.5 -12.5q57 0 100 34t77.5 85t64 110t61 110t68 85t84.5 34q11 0 16.5 -6t5.5 -14t-6 -14t-14 -6q-17 0 -31 -21t-24 -56t-16 -82t-6 -98q0 -63 8 -126.5t26 -115.5t45.5 -84.5t66.5 -32.5q94 0 171 137q-19 57 -29.5 123.5t-10.5 132.5q0 74 12 123.5
t30.5 79.5t40 42.5t41.5 12.5q7 0 17 -4t19 -17t15 -38t6 -66q0 -38 -5.5 -82t-16 -90.5t-24.5 -91.5t-30 -84q16 -85 45.5 -131.5t56.5 -46.5q5 0 19 16.5t32 64.5q13 34 20 62.5t7 29.5q3 15 20 15h4zM894 455q0 -83 12 -162q26 75 38 148.5t12 124.5q0 38 -6.5 63.5
t-10.5 21.5q-17 0 -31 -53.5t-14 -142.5zM748 821q10 0 18.5 -9.5t24.5 -38.5q5 -9 12 -23.5t7 -22.5q0 -7 -5.5 -13t-14.5 -6q-6 0 -11.5 3t-7.5 9q-6 15 -13 29.5t-12 23.5q-10 -17 -18 -42q-2 -7 -7.5 -10.5t-11.5 -3.5q-8 0 -14 5t-6 14q0 10 4.5 20t9.5 21q8 16 18 30
t27 14z" />
    <glyph glyph-name="Udieresis" unicode="&#xdc;" horiz-adv-x="1099" 
d="M1124 228q14 -4 16 -18v-1q-1 -3 -5 -25.5t-24 -76.5q-40 -107 -89 -107q-44 0 -82.5 33.5t-65.5 96.5q-41 -64 -89 -97t-101 -33t-94.5 31.5t-70.5 86t-44.5 127t-15.5 153.5q0 61 9 112q-27 -50 -56 -105t-65 -101t-82 -76t-107 -30q-36 0 -65.5 14.5t-50 39
t-31.5 57.5t-11 70q0 38 11.5 70t32.5 55.5t50 37t64 13.5q57 0 93 -32t36 -83q0 -19 -6.5 -39.5t-21.5 -38t-39.5 -28.5t-61.5 -11q-8 0 -14 6t-6 14t6 14t14 6q37 0 63 20.5t26 56.5q0 28 -21.5 51.5t-67.5 23.5q-31 0 -53 -11.5t-36.5 -31t-21.5 -44t-7 -49.5
q0 -26 7 -51t21.5 -45t37 -32.5t52.5 -12.5q57 0 100 34t77.5 85t64 110t61 110t68 85t84.5 34q11 0 16.5 -6t5.5 -14t-6 -14t-14 -6q-17 0 -31 -21t-24 -56t-16 -82t-6 -98q0 -63 8 -126.5t26 -115.5t45.5 -84.5t66.5 -32.5q94 0 171 137q-19 57 -29.5 123.5t-10.5 132.5
q0 74 12 123.5t30.5 79.5t40 42.5t41.5 12.5q7 0 17 -4t19 -17t15 -38t6 -66q0 -38 -5.5 -82t-16 -90.5t-24.5 -91.5t-30 -84q16 -85 45.5 -131.5t56.5 -46.5q5 0 19 16.5t32 64.5q13 34 20 62.5t7 29.5q3 15 20 15h4zM894 455q0 -83 12 -162q26 75 38 148.5t12 124.5
q0 38 -6.5 63.5t-10.5 21.5q-17 0 -31 -53.5t-14 -142.5zM707 712q-8 0 -14 6t-6 14t6 14t14 6t14 -6t6 -14t-6 -14t-14 -6zM787 712q-8 0 -14 6t-6 14t6 14t14 6t14 -6t6 -14t-6 -14t-14 -6z" />
    <glyph glyph-name="Yacute" unicode="&#xdd;" horiz-adv-x="1063" 
d="M1086 227q14 -5 14 -19q0 -2 -0.5 -3t-0.5 -3q-24 -72 -90 -114q-11 -7 -32 -16.5t-42 -18t-36.5 -14.5l-15.5 -6q-9 -109 -34 -156.5t-65 -47.5q-34 0 -55.5 21.5t-21.5 56.5q0 18 7 39t21 40.5t35 37t49 29.5v29.5t-1 31.5q-62 -54 -134 -54q-52 0 -93.5 28.5t-71 78.5
t-45 118t-15.5 147q0 42 6 83q-27 -50 -55.5 -104t-64 -99t-81 -74.5t-106.5 -29.5q-37 0 -66 15t-49.5 39.5t-31.5 57.5t-11 69q0 38 11.5 70.5t32.5 56t50 36.5t64 13q28 0 52 -8.5t41 -24t26.5 -36.5t9.5 -46q0 -18 -6 -39t-21 -38t-40 -28.5t-62 -11.5q-8 0 -14 6t-6 14
t6 14t14 6q23 0 39.5 7t27.5 18t16.5 24.5t5.5 27.5q0 29 -21 52t-68 23q-54 0 -86 -38t-32 -98q0 -26 7 -51t21.5 -45t37 -32.5t52.5 -12.5q57 0 99.5 33.5t77 83.5t64.5 109t60.5 110t65.5 85.5t80 36.5q11 0 20.5 -3.5t9.5 -16.5q0 -8 -6 -14t-14 -6q-20 0 -34.5 -21.5
t-24 -55t-14 -75.5t-4.5 -83q0 -58 8 -117t25.5 -106.5t45.5 -77.5t67 -30q42 0 74.5 20t58.5 49q0 46 -2 93.5t-2 93.5q0 162 23.5 236t81.5 74q8 0 19.5 -4.5t22 -18t17.5 -39t7 -67.5q0 -41 -7 -85t-19.5 -88.5t-30 -86t-38.5 -77.5q0 -65 -3 -123q27 9 54 20t50 26.5
t41.5 37.5t29.5 54q5 13 18 13q5 0 7 -1zM889 288q26 60 40.5 126t14.5 123q0 38 -7.5 63.5t-18.5 25.5q-2 -2 -5.5 -7t-7.5 -17t-7 -32.5t-5 -53.5q-3 -48 -3.5 -106.5t-0.5 -121.5zM750 -111q5 -12 14.5 -16t18.5 -4q-1 0 4.5 1.5t12 14.5t12.5 41.5t6 81.5
q-21 -11 -34.5 -25t-21.5 -28.5t-11.5 -27t-3.5 -20.5q0 -11 3 -18zM747 715q-8 0 -14 6t-6 14t6 14t14 6q2 0 6 2q3 2 7.5 4.5t11.5 8.5q4 3 8 6.5t6 5.5q3 3 5 6q6 7 15 7q8 0 14 -6t6 -14q0 -6 -5 -13q-1 -1 -7 -7.5t-16 -14.5q-29 -25 -51 -25z" />
    <glyph glyph-name="Thorn" unicode="&#xde;" horiz-adv-x="1032" 
d="M1060 220q8 -6 8 -16q0 -4 -4 -12q-2 -1 -23 -21t-67 -46q-21 -12 -49 -24.5t-60 -22.5t-66.5 -16.5t-67.5 -6.5q-23 0 -47 3t-45 10.5t-38.5 21.5t-27.5 36q-9 -66 -30 -96t-52 -30q-9 0 -15 5.5t-6 14.5q0 8 6 14t14 6q1 0 4 3.5t6 14t5.5 31t2.5 53.5q0 60 -4 134.5
t-4 145.5q0 47 3 88t10 72q-22 -32 -43 -72.5t-44 -83.5t-49.5 -84t-59 -73t-71.5 -51.5t-88 -19.5q-37 0 -66 15t-49.5 39.5t-31.5 57.5t-11 69q0 38 11.5 70t32.5 55.5t50 37t64 13.5q28 0 52 -8.5t41.5 -24t27 -36.5t9.5 -46q0 -18 -6.5 -38.5t-21.5 -38t-40 -29
t-62 -11.5q-8 0 -14 6t-6 14t6 14t14 6q39 0 64.5 21.5t25.5 55.5q0 28 -21.5 51.5t-68.5 23.5q-54 0 -86 -38.5t-32 -97.5q0 -26 7 -51t21.5 -45t37 -32.5t52.5 -12.5q57 0 100 33.5t78.5 84.5t66 109.5t62.5 109.5t68 84.5t83 33.5q9 0 16 -5t7 -15q0 -12 -4.5 -13.5
t-11 -3.5t-14.5 -9.5t-14.5 -31.5t-11 -70.5t-4.5 -126.5q41 126 86.5 185.5t105.5 59.5q39 0 70.5 -17.5t53.5 -49t34 -75t12 -96.5q0 -46 -8.5 -91.5t-24 -87t-38 -77t-50.5 -59.5q56 12 96 30t65.5 34.5t38 29l12.5 12.5q5 8 16 8q7 0 12 -4zM580 214q8 -33 22 -59
q12 -23 32 -41t49 -18q43 0 76.5 31.5t56.5 81t35 110.5t12 120q0 39 -6 73t-17 58.5t-28.5 38.5t-39.5 14q-27 0 -51 -18.5t-47 -60t-46 -108t-48 -161.5v-30t-1 -29z" />
    <glyph glyph-name="germandbls" unicode="&#xdf;" horiz-adv-x="439" 
d="M463 228q6 -2 10.5 -7.5t4.5 -12.5q0 -2 -0.5 -2.5t-0.5 -2.5q-1 0 -4 -9.5t-9.5 -24t-18 -32.5t-29.5 -37q-47 -51 -113.5 -76t-146.5 -25q-21 0 -41 5.5t-35 17.5t-24.5 30.5t-9.5 44.5q0 6 0.5 13t2.5 14t6.5 11.5t12.5 4.5q9 0 14.5 -6t5.5 -14q0 -6 -1 -11.5
t-1 -10.5q0 -29 19.5 -44t50.5 -15q16 0 34 5.5t33.5 17.5t26 31t10.5 46q0 30 -10 46t-24.5 23t-32 8.5t-32 2.5t-24.5 5t-10 17t11 18q24 12 42 29t30 36t18 39.5t6 38.5q0 8 -2 19.5t-9 22.5t-19.5 19t-34.5 8q-38 0 -72 -34q-31 -30 -43 -80t-15 -107.5t-1.5 -116
t-4 -106t-22 -77.5t-54.5 -30q-8 0 -14 6t-6 14t6 14t14 6q19 0 27 23.5t11.5 61.5t3.5 87t3 100.5t11 101t26.5 88.5t49.5 63t80 26q67 0 105.5 -31t38.5 -82q0 -37 -22.5 -75.5t-62.5 -65.5q111 -18 111 -118q0 -33 -16 -61q33 19 55.5 42t35.5 43.5t18.5 35t5.5 15.5
q2 6 7.5 10.5t12.5 4.5q1 0 2 -0.5t3 -0.5z" />
    <glyph glyph-name="agrave" unicode="&#xe0;" 
d="M405 228q15 -4 15 -24q0 -1 -2 -9.5t-6 -22t-9.5 -30l-11.5 -34.5q-39 -107 -88 -107q-11 0 -25 4.5t-27.5 18t-25 38t-17.5 64.5q-14 -33 -25.5 -57t-23.5 -39t-24.5 -22t-28.5 -7q-54 0 -86 36t-32 99q0 45 13.5 83t36.5 66.5t53 45t62 17.5q14 0 30.5 -6t33.5 -29
q7 20 19 27t20 7q11 0 16 -12.5t7 -29t1.5 -33t-0.5 -25.5q0 -58 2.5 -97.5t6 -63.5t7.5 -34.5t7 -10.5q5 0 19 16t32 64q13 35 20 63t7 29q3 15 20 15h4zM151 94q5 10 13 31t16.5 44t14.5 44.5t8 31.5l-2.5 10t-8 22t-14.5 21.5t-21 9.5q-19 0 -35.5 -16.5t-28.5 -42.5
t-19 -58.5t-7 -63.5q0 -45 12.5 -65.5t25.5 -20.5q21 0 46 53zM153 369q-22 0 -51 25q-10 8 -16 14.5t-7 7.5q-5 6 -4.5 14.5t6.5 13.5t14.5 5t13.5 -7q2 -3 5 -6l5.5 -5.5t8.5 -6.5q7 -6 11.5 -8.5t7.5 -4.5q4 -2 6 -2q8 0 14 -6t6 -14t-6 -14t-14 -6z" />
    <glyph glyph-name="aacute" unicode="&#xe1;" 
d="M405 228q15 -4 15 -24q0 -1 -2 -9.5t-6 -22t-9.5 -30l-11.5 -34.5q-39 -107 -88 -107q-11 0 -25 4.5t-27.5 18t-25 38t-17.5 64.5q-14 -33 -25.5 -57t-23.5 -39t-24.5 -22t-28.5 -7q-54 0 -86 36t-32 99q0 45 13.5 83t36.5 66.5t53 45t62 17.5q14 0 30.5 -6t33.5 -29
q7 20 19 27t20 7q11 0 16 -12.5t7 -29t1.5 -33t-0.5 -25.5q0 -58 2.5 -97.5t6 -63.5t7.5 -34.5t7 -10.5q5 0 19 16t32 64q13 35 20 63t7 29q3 15 20 15h4zM151 94q5 10 13 31t16.5 44t14.5 44.5t8 31.5l-2.5 10t-8 22t-14.5 21.5t-21 9.5q-19 0 -35.5 -16.5t-28.5 -42.5
t-19 -58.5t-7 -63.5q0 -45 12.5 -65.5t25.5 -20.5q21 0 46 53zM153 369q-8 0 -14 6t-6 14t6 14t14 6q2 0 6 2q3 2 7.5 4.5t11.5 8.5q4 3 8 6.5t6 5.5q3 3 5 6q6 7 15 7q8 0 14 -6t6 -14q0 -6 -5 -13q-1 -1 -7 -7.5t-16 -14.5q-29 -25 -51 -25z" />
    <glyph glyph-name="acircumflex" unicode="&#xe2;" 
d="M405 228q15 -4 15 -24q0 -1 -2 -9.5t-6 -22t-9.5 -30l-11.5 -34.5q-39 -107 -88 -107q-11 0 -25 4.5t-27.5 18t-25 38t-17.5 64.5q-14 -33 -25.5 -57t-23.5 -39t-24.5 -22t-28.5 -7q-54 0 -86 36t-32 99q0 45 13.5 83t36.5 66.5t53 45t62 17.5q14 0 30.5 -6t33.5 -29
q7 20 19 27t20 7q11 0 16 -12.5t7 -29t1.5 -33t-0.5 -25.5q0 -58 2.5 -97.5t6 -63.5t7.5 -34.5t7 -10.5q5 0 19 16t32 64q13 35 20 63t7 29q3 15 20 15h4zM151 94q5 10 13 31t16.5 44t14.5 44.5t8 31.5l-2.5 10t-8 22t-14.5 21.5t-21 9.5q-19 0 -35.5 -16.5t-28.5 -42.5
t-19 -58.5t-7 -63.5q0 -45 12.5 -65.5t25.5 -20.5q21 0 46 53zM154 479q10 0 18.5 -9.5t24.5 -38.5q5 -9 12 -23.5t7 -22.5q0 -7 -5.5 -13t-14.5 -6q-6 0 -11.5 3t-7.5 9q-6 15 -13 29.5t-12 23.5q-10 -17 -18 -42q-2 -7 -7.5 -10.5t-11.5 -3.5q-8 0 -14 5t-6 14
q0 10 4.5 20t9.5 21q8 16 18 30t27 14z" />
    <glyph glyph-name="atilde" unicode="&#xe3;" 
d="M405 228q15 -4 15 -24q0 -1 -2 -9.5t-6 -22t-9.5 -30l-11.5 -34.5q-39 -107 -88 -107q-11 0 -25 4.5t-27.5 18t-25 38t-17.5 64.5q-14 -33 -25.5 -57t-23.5 -39t-24.5 -22t-28.5 -7q-54 0 -86 36t-32 99q0 45 13.5 83t36.5 66.5t53 45t62 17.5q14 0 30.5 -6t33.5 -29
q7 20 19 27t20 7q11 0 16 -12.5t7 -29t1.5 -33t-0.5 -25.5q0 -58 2.5 -97.5t6 -63.5t7.5 -34.5t7 -10.5q5 0 19 16t32 64q13 35 20 63t7 29q3 15 20 15h4zM151 94q5 10 13 31t16.5 44t14.5 44.5t8 31.5l-2.5 10t-8 22t-14.5 21.5t-21 9.5q-19 0 -35.5 -16.5t-28.5 -42.5
t-19 -58.5t-7 -63.5q0 -45 12.5 -65.5t25.5 -20.5q21 0 46 53zM181 369q-18 0 -33 18q-9 10 -13 22q-6 0 -8 -5.5t-2 -12.5q0 -8 -5.5 -13.5t-14.5 -5.5q-8 0 -14 5.5t-6 13.5q0 30 17 45q13 13 35 13q16 0 24.5 -10t11.5 -18q4 -8 7 -11l4 14q5 17 22 17q8 0 13 -6.5
t5 -15.5q0 -3 -4 -17.5t-17 -24.5q-10 -8 -22 -8z" />
    <glyph glyph-name="adieresis" unicode="&#xe4;" 
d="M405 228q15 -4 15 -24q0 -1 -2 -9.5t-6 -22t-9.5 -30l-11.5 -34.5q-39 -107 -88 -107q-11 0 -25 4.5t-27.5 18t-25 38t-17.5 64.5q-14 -33 -25.5 -57t-23.5 -39t-24.5 -22t-28.5 -7q-54 0 -86 36t-32 99q0 45 13.5 83t36.5 66.5t53 45t62 17.5q14 0 30.5 -6t33.5 -29
q7 20 19 27t20 7q11 0 16 -12.5t7 -29t1.5 -33t-0.5 -25.5q0 -58 2.5 -97.5t6 -63.5t7.5 -34.5t7 -10.5q5 0 19 16t32 64q13 35 20 63t7 29q3 15 20 15h4zM151 94q5 10 13 31t16.5 44t14.5 44.5t8 31.5l-2.5 10t-8 22t-14.5 21.5t-21 9.5q-19 0 -35.5 -16.5t-28.5 -42.5
t-19 -58.5t-7 -63.5q0 -45 12.5 -65.5t25.5 -20.5q21 0 46 53zM113 370q-8 0 -14 6t-6 14t6 14t14 6t14 -6t6 -14t-6 -14t-14 -6zM193 370q-8 0 -14 6t-6 14t6 14t14 6t14 -6t6 -14t-6 -14t-14 -6z" />
    <glyph glyph-name="aring" unicode="&#xe5;" 
d="M405 228q15 -4 15 -24q0 -1 -2 -9.5t-6 -22t-9.5 -30l-11.5 -34.5q-39 -107 -88 -107q-11 0 -25 4.5t-27.5 18t-25 38t-17.5 64.5q-14 -33 -25.5 -57t-23.5 -39t-24.5 -22t-28.5 -7q-54 0 -86 36t-32 99q0 45 13.5 83t36.5 66.5t53 45t62 17.5q14 0 30.5 -6t33.5 -29
q7 20 19 27t20 7q11 0 16 -12.5t7 -29t1.5 -33t-0.5 -25.5q0 -58 2.5 -97.5t6 -63.5t7.5 -34.5t7 -10.5q5 0 19 16t32 64q13 35 20 63t7 29q3 15 20 15h4zM151 94q5 10 13 31t16.5 44t14.5 44.5t8 31.5l-2.5 10t-8 22t-14.5 21.5t-21 9.5q-19 0 -35.5 -16.5t-28.5 -42.5
t-19 -58.5t-7 -63.5q0 -45 12.5 -65.5t25.5 -20.5q21 0 46 53zM153 364q-22 0 -35 17.5t-13 38.5q0 23 12.5 38t34.5 15q20 0 33 -15t13 -39q0 -23 -12 -38t-32 -17h-1zM152 443q-17 0 -17 -22q0 -19 8 -23t10 -4q4 0 10 5t6 19t-6.5 19.5t-10.5 5.5z" />
    <glyph glyph-name="ae" unicode="&#xe6;" horiz-adv-x="515" 
d="M539 228q16 -4 16 -19q0 -2 -0.5 -2.5t-0.5 -2.5q0 -1 -2 -9.5t-6.5 -22.5t-12 -32t-18.5 -36q-62 -103 -163 -103q-65 0 -102 34t-42 91q-14 -33 -25.5 -57t-23.5 -39t-24.5 -22t-28.5 -7q-54 0 -86 36t-32 99q0 45 13.5 83t36.5 66.5t53 45t62 17.5q14 0 30.5 -6
t33.5 -29q7 20 19 27t20 7q11 0 15.5 -11t6.5 -27q21 18 46.5 28.5t54.5 10.5q20 0 38.5 -12.5t18.5 -45.5q0 -39 -39.5 -78.5t-110.5 -69.5q0 -43 16.5 -72t49.5 -29q31 0 55.5 12.5t42.5 31.5t30.5 41t20 41t11 32l3.5 13q5 16 20 16h4zM151 94q5 10 13 31t16.5 44
t14.5 44.5t8 31.5l-2.5 10t-8 22t-14.5 21.5t-21 9.5q-19 0 -35.5 -16.5t-28.5 -42.5t-19 -58.5t-7 -63.5q0 -45 12.5 -65.5t25.5 -20.5q21 0 46 53zM396 288q0 5 -2.5 12.5t-12.5 7.5q-7 0 -19 -6t-25.5 -20.5t-26 -37t-20.5 -55.5q16 8 35 19t34.5 24t26 27t10.5 29z" />
    <glyph glyph-name="ccedilla" unicode="&#xe7;" horiz-adv-x="300" 
d="M324 228q8 -2 12 -7.5t4 -12.5v-4q0 -1 -2.5 -9.5t-7.5 -22.5t-12.5 -32t-18.5 -36q-57 -92 -141 -102q4 -19 7 -43t3 -50q0 -58 -24 -79q-5 -5 -13 -8t-19 -3q-8 0 -20 3q-7 2 -10.5 7t-3.5 11q0 10 6 15.5t14 5.5q5 0 8 -1.5t6 -1.5q4 0 6.5 4.5t3.5 6.5q2 6 4 17t2 29
q0 23 -3 45.5t-7 41.5q-60 5 -94 39.5t-36 93.5q0 41 13 79.5t36.5 68t55.5 47.5t70 18q7 0 17 -3t18.5 -10t14.5 -19t6 -29q0 -8 -6 -13.5t-14 -5.5q-10 0 -14 6t-6 13.5t-5 14t-10 6.5q-6 0 -21.5 -8t-32 -27.5t-29.5 -52t-13 -81.5q0 -41 17.5 -69.5t50.5 -28.5
q77 0 128 83q10 16 17 31.5t11 28t6 20.5t2 9q5 15 20 15h4v0z" />
    <glyph glyph-name="egrave" unicode="&#xe8;" horiz-adv-x="299" 
d="M323 228q16 -4 16 -19q0 -2 -0.5 -2.5t-0.5 -2.5q0 -1 -2 -9.5t-6.5 -22.5t-12 -32t-18.5 -36q-62 -103 -163 -103q-70 0 -107.5 39.5t-37.5 105.5q0 41 13.5 78t36.5 64.5t54.5 43.5t67.5 16q20 0 38.5 -12.5t18.5 -45.5q0 -39 -39.5 -78.5t-110.5 -69.5q0 -43 16.5 -72
t49.5 -29q31 0 55.5 12.5t42.5 31.5t30.5 41t20 41t11 32l3.5 13q5 16 20 16h4zM180 288q0 5 -2.5 12.5t-12.5 7.5q-7 0 -19 -6t-25.5 -20.5t-26 -37t-20.5 -55.5q16 8 35 19t34.5 24t26 27t10.5 29zM163 369q-22 0 -51 25q-10 8 -16 14.5t-7 7.5q-5 6 -4.5 14.5t6.5 13.5
t14.5 5t13.5 -7q2 -3 5 -6l5.5 -5.5t8.5 -6.5q7 -6 11.5 -8.5t7.5 -4.5q4 -2 6 -2q8 0 14 -6t6 -14t-6 -14t-14 -6z" />
    <glyph glyph-name="eacute" unicode="&#xe9;" horiz-adv-x="299" 
d="M323 228q16 -4 16 -19q0 -2 -0.5 -2.5t-0.5 -2.5q0 -1 -2 -9.5t-6.5 -22.5t-12 -32t-18.5 -36q-62 -103 -163 -103q-70 0 -107.5 39.5t-37.5 105.5q0 41 13.5 78t36.5 64.5t54.5 43.5t67.5 16q20 0 38.5 -12.5t18.5 -45.5q0 -39 -39.5 -78.5t-110.5 -69.5q0 -43 16.5 -72
t49.5 -29q31 0 55.5 12.5t42.5 31.5t30.5 41t20 41t11 32l3.5 13q5 16 20 16h4zM180 288q0 5 -2.5 12.5t-12.5 7.5q-7 0 -19 -6t-25.5 -20.5t-26 -37t-20.5 -55.5q16 8 35 19t34.5 24t26 27t10.5 29zM163 369q-8 0 -14 6t-6 14t6 14t14 6q2 0 6 2q3 2 7.5 4.5t11.5 8.5
q4 3 8 6.5t6 5.5q3 3 5 6q6 7 15 7q8 0 14 -6t6 -14q0 -6 -5 -13q-1 -1 -7 -7.5t-16 -14.5q-29 -25 -51 -25z" />
    <glyph glyph-name="ecircumflex" unicode="&#xea;" horiz-adv-x="299" 
d="M323 228q16 -4 16 -19q0 -2 -0.5 -2.5t-0.5 -2.5q0 -1 -2 -9.5t-6.5 -22.5t-12 -32t-18.5 -36q-62 -103 -163 -103q-70 0 -107.5 39.5t-37.5 105.5q0 41 13.5 78t36.5 64.5t54.5 43.5t67.5 16q20 0 38.5 -12.5t18.5 -45.5q0 -39 -39.5 -78.5t-110.5 -69.5q0 -43 16.5 -72
t49.5 -29q31 0 55.5 12.5t42.5 31.5t30.5 41t20 41t11 32l3.5 13q5 16 20 16h4zM164 479q10 0 18.5 -9.5t24.5 -38.5q5 -9 12 -23.5t7 -22.5q0 -7 -5.5 -13t-14.5 -6q-6 0 -11.5 3t-7.5 9q-6 15 -13 29.5t-12 23.5q-10 -17 -18 -42q-2 -7 -7.5 -10.5t-11.5 -3.5q-8 0 -14 5
t-6 14q0 10 4.5 20t9.5 21q8 16 18 30t27 14zM180 288q0 5 -2.5 12.5t-12.5 7.5q-7 0 -19 -6t-25.5 -20.5t-26 -37t-20.5 -55.5q16 8 35 19t34.5 24t26 27t10.5 29z" />
    <glyph glyph-name="edieresis" unicode="&#xeb;" horiz-adv-x="299" 
d="M323 228q16 -4 16 -19q0 -2 -0.5 -2.5t-0.5 -2.5q0 -1 -2 -9.5t-6.5 -22.5t-12 -32t-18.5 -36q-62 -103 -163 -103q-70 0 -107.5 39.5t-37.5 105.5q0 41 13.5 78t36.5 64.5t54.5 43.5t67.5 16q20 0 38.5 -12.5t18.5 -45.5q0 -39 -39.5 -78.5t-110.5 -69.5q0 -43 16.5 -72
t49.5 -29q31 0 55.5 12.5t42.5 31.5t30.5 41t20 41t11 32l3.5 13q5 16 20 16h4zM180 288q0 5 -2.5 12.5t-12.5 7.5q-7 0 -19 -6t-25.5 -20.5t-26 -37t-20.5 -55.5q16 8 35 19t34.5 24t26 27t10.5 29zM123 370q-8 0 -14 6t-6 14t6 14t14 6t14 -6t6 -14t-6 -14t-14 -6z
M203 370q-8 0 -14 6t-6 14t6 14t14 6t14 -6t6 -14t-6 -14t-14 -6z" />
    <glyph glyph-name="igrave" unicode="&#xec;" horiz-adv-x="171" 
d="M102 1q-14 0 -32 9t-33.5 32t-26 62.5t-10.5 100.5q0 64 14.5 103t40.5 39q13 0 18.5 -18.5t6.5 -42.5t0 -48t-1 -36q0 -57 3 -89.5t7 -48t8 -19.5t5 -4q5 0 19 16t32 64q13 34 20 62.5t7 29.5q3 15 20 15q8 0 13.5 -5.5t6.5 -13.5q0 -2 -5 -24.5t-25 -76.5
q-38 -107 -88 -107zM55 369q-22 0 -51 25q-10 8 -16 14.5t-7 7.5q-5 6 -4.5 14.5t6.5 13.5t14.5 5t13.5 -7q2 -3 5 -6l5.5 -5.5t8.5 -6.5q7 -6 11.5 -8.5t7.5 -4.5q4 -2 6 -2q8 0 14 -6t6 -14t-6 -14t-14 -6z" />
    <glyph glyph-name="iacute" unicode="&#xed;" horiz-adv-x="171" 
d="M102 1q-14 0 -32 9t-33.5 32t-26 62.5t-10.5 100.5q0 64 14.5 103t40.5 39q13 0 18.5 -18.5t6.5 -42.5t0 -48t-1 -36q0 -57 3 -89.5t7 -48t8 -19.5t5 -4q5 0 19 16t32 64q13 34 20 62.5t7 29.5q3 15 20 15q8 0 13.5 -5.5t6.5 -13.5q0 -2 -5 -24.5t-25 -76.5
q-38 -107 -88 -107zM55 369q-8 0 -14 6t-6 14t6 14t14 6q2 0 6 2q3 2 7.5 4.5t11.5 8.5q4 3 8 6.5t6 5.5q3 3 5 6q6 7 15 7q8 0 14 -6t6 -14q0 -6 -5 -13q-1 -1 -7 -7.5t-16 -14.5q-29 -25 -51 -25z" />
    <glyph glyph-name="icircumflex" unicode="&#xee;" horiz-adv-x="171" 
d="M102 1q-14 0 -32 9t-33.5 32t-26 62.5t-10.5 100.5q0 64 14.5 103t40.5 39q13 0 18.5 -18.5t6.5 -42.5t0 -48t-1 -36q0 -57 3 -89.5t7 -48t8 -19.5t5 -4q5 0 19 16t32 64q13 34 20 62.5t7 29.5q3 15 20 15q8 0 14 -6t6 -14q-1 -5 -6 -27.5t-24 -72.5q-38 -107 -88 -107z
M56 479q10 0 18.5 -9.5t24.5 -38.5q5 -9 12 -23.5t7 -22.5q0 -7 -5.5 -13t-14.5 -6q-6 0 -11.5 3t-7.5 9q-6 15 -13 29.5t-12 23.5q-10 -17 -18 -42q-2 -7 -7.5 -10.5t-11.5 -3.5q-8 0 -14 5t-6 14q0 10 4.5 20t9.5 21q8 16 18 30t27 14z" />
    <glyph glyph-name="idieresis" unicode="&#xef;" horiz-adv-x="171" 
d="M102 1q-14 0 -32 9t-33.5 32t-26 62.5t-10.5 100.5q0 64 14.5 103t40.5 39q13 0 18.5 -18.5t6.5 -42.5t0 -48t-1 -36q0 -57 3 -89.5t7 -48t8 -19.5t5 -4q5 0 19 16t32 64q13 34 20 62.5t7 29.5q3 15 20 15q8 0 14 -6t6 -14q-1 -5 -6 -27.5t-24 -72.5q-38 -107 -88 -107z
M95 370q-8 0 -14 6t-6 14t6 14t14 6t14 -6t6 -14t-6 -14t-14 -6zM15 370q-8 0 -14 6t-6 14t6 14t14 6t14 -6t6 -14t-6 -14t-14 -6z" />
    <glyph glyph-name="eth" unicode="&#xf0;" horiz-adv-x="406" 
d="M279 494q-3 -22 -32 -47l-6 -6q44 -49 69.5 -115t25.5 -128q0 -43 -12 -77q37 37 58.5 62.5t23.5 30.5q4 10 17 10q4 0 10 -2q10 -6 10 -18q0 -3 -2 -9q-2 -2 -22.5 -30.5t-59.5 -65.5q-47 -45 -101 -73t-123 -28q-32 0 -57.5 15t-43 40.5t-26.5 59.5t-9 72q0 52 23 82.5
t62 30.5t68 -15t49.5 -38.5t33 -53.5t17.5 -60q6 25 6 55q0 53 -18 109.5t-47 101.5q-17 -15 -30 -26.5t-14 -11.5q-7 -5 -14.5 -3.5t-12.5 9.5q-5 7 -3.5 14.5t9.5 12.5l42 37q-19 22 -38.5 34.5t-39.5 13.5q-9 -1 -15 5.5t-6 14.5t6 14t14 6q34 0 64.5 -13t57.5 -36
q11 11 18.5 19.5t7.5 12.5q1 8 8 13t15 4q8 -2 13 -8.5t4 -14.5zM39 185q0 -26 6 -52.5t17 -47.5t28 -34t40 -13q52 0 84 26q-19 47 -39 83.5t-38 61t-32 37t-21 12.5q-23 0 -34 -20.5t-11 -52.5z" />
    <glyph glyph-name="ntilde" unicode="&#xf1;" horiz-adv-x="387" 
d="M413 227q14 -5 14 -19q0 -2 -1.5 -7.5t-5.5 -17.5t-12 -30.5t-21 -46.5q-26 -54 -50 -79.5t-48 -25.5q-26 0 -42 20t-24.5 49.5t-11.5 63.5t-3 62q0 10 0.5 29t1 37.5t-0.5 32t-4 13.5q-7 0 -19.5 -7.5t-29 -36.5t-36 -86.5t-41.5 -156.5q0 -8 -5.5 -14t-13.5 -6
q-16 -1 -27 16t-18.5 45.5t-11 65.5t-3.5 76q0 64 13.5 103.5t45.5 39.5q12 0 16.5 -15t5 -39t-0.5 -54t-1 -60q28 88 58.5 128.5t66.5 40.5q26 0 42 -10.5t25 -28.5t12.5 -41t3.5 -48q0 -16 -1.5 -41t-2.5 -51t0 -50t7 -37q1 0 6 2.5t12.5 10.5t18 24.5t24.5 44.5
q16 34 26.5 62.5t10.5 29.5q2 6 7 9.5t11 3.5q5 0 7 -1zM232 369q-18 0 -33 18q-9 10 -13 22q-6 0 -8 -5.5t-2 -12.5q0 -8 -5.5 -13.5t-14.5 -5.5q-8 0 -14 5.5t-6 13.5q0 30 17 45q13 13 35 13q16 0 24.5 -10t11.5 -18q4 -8 7 -11l4 14q5 17 22 17q8 0 13 -6.5t5 -15.5
q0 -3 -4 -17.5t-17 -24.5q-10 -8 -22 -8z" />
    <glyph glyph-name="ograve" unicode="&#xf2;" horiz-adv-x="299" 
d="M324 227q13 -5 13 -18q0 -5 -1 -7q-28 -79 -111 -90q-15 -56 -46 -83.5t-74 -27.5q-34 0 -59.5 10.5t-42.5 27.5t-25.5 40t-8.5 47q0 33 11.5 59.5t33.5 37.5q0 2 -0.5 5t-0.5 6q0 22 7.5 42.5t20.5 36.5t31.5 25.5t39.5 9.5q54 0 87.5 -45.5t33.5 -125.5
q0 -6 -0.5 -11.5t-0.5 -11.5q26 6 41.5 21t25.5 40q2 6 7 9.5t11 3.5q5 0 7 -1zM193 177q0 24 -5 47.5t-15 42t-23.5 30t-31.5 11.5q-23 0 -32 -21t-9 -50q0 -20 11.5 -36.5t28.5 -28t36 -17.5t34 -6q5 0 5.5 11t0.5 17zM169 80q4 7 7.5 14t5.5 15q-17 0 -35.5 4.5t-36.5 12
t-34 17t-28 21.5q-1 -5 -1 -11v-13q2 -44 16 -71.5t42 -27.5q41 0 64 39zM112 369q-22 0 -51 25q-10 8 -16 14.5t-7 7.5q-5 6 -4.5 14.5t6.5 13.5t14.5 5t13.5 -7q2 -3 5 -6l5.5 -5.5t8.5 -6.5q7 -6 11.5 -8.5t7.5 -4.5q4 -2 6 -2q8 0 14 -6t6 -14t-6 -14t-14 -6z" />
    <glyph glyph-name="oacute" unicode="&#xf3;" horiz-adv-x="299" 
d="M324 227q13 -5 13 -18q0 -5 -1 -7q-28 -79 -111 -90q-15 -56 -46 -83.5t-74 -27.5q-34 0 -59.5 10.5t-42.5 27.5t-25.5 40t-8.5 47q0 33 11.5 59.5t33.5 37.5q0 2 -0.5 5t-0.5 6q0 22 7.5 42.5t20.5 36.5t31.5 25.5t39.5 9.5q54 0 87.5 -45.5t33.5 -125.5
q0 -6 -0.5 -11.5t-0.5 -11.5q26 6 41.5 21t25.5 40q2 6 7 9.5t11 3.5q5 0 7 -1zM193 177q0 24 -5 47.5t-15 42t-23.5 30t-31.5 11.5q-23 0 -32 -21t-9 -50q0 -20 11.5 -36.5t28.5 -28t36 -17.5t34 -6q5 0 5.5 11t0.5 17zM169 80q4 7 7.5 14t5.5 15q-17 0 -35.5 4.5t-36.5 12
t-34 17t-28 21.5q-1 -5 -1 -11v-13q2 -44 16 -71.5t42 -27.5q41 0 64 39zM112 369q-8 0 -14 6t-6 14t6 14t14 6q2 0 6 2q3 2 7.5 4.5t11.5 8.5q4 3 8 6.5t6 5.5q3 3 5 6q6 7 15 7q8 0 14 -6t6 -14q0 -6 -5 -13q-1 -1 -7 -7.5t-16 -14.5q-29 -25 -51 -25z" />
    <glyph glyph-name="ocircumflex" unicode="&#xf4;" horiz-adv-x="299" 
d="M324 227q13 -5 13 -18q0 -5 -1 -7q-28 -79 -111 -90q-15 -56 -46 -83.5t-74 -27.5q-34 0 -59.5 10.5t-42.5 27.5t-25.5 40t-8.5 47q0 33 11.5 59.5t33.5 37.5q0 2 -0.5 5t-0.5 6q0 22 7.5 42.5t20.5 36.5t31.5 25.5t39.5 9.5q54 0 87.5 -45.5t33.5 -125.5
q0 -6 -0.5 -11.5t-0.5 -11.5q26 6 41.5 21t25.5 40q2 6 7 9.5t11 3.5q5 0 7 -1zM193 177q0 24 -5 47.5t-15 42t-23.5 30t-31.5 11.5q-23 0 -32 -21t-9 -50q0 -20 11.5 -36.5t28.5 -28t36 -17.5t34 -6q5 0 5.5 11t0.5 17zM169 80q4 7 7.5 14t5.5 15q-17 0 -35.5 4.5t-36.5 12
t-34 17t-28 21.5q-1 -5 -1 -11v-13q2 -44 16 -71.5t42 -27.5q41 0 64 39zM113 479q10 0 18.5 -9.5t24.5 -38.5q5 -9 12 -23.5t7 -22.5q0 -7 -5.5 -13t-14.5 -6q-6 0 -11.5 3t-7.5 9q-6 15 -13 29.5t-12 23.5q-10 -17 -18 -42q-2 -7 -7.5 -10.5t-11.5 -3.5q-8 0 -14 5t-6 14
q0 10 4.5 20t9.5 21q8 16 18 30t27 14z" />
    <glyph glyph-name="otilde" unicode="&#xf5;" horiz-adv-x="299" 
d="M324 227q13 -5 13 -18q0 -5 -1 -7q-28 -79 -111 -90q-15 -56 -46 -83.5t-74 -27.5q-34 0 -59.5 10.5t-42.5 27.5t-25.5 40t-8.5 47q0 33 11.5 59.5t33.5 37.5q0 2 -0.5 5t-0.5 6q0 22 7.5 42.5t20.5 36.5t31.5 25.5t39.5 9.5q54 0 87.5 -45.5t33.5 -125.5
q0 -6 -0.5 -11.5t-0.5 -11.5q26 6 41.5 21t25.5 40q2 6 7 9.5t11 3.5q5 0 7 -1zM193 177q0 24 -5 47.5t-15 42t-23.5 30t-31.5 11.5q-23 0 -32 -21t-9 -50q0 -20 11.5 -36.5t28.5 -28t36 -17.5t34 -6q5 0 5.5 11t0.5 17zM169 80q4 7 7.5 14t5.5 15q-17 0 -35.5 4.5t-36.5 12
t-34 17t-28 21.5q-1 -5 -1 -11v-13q2 -44 16 -71.5t42 -27.5q41 0 64 39zM140 369q-18 0 -33 18q-9 10 -13 22q-6 0 -8 -5.5t-2 -12.5q0 -8 -5.5 -13.5t-14.5 -5.5q-8 0 -14 5.5t-6 13.5q0 30 17 45q13 13 35 13q16 0 24.5 -10t11.5 -18q4 -8 7 -11l4 14q5 17 22 17
q8 0 13 -6.5t5 -15.5q0 -3 -4 -17.5t-17 -24.5q-10 -8 -22 -8z" />
    <glyph glyph-name="odieresis" unicode="&#xf6;" horiz-adv-x="299" 
d="M324 227q13 -5 13 -18q0 -5 -1 -7q-28 -79 -111 -90q-15 -56 -46 -83.5t-74 -27.5q-34 0 -59.5 10.5t-42.5 27.5t-25.5 40t-8.5 47q0 33 11.5 59.5t33.5 37.5q0 2 -0.5 5t-0.5 6q0 22 7.5 42.5t20.5 36.5t31.5 25.5t39.5 9.5q54 0 87.5 -45.5t33.5 -125.5
q0 -6 -0.5 -11.5t-0.5 -11.5q26 6 41.5 21t25.5 40q2 6 7 9.5t11 3.5q5 0 7 -1zM193 177q0 24 -5 47.5t-15 42t-23.5 30t-31.5 11.5q-23 0 -32 -21t-9 -50q0 -20 11.5 -36.5t28.5 -28t36 -17.5t34 -6q5 0 5.5 11t0.5 17zM169 80q4 7 7.5 14t5.5 15q-17 0 -35.5 4.5t-36.5 12
t-34 17t-28 21.5q-1 -5 -1 -11v-13q2 -44 16 -71.5t42 -27.5q41 0 64 39zM72 370q-8 0 -14 6t-6 14t6 14t14 6t14 -6t6 -14t-6 -14t-14 -6zM152 370q-8 0 -14 6t-6 14t6 14t14 6t14 -6t6 -14t-6 -14t-14 -6z" />
    <glyph glyph-name="oslash" unicode="&#xf8;" horiz-adv-x="299" 
d="M324 227q13 -5 13 -18q0 -5 -1 -7q-28 -79 -111 -90q-15 -56 -46 -83.5t-74 -27.5h-4q-2 -7 -3 -11.5t-3 -8.5t-3 -8q-2 -8 -10 -11t-16 0q-7 3 -10.5 10.5t0.5 15.5q0 3 5 18q-46 12 -69 45.5t-23 74.5q0 33 11.5 59.5t33.5 37.5q0 2 -0.5 5t-0.5 6q0 22 7.5 42.5
t20.5 36.5t31.5 25.5t39.5 9.5q11 0 20 -2t18 -5q5 19 3 22q-4 8 -1 15.5t10 11.5q8 4 15.5 1t11.5 -10q10 -20 0 -57l-2 -8q22 -22 34 -57t12 -82q0 -6 -0.5 -11.5t-0.5 -11.5q26 6 41.5 21t25.5 40q2 6 7 9.5t11 3.5q5 0 7 -1zM109 178q9 34 17.5 65.5t14.5 57.5
q-12 7 -23 7q-23 0 -32 -21t-9 -50q0 -18 9 -33t23 -26zM193 177q0 23 -5 46.5t-15 41.5l-29 -107q22 -9 43 -9q5 0 5.5 11t0.5 17zM74 53q5 17 10.5 37t11.5 41q-14 7 -26.5 15t-21.5 18q-1 -5 -1 -11v-13q1 -29 7.5 -52t19.5 -35zM169 80q4 7 7.5 14t5.5 15q-22 0 -49 8
l-21 -76q36 3 57 39z" />
    <glyph glyph-name="ugrave" unicode="&#xf9;" 
d="M406 228q15 -4 15 -24q0 -1 -2 -9.5t-6 -22t-9 -30t-12 -34.5q-21 -56 -42 -81.5t-46 -25.5q-11 0 -22.5 3.5t-23 13t-22 27t-19.5 45.5q-31 -89 -88 -89q-29 0 -53 15.5t-41 43.5t-26 65.5t-9 81.5q0 42 7 69t17 43t21 22t20 6q8 0 14 -6t6 -14q0 -21 -3 -61t-3 -85
q0 -47 5 -74.5t12 -42t14.5 -18.5t11.5 -5q19 0 33 16.5t23 41.5t15 55t9 57q1 40 6 66.5t12.5 42t17 21.5t19.5 6q4 0 8.5 -1.5t8 -7.5t5.5 -18t2 -33v-90q0 -53 3 -84t7 -47t8 -20.5t5 -4.5q5 0 19 16t32 64q6 16 11 32.5t8.5 29.5t5.5 21.5l2 8.5q3 15 20 15h4zM155 369
q-22 0 -51 25q-10 8 -16 14.5t-7 7.5q-5 6 -4.5 14.5t6.5 13.5t14.5 5t13.5 -7q2 -3 5 -6l5.5 -5.5t8.5 -6.5q7 -6 11.5 -8.5t7.5 -4.5q4 -2 6 -2q8 0 14 -6t6 -14t-6 -14t-14 -6z" />
    <glyph glyph-name="uacute" unicode="&#xfa;" 
d="M406 228q15 -4 15 -24q0 -1 -2 -9.5t-6 -22t-9 -30t-12 -34.5q-21 -56 -42 -81.5t-46 -25.5q-11 0 -22.5 3.5t-23 13t-22 27t-19.5 45.5q-31 -89 -88 -89q-29 0 -53 15.5t-41 43.5t-26 65.5t-9 81.5q0 42 7 69t17 43t21 22t20 6q8 0 14 -6t6 -14q0 -21 -3 -61t-3 -85
q0 -47 5 -74.5t12 -42t14.5 -18.5t11.5 -5q19 0 33 16.5t23 41.5t15 55t9 57q1 40 6 66.5t12.5 42t17 21.5t19.5 6q4 0 8.5 -1.5t8 -7.5t5.5 -18t2 -33v-90q0 -53 3 -84t7 -47t8 -20.5t5 -4.5q5 0 19 16t32 64q6 16 11 32.5t8.5 29.5t5.5 21.5l2 8.5q3 15 20 15h4zM155 369
q-8 0 -14 6t-6 14t6 14t14 6q2 0 6 2q3 2 7.5 4.5t11.5 8.5q4 3 8 6.5t6 5.5q3 3 5 6q6 7 15 7q8 0 14 -6t6 -14q0 -6 -5 -13q-1 -1 -7 -7.5t-16 -14.5q-29 -25 -51 -25z" />
    <glyph glyph-name="ucircumflex" unicode="&#xfb;" 
d="M406 228q15 -4 15 -24q0 -1 -2 -9.5t-6 -22t-9 -30t-12 -34.5q-21 -56 -42 -81.5t-46 -25.5q-11 0 -22.5 3.5t-23 13t-22 27t-19.5 45.5q-31 -89 -88 -89q-29 0 -53 15.5t-41 43.5t-26 65.5t-9 81.5q0 42 7 69t17 43t21 22t20 6q8 0 14 -6t6 -14q0 -21 -3 -61t-3 -85
q0 -47 5 -74.5t12 -42t14.5 -18.5t11.5 -5q19 0 33 16.5t23 41.5t15 55t9 57q1 40 6 66.5t12.5 42t17 21.5t19.5 6q4 0 8.5 -1.5t8 -7.5t5.5 -18t2 -33v-90q0 -53 3 -84t7 -47t8 -20.5t5 -4.5q5 0 19 16t32 64q6 16 11 32.5t8.5 29.5t5.5 21.5l2 8.5q3 15 20 15h4zM156 479
q10 0 18.5 -9.5t24.5 -38.5q5 -9 12 -23.5t7 -22.5q0 -7 -5.5 -13t-14.5 -6q-6 0 -11.5 3t-7.5 9q-6 15 -13 29.5t-12 23.5q-10 -17 -18 -42q-2 -7 -7.5 -10.5t-11.5 -3.5q-8 0 -14 5t-6 14q0 10 4.5 20t9.5 21q8 16 18 30t27 14z" />
    <glyph glyph-name="udieresis" unicode="&#xfc;" 
d="M406 228q15 -4 15 -24q0 -1 -2 -9.5t-6 -22t-9 -30t-12 -34.5q-21 -56 -42 -81.5t-46 -25.5q-11 0 -22.5 3.5t-23 13t-22 27t-19.5 45.5q-31 -89 -88 -89q-29 0 -53 15.5t-41 43.5t-26 65.5t-9 81.5q0 42 7 69t17 43t21 22t20 6q8 0 14 -6t6 -14q0 -21 -3 -61t-3 -85
q0 -47 5 -74.5t12 -42t14.5 -18.5t11.5 -5q19 0 33 16.5t23 41.5t15 55t9 57q1 40 6 66.5t12.5 42t17 21.5t19.5 6q4 0 8.5 -1.5t8 -7.5t5.5 -18t2 -33v-90q0 -53 3 -84t7 -47t8 -20.5t5 -4.5q5 0 19 16t32 64q6 16 11 32.5t8.5 29.5t5.5 21.5l2 8.5q3 15 20 15h4zM195 370
q-8 0 -14 6t-6 14t6 14t14 6t14 -6t6 -14t-6 -14t-14 -6zM115 370q-8 0 -14 6t-6 14t6 14t14 6t14 -6t6 -14t-6 -14t-14 -6z" />
    <glyph glyph-name="yacute" unicode="&#xfd;" horiz-adv-x="365" 
d="M392 227q12 -5 12 -18q0 -6 -1 -8q-20 -55 -53 -90t-69 -64q-9 -66 -24.5 -108t-33 -65.5t-36.5 -32.5t-36 -10q-26 0 -42.5 13.5t-16.5 39.5q0 19 10 40t25.5 41t35.5 39t40 35q1 5 1.5 11t0.5 13q-28 -62 -77 -62q-29 0 -52.5 15.5t-40.5 43.5t-26.5 65.5t-9.5 81.5
q0 42 7 69t17 43t21 22t20 6q8 0 14 -6t6 -14q0 -21 -3 -61t-3 -85q0 -47 5 -74.5t12 -42t14.5 -18.5t11.5 -5q22 0 38.5 26t27.5 63t16.5 77.5t5.5 68.5q0 23 -1 36t-1 14q0 7 6 14t14 7q21 0 33 -19.5t18 -49.5t7.5 -66t1.5 -69v-20t-1 -20q25 22 45.5 48.5t34.5 63.5
q5 13 18 13q5 0 8 -1zM161 -122q8 8 17.5 30.5t17.5 72.5q-36 -33 -49.5 -59t-13.5 -38q0 -4 0.5 -8.5t13.5 -4.5q3 0 6 1t8 6zM150 369q-8 0 -14 6t-6 14t6 14t14 6q2 0 6 2q3 2 7.5 4.5t11.5 8.5q4 3 8 6.5t6 5.5q3 3 5 6q6 7 15 7q8 0 14 -6t6 -14q0 -6 -5 -13
q-1 -1 -7 -7.5t-16 -14.5q-29 -25 -51 -25z" />
    <glyph glyph-name="thorn" unicode="&#xfe;" horiz-adv-x="354" 
d="M381 227q12 -5 12 -19q0 -5 -1 -7q0 -2 -15 -32t-47 -67q-44 -50 -98.5 -75.5t-114.5 -25.5q-25 0 -45 17q-8 -59 -18.5 -95.5t-22.5 -57t-25 -27.5t-25 -7q-8 0 -14 6t-6 14q0 15 16 19q2 4 7 20t10 60q6 69 6 188q0 24 -0.5 60t-0.5 75t-1 78t-1 70.5t-0.5 51
l-0.5 19.5v2q0 7 6 13t14 6q12 0 20.5 -19.5t15 -50t10 -67t6 -70t4 -60.5t2.5 -37q24 73 46.5 106t49.5 33q54 0 85.5 -39t31.5 -101q0 -31 -8.5 -62.5t-24.5 -59.5q26 19 45 42t31.5 42.5t18.5 32.5l6 13q2 6 7.5 9t11.5 3q5 0 7 -1zM84 62q14 -20 35 -20q19 0 35 16.5
t28 42t19 57.5t7 64q0 40 -11.5 62.5t-25.5 23.5l-3 -0.5t-8.5 -7t-14 -21.5t-19.5 -43q-14 -35 -26.5 -77t-23.5 -81z" />
    <glyph glyph-name="ydieresis" unicode="&#xff;" horiz-adv-x="365" 
d="M392 227q12 -5 12 -18q0 -6 -1 -8q-20 -55 -53 -90t-69 -64q-9 -66 -24.5 -108t-33 -65.5t-36.5 -32.5t-36 -10q-26 0 -42.5 13.5t-16.5 39.5q0 19 10 40t25.5 41t35.5 39t40 35q1 5 1.5 11t0.5 13q-28 -62 -77 -62q-29 0 -52.5 15.5t-40.5 43.5t-26.5 65.5t-9.5 81.5
q0 42 7 69t17 43t21 22t20 6q8 0 14 -6t6 -14q0 -21 -3 -61t-3 -85q0 -47 5 -74.5t12 -42t14.5 -18.5t11.5 -5q22 0 38.5 26t27.5 63t16.5 77.5t5.5 68.5q0 23 -1 36t-1 14q0 7 6 14t14 7q21 0 33 -19.5t18 -49.5t7.5 -66t1.5 -69v-20t-1 -20q25 22 45.5 48.5t34.5 63.5
q5 13 18 13q5 0 8 -1zM161 -122q8 8 17.5 30.5t17.5 72.5q-36 -33 -49.5 -59t-13.5 -38q0 -4 0.5 -8.5t13.5 -4.5q3 0 6 1t8 6zM110 370q-8 0 -14 6t-6 14t6 14t14 6t14 -6t6 -14t-6 -14t-14 -6zM190 370q-8 0 -14 6t-6 14t6 14t14 6t14 -6t6 -14t-6 -14t-14 -6z" />
    <glyph glyph-name="Abreve" unicode="&#x102;" horiz-adv-x="790" 
d="M814 228q16 -5 16 -19q-1 -3 -5.5 -25.5t-23.5 -75.5q-40 -107 -89 -107q-25 0 -50 12t-47.5 35t-41 57t-30.5 79q-13 -1 -26 -1h-27q-30 0 -60.5 1t-59.5 1q-50 -95 -99 -141t-113 -46q-36 0 -65 14.5t-50 39.5t-32 58t-11 70q0 36 11.5 68t32 56t49.5 38t65 14
q35 0 59.5 -12t40 -31t22.5 -42.5t7 -46.5q14 1 28.5 1h29.5q20 45 38 93.5t35 97.5q18 50 34 97t36 85t46 63.5t63 31.5q10 0 17 -4.5t7 -15.5q0 -8 -5 -13.5t-13 -6.5q-12 -6 -20 -45t-8 -99q0 -67 8.5 -141t24.5 -140q33 5 47.5 12.5t14.5 12.5q0 9 5.5 15.5t14.5 6.5
q8 0 14 -6t6 -14q0 -25 -21 -41.5t-70 -24.5q9 -30 19 -57t21.5 -47t24.5 -32t28 -12q5 0 19 16t32 64q13 34 20 62.5t7 29.5q3 15 20 15h4zM309 156q5 7 8.5 14l7.5 15h-23.5t-22.5 -1q-14 -35 -40 -52t-52 -17q-22 0 -35.5 12t-13.5 31q0 26 24.5 42t84.5 22q0 15 -4 32
t-13.5 30.5t-27 22.5t-44.5 9t-49 -10.5t-37.5 -29t-23.5 -43.5t-8 -53q0 -26 7 -51t21.5 -45.5t37 -33t52.5 -12.5q82 0 151 118zM418 224q29 -1 57.5 -1h55.5q-16 57 -24.5 119t-8.5 122q0 17 1 32t3 30q-14 -33 -27 -71t-27 -77t-29 -78t-31 -75q8 -1 15 -1h15zM597 716
q-11 0 -27.5 8t-26.5 39q-4 14 -4.5 25t-0.5 13q0 8 6 14t14 6t14 -6t6 -14q-1 -5 0 -9q0 -4 1 -8.5t3 -9.5q4 -14 8.5 -16t6.5 -2q6 0 10 6.5t7 15t4 17.5t1 15q0 8 6 14t14 6t14 -6t6 -14q0 -1 -1 -14t-5 -28q-5 -17 -12 -27t-15 -15.5t-15.5 -7.5t-13.5 -2zM232 180
q-23 -4 -33.5 -7.5t-15.5 -6.5q-5 -4 -5 -8q-2 -3 9 -3q10 0 22 6t23 19z" />
    <glyph glyph-name="abreve" unicode="&#x103;" 
d="M405 228q15 -4 15 -24q0 -1 -2 -9.5t-6 -22t-9.5 -30l-11.5 -34.5q-39 -107 -88 -107q-11 0 -25 4.5t-27.5 18t-25 38t-17.5 64.5q-14 -33 -25.5 -57t-23.5 -39t-24.5 -22t-28.5 -7q-54 0 -86 36t-32 99q0 45 13.5 83t36.5 66.5t53 45t62 17.5q14 0 30.5 -6t33.5 -29
q7 20 19 27t20 7q11 0 16 -12.5t7 -29t1.5 -33t-0.5 -25.5q0 -58 2.5 -97.5t6 -63.5t7.5 -34.5t7 -10.5q5 0 19 16t32 64q13 35 20 63t7 29q3 15 20 15h4zM151 94q5 10 13 31t16.5 44t14.5 44.5t8 31.5l-2.5 10t-8 22t-14.5 21.5t-21 9.5q-19 0 -35.5 -16.5t-28.5 -42.5
t-19 -58.5t-7 -63.5q0 -45 12.5 -65.5t25.5 -20.5q21 0 46 53zM153 370q-11 0 -27.5 8t-26.5 39q-4 14 -4.5 25t-0.5 13q0 8 6 14t14 6t14 -6t6 -14q-1 -5 0 -9q0 -4 1 -8.5t3 -9.5q4 -14 8.5 -16t6.5 -2q6 0 10 6.5t7 15t4 17.5t1 15q0 8 6 14t14 6t14 -6t6 -14
q0 -1 -1 -14t-5 -28q-5 -17 -12 -27t-15 -15.5t-15.5 -7.5t-13.5 -2z" />
    <glyph glyph-name="Aogonek" unicode="&#x104;" horiz-adv-x="790" 
d="M814 228q16 -5 16 -19q-1 -3 -5.5 -25.5t-23.5 -75.5q-33 -88 -71 -104q-4 -18 -7 -41.5t-3 -46.5q0 -18 2 -29t4 -17q1 -2 3.5 -6.5t6.5 -4.5q3 0 6 1.5t8 1.5q8 0 14 -5.5t6 -15.5q0 -6 -3.5 -11t-10.5 -7q-12 -3 -20 -3q-11 0 -19 3t-13 8q-24 21 -24 79q0 26 2.5 50
t6.5 43q-45 10 -85 55.5t-61 125.5q-13 -1 -26 -1h-27q-30 0 -60.5 1t-59.5 1q-50 -95 -99 -141t-113 -46q-36 0 -65 14.5t-50 39.5t-32 58t-11 70q0 36 11.5 68t32 56t49.5 38t65 14q35 0 59.5 -12t40 -31t22.5 -42.5t7 -46.5q14 1 28.5 1h29.5q20 45 38 93.5t35 97.5
q18 50 34 97t36 85t46 63.5t63 31.5q10 0 17 -4.5t7 -15.5q0 -8 -5 -13.5t-13 -6.5q-12 -6 -20 -45t-8 -99q0 -67 8.5 -141t24.5 -140q33 5 47.5 12.5t14.5 12.5q0 9 5.5 15.5t14.5 6.5q8 0 14 -6t6 -14q0 -25 -21 -41.5t-70 -24.5q9 -30 19 -57t21.5 -47t24.5 -32t28 -12
q5 0 19 16t32 64q13 34 20 62.5t7 29.5q3 15 20 15h4zM309 156q5 7 8.5 14l7.5 15h-23.5t-22.5 -1q-14 -35 -40 -52t-52 -17q-22 0 -35.5 12t-13.5 31q0 26 24.5 42t84.5 22q0 15 -4 32t-13.5 30.5t-27 22.5t-44.5 9t-49 -10.5t-37.5 -29t-23.5 -43.5t-8 -53q0 -26 7 -51
t21.5 -45.5t37 -33t52.5 -12.5q82 0 151 118zM418 224q29 -1 57.5 -1h55.5q-16 57 -24.5 119t-8.5 122q0 17 1 32t3 30q-14 -33 -27 -71t-27 -77t-29 -78t-31 -75q8 -1 15 -1h15zM232 180q-23 -4 -33.5 -7.5t-15.5 -6.5q-5 -4 -5 -8q-2 -3 9 -3q10 0 22 6t23 19z" />
    <glyph glyph-name="aogonek" unicode="&#x105;" 
d="M405 228q15 -4 15 -24q0 -1 -2 -9.5t-6 -22t-9.5 -30l-11.5 -34.5q-32 -86 -69 -103q-4 -19 -7 -42.5t-3 -46.5q0 -18 2 -29t4 -17q1 -2 3.5 -6.5t6.5 -4.5q3 0 6 1.5t8 1.5q8 0 14 -5.5t6 -15.5q0 -6 -3.5 -11t-10.5 -7q-12 -3 -20 -3q-11 0 -19 3t-13 8q-24 21 -24 79
q0 26 2.5 50t6.5 44q-10 3 -21 11t-21 22t-18 36t-13 53q-14 -33 -25.5 -57t-23.5 -39t-24.5 -22t-28.5 -7q-54 0 -86 36t-32 99q0 45 13.5 83t36.5 66.5t53 45t62 17.5q14 0 30.5 -6t33.5 -29q7 20 19 27t20 7q11 0 16 -12.5t7 -29t1.5 -33t-0.5 -25.5q0 -58 2.5 -97.5
t6 -63.5t7.5 -34.5t7 -10.5q5 0 19 16t32 64q13 35 20 63t7 29q3 15 20 15h4zM151 94q5 10 13 31t16.5 44t14.5 44.5t8 31.5l-2.5 10t-8 22t-14.5 21.5t-21 9.5q-19 0 -35.5 -16.5t-28.5 -42.5t-19 -58.5t-7 -63.5q0 -45 12.5 -65.5t25.5 -20.5q21 0 46 53z" />
    <glyph glyph-name="Cacute" unicode="&#x106;" horiz-adv-x="536" 
d="M561 226q15 -5 15 -19q0 -2 -0.5 -3t-0.5 -3q-31 -95 -100 -145q-44 -32 -88 -43t-87 -13q-61 -2 -115.5 21.5t-95.5 68t-65 107.5t-24 141q0 67 21.5 131t60 114t91.5 80.5t115 30.5q45 0 82.5 -14t64 -39.5t41 -62t14.5 -81.5q0 -42 -14 -78t-39.5 -62.5t-60 -42
t-75.5 -15.5q-26 0 -48.5 10.5t-38.5 29.5t-25 44t-9 54t9 53.5t24.5 42.5t38 28t49.5 10q28 0 47.5 -8.5t31 -22t16.5 -29t5 -29.5q0 -15 -5 -31t-17 -29.5t-31 -22t-47 -8.5q-8 0 -14 6t-6 14t6 14t14 6q31 0 45.5 16t14.5 35q0 18 -14.5 33.5t-45.5 15.5q-38 0 -59.5 -27
t-21.5 -67q0 -18 5 -35.5t14.5 -31.5t25 -22.5t36.5 -8.5q33 0 60.5 12t47 33.5t30.5 50.5t11 62q0 29 -9.5 57.5t-29.5 50.5t-50.5 35.5t-72.5 13.5q-44 0 -82.5 -27t-66.5 -71.5t-44 -101t-16 -116.5q0 -72 16.5 -127.5t46 -93.5t70 -57.5t88.5 -19.5q34 0 76 12t77 38
q59 44 83 123q5 14 19 14q2 0 3 -0.5t3 -0.5zM287 715q-8 0 -14 6t-6 14t6 14t14 6q2 0 6 2q3 2 7.5 4.5t11.5 8.5q4 3 8 6.5t6 5.5q3 3 5 6q6 7 15 7q8 0 14 -6t6 -14q0 -6 -5 -13q-1 -1 -7 -7.5t-16 -14.5q-29 -25 -51 -25z" />
    <glyph glyph-name="cacute" unicode="&#x107;" horiz-adv-x="300" 
d="M324 228q8 -2 12 -7.5t4 -12.5v-4q0 -1 -2.5 -9.5t-7.5 -22.5t-12.5 -32t-18.5 -36q-62 -103 -163 -103q-69 0 -107.5 35.5t-40.5 98.5q0 41 13 79.5t36.5 68t55.5 47.5t70 18q7 0 17 -3t18.5 -10t14.5 -19t6 -29q0 -8 -6 -13.5t-14 -5.5q-10 0 -14 6t-6 13.5t-5 14
t-10 6.5q-6 0 -21.5 -8t-32 -27.5t-29.5 -52t-13 -81.5q0 -41 17.5 -69.5t50.5 -28.5q77 0 128 83q10 16 17 31.5t11 28t6 20.5t2 9q5 15 20 15h4zM163 369q-8 0 -14 6t-6 14t6 14t14 6q2 0 6 2q3 2 7.5 4.5t11.5 8.5q4 3 8 6.5t6 5.5q3 3 5 6q6 7 15 7q8 0 14 -6t6 -14
q0 -6 -5 -13q-1 -1 -7 -7.5t-16 -14.5q-29 -25 -51 -25z" />
    <glyph glyph-name="Ccaron" unicode="&#x10c;" horiz-adv-x="536" 
d="M561 226q15 -5 15 -19q0 -2 -0.5 -3t-0.5 -3q-31 -95 -100 -145q-44 -32 -88 -43t-87 -13q-61 -2 -115.5 21.5t-95.5 68t-65 107.5t-24 141q0 67 21.5 131t60 114t91.5 80.5t115 30.5q45 0 82.5 -14t64 -39.5t41 -62t14.5 -81.5q0 -42 -14 -78t-39.5 -62.5t-60 -42
t-75.5 -15.5q-26 0 -48.5 10.5t-38.5 29.5t-25 44t-9 54t9 53.5t24.5 42.5t38 28t49.5 10q28 0 47.5 -8.5t31 -22t16.5 -29t5 -29.5q0 -15 -5 -31t-17 -29.5t-31 -22t-47 -8.5q-8 0 -14 6t-6 14t6 14t14 6q31 0 45.5 16t14.5 35q0 18 -14.5 33.5t-45.5 15.5q-38 0 -59.5 -27
t-21.5 -67q0 -18 5 -35.5t14.5 -31.5t25 -22.5t36.5 -8.5q33 0 60.5 12t47 33.5t30.5 50.5t11 62q0 29 -9.5 57.5t-29.5 50.5t-50.5 35.5t-72.5 13.5q-44 0 -82.5 -27t-66.5 -71.5t-44 -101t-16 -116.5q0 -72 16.5 -127.5t46 -93.5t70 -57.5t88.5 -19.5q34 0 76 12t77 38
q59 44 83 123q5 14 19 14q2 0 3 -0.5t3 -0.5zM287 716q-7 0 -14 5t-13 12t-11 15t-8 14q-5 8 -9 19.5t-4 19.5t5.5 13.5t14.5 5.5q6 0 11.5 -3.5t7.5 -10.5q8 -25 18 -42q5 9 12 23.5t13 29.5q2 6 7.5 9t11.5 3q7 0 13.5 -5.5t6.5 -13.5q0 -6 -3.5 -15t-8.5 -19t-11 -20.5
t-11 -19.5q-5 -8 -11.5 -14t-16.5 -6z" />
    <glyph glyph-name="ccaron" unicode="&#x10d;" horiz-adv-x="300" 
d="M324 228q8 -2 12 -7.5t4 -12.5v-4q0 -1 -2.5 -9.5t-7.5 -22.5t-12.5 -32t-18.5 -36q-62 -103 -163 -103q-69 0 -107.5 35.5t-40.5 98.5q0 41 13 79.5t36.5 68t55.5 47.5t70 18q7 0 17 -3t18.5 -10t14.5 -19t6 -29q0 -8 -6 -13.5t-14 -5.5q-10 0 -14 6t-6 13.5t-5 14
t-10 6.5q-6 0 -21.5 -8t-32 -27.5t-29.5 -52t-13 -81.5q0 -41 17.5 -69.5t50.5 -28.5q77 0 128 83q10 16 17 31.5t11 28t6 20.5t2 9q5 15 20 15h4zM163 370q-7 0 -14 5t-13 12t-11 15t-8 14q-5 8 -9 19.5t-4 19.5t5.5 13.5t14.5 5.5q6 0 11.5 -3.5t7.5 -10.5q8 -25 18 -42
q5 9 12 23.5t13 29.5q2 6 7.5 9t11.5 3q7 0 13.5 -5.5t6.5 -13.5q0 -6 -3.5 -15t-8.5 -19t-11 -20.5t-11 -19.5q-5 -8 -11.5 -14t-16.5 -6z" />
    <glyph glyph-name="Dcaron" unicode="&#x10e;" horiz-adv-x="1117" 
d="M1142 228q15 -5 15 -20q0 -11 -8 -29.5t-22 -39t-34.5 -41t-44.5 -36.5q-102 -66 -271 -66q-33 0 -62 11.5t-52.5 31.5t-40.5 47t-27 57q-7 -32 -12 -62t-10 -56v-5q0 -1 1 -2q0 -19 -17 -22q-21 0 -35.5 34t-24 87t-14 116t-4.5 122q0 61 5 114.5t16 94.5
q-22 -33 -43 -73t-43 -81t-47 -79t-56 -68t-69 -48t-85 -18q-37 0 -66 15t-49.5 39.5t-31.5 57.5t-11 69q0 38 11.5 70.5t32.5 56t50 36.5t64 13q28 0 52 -9t41.5 -24.5t27 -36.5t9.5 -45q0 -18 -6.5 -38.5t-21.5 -38t-40 -29t-62 -11.5q-8 0 -14 6t-6 14t6 14t14 6
q40 0 65 22t25 55q0 29 -21.5 52t-68.5 23q-54 0 -86 -38t-32 -98q0 -26 7 -51t21.5 -45t37 -32.5t52.5 -12.5q56 0 99.5 34t79 85t66 110t61.5 110t65.5 85t78.5 34q11 0 19.5 -4t8.5 -16q0 -8 -6 -14t-14 -6q-3 0 -8 -3t-11.5 -13.5t-13 -30.5t-12 -55.5t-9 -87.5
t-3.5 -126q0 -41 1.5 -81.5t3.5 -76.5q47 220 120.5 333.5t165.5 113.5q41 0 74 -21t56 -57.5t35.5 -87t12.5 -109.5q0 -93 -29.5 -173t-81.5 -130q51 12 86.5 32t59.5 43t37 46.5t18 42.5q3 15 19 15q2 0 3 -0.5t3 -0.5zM678 78q40 -42 99 -42q24 0 43.5 9.5t35 24t27 32.5
t19.5 35q22 46 34 105t12 122q0 47 -7 88t-20 71t-31.5 47.5t-40.5 17.5q-36 0 -69 -25t-62 -70t-53.5 -108t-44.5 -139q0 -19 2.5 -41t9.5 -44.5t18 -44t28 -38.5zM848 668q-7 0 -14 5t-13 12t-11 15t-8 14q-5 8 -9 19.5t-4 19.5t5.5 13.5t14.5 5.5q6 0 11.5 -3.5
t7.5 -10.5q8 -25 18 -42q5 9 12 23.5t13 29.5q2 6 7.5 9t11.5 3q7 0 13.5 -5.5t6.5 -13.5q0 -6 -3.5 -15t-8.5 -19t-11 -20.5t-11 -19.5q-5 -8 -11.5 -14t-16.5 -6z" />
    <glyph glyph-name="dcaron" unicode="&#x10f;" horiz-adv-x="424" 
d="M403 228q16 -3 16 -19v-4q0 -1 -1.5 -9.5t-4.5 -22t-7.5 -30.5t-10.5 -35q-19 -56 -39 -82t-46 -26q-12 0 -26 5t-28 19t-26 40.5t-20 69.5q-26 -69 -48.5 -101t-56.5 -32q-54 0 -86 36t-32 99q0 45 13.5 83t36.5 66.5t53 45t62 17.5q11 0 25.5 -4t28.5 -18
q7 57 19.5 92.5t26.5 56t29 28t28 7.5q9 1 15.5 -4.5t6.5 -14.5q0 -8 -5 -13.5t-13 -6.5q-2 -2 -7.5 -17.5t-11 -44.5t-10 -71.5t-4.5 -99.5q0 -93 12.5 -143t18.5 -55q6 1 18.5 17.5t27.5 62.5q11 35 17 63t6 29q3 16 19 16h4zM151 94q6 13 14 33.5t15.5 42.5t13 43.5
t7.5 36.5q-2 6 -5 15.5t-8.5 19t-13.5 16.5t-18 7q-19 0 -35.5 -16.5t-28.5 -43t-19 -58.5t-7 -63q0 -45 12.5 -65.5t25.5 -20.5q22 0 47 53zM354 411q-6 0 -10 3q-8 4 -10 11.5t2 15.5q10 17 21.5 41.5t19.5 48.5q9 30 8 42t-3 14q0 1 -2 2.5t-10 1.5t-14 6t-6 14t6 14
t14 6q20 0 31 -7.5t16 -15.5q17 -31 -2 -89q-9 -26 -21 -52t-23 -45q-5 -11 -17 -11z" />
    <glyph glyph-name="Dcroat" unicode="&#x110;" horiz-adv-x="1117" 
d="M1142 228q15 -5 15 -20q0 -11 -8 -29.5t-22 -39t-34.5 -41t-44.5 -36.5q-102 -66 -271 -66q-33 0 -62 11.5t-52.5 31.5t-40.5 47t-27 57q-7 -32 -12 -62t-10 -56v-5q0 -1 1 -2q0 -19 -17 -22q-14 0 -25.5 17t-20.5 45.5t-15 66t-10 79.5q-28 1 -47.5 1t-19.5 1
q-8 1 -13 8t-3 15t8.5 13t14.5 3q4 0 19 -0.5t37 -1.5q-3 57 -3 112q0 61 5 114.5t16 94.5q-22 -33 -43 -73t-43 -81t-47 -79t-56 -68t-69 -48t-85 -18q-37 0 -66 15t-49.5 39.5t-31.5 57.5t-11 69q0 38 11.5 70.5t32.5 56t50 36.5t64 13q28 0 52 -9t41.5 -24.5t27 -36.5
t9.5 -45q0 -18 -6.5 -38.5t-21.5 -38t-40 -29t-62 -11.5q-8 0 -14 6t-6 14t6 14t14 6q40 0 65 22t25 55q0 29 -21.5 52t-68.5 23q-54 0 -86 -38t-32 -98q0 -26 7 -51t21.5 -45t37 -32.5t52.5 -12.5q56 0 99.5 34t79 85t66 110t61.5 110t65.5 85t78.5 34q11 0 19.5 -4
t8.5 -16q0 -8 -6 -14t-14 -6q-3 0 -8 -3t-11.5 -13.5t-13 -30.5t-12 -55.5t-9 -87.5t-3.5 -126q0 -25 0.5 -49.5t1.5 -47.5h17q48 190 117.5 288t154.5 98q41 0 74 -21t56 -57.5t35.5 -87t12.5 -109.5q0 -93 -29.5 -173t-81.5 -130q51 12 86.5 32t59.5 43t37 46.5t18 42.5
q3 15 19 15q2 0 3 -0.5t3 -0.5zM696 216q-17 -14 -55 -13h-18q5 -32 17 -65.5t38 -59.5q40 -42 99 -42q24 0 43.5 9.5t35 24t27 32.5t19.5 35q22 46 34 105t12 122q0 47 -7 88t-20 71t-31.5 47.5t-40.5 17.5q-36 0 -69 -25t-62 -70t-53.5 -108t-44.5 -139v-4q21 0 35 1.5
t16 3.5q6 5 14.5 4t13.5 -7q5 -7 4 -15t-7 -13zM567 203h-6l2 -22z" />
    <glyph glyph-name="dcroat" unicode="&#x111;" horiz-adv-x="380" 
d="M347 399q-17 -14 -55 -13h-2q-5 -28 -7.5 -64.5t-2.5 -83.5q0 -93 12.5 -143t18.5 -55q6 1 18.5 17.5t27.5 62.5q11 35 17 63t6 29q3 16 19 16h4q16 -3 16 -19v-4q0 -1 -1.5 -9.5t-4.5 -22t-7.5 -30.5t-10.5 -35q-19 -56 -39 -82t-46 -26q-12 0 -26 5t-28 19t-26 40.5
t-20 69.5q-26 -69 -48.5 -101t-56.5 -32q-54 0 -86 36t-32 99q0 45 13.5 83t36.5 66.5t53 45t62 17.5q11 0 25.5 -4t28.5 -18q2 17 5 32t6 29q-23 0 -40 0.5t-17 1.5q-8 1 -13 8t-3 15t8.5 13t14.5 3q5 0 22 -1t39 -2q17 51 39.5 67.5t41.5 17.5q9 1 15.5 -4.5t6.5 -14.5
q0 -8 -5 -13.5t-13 -6.5q-2 -2 -6 -13.5t-9 -32.5q9 1 15.5 2t8.5 3q6 5 14.5 4t13.5 -7q5 -7 4 -15t-7 -13zM151 94q6 13 14 33.5t15.5 42.5t13 43.5t7.5 36.5q-2 6 -5 15.5t-8.5 19t-13.5 16.5t-18 7q-19 0 -35.5 -16.5t-28.5 -43t-19 -58.5t-7 -63q0 -45 12.5 -65.5
t25.5 -20.5q22 0 47 53z" />
    <glyph glyph-name="Eogonek" unicode="&#x118;" horiz-adv-x="574" 
d="M599 226q15 -5 15 -19q0 -2 -0.5 -3t-0.5 -3q-31 -95 -100 -145q-39 -28 -77 -40q-4 -19 -7 -42t-3 -46q0 -18 2 -29t4 -17q1 -2 3.5 -6.5t6.5 -4.5q3 0 6 1.5t8 1.5q8 0 14 -5.5t6 -15.5q0 -6 -3.5 -11t-10.5 -7q-12 -3 -20 -3q-11 0 -19 3t-13 8q-24 21 -24 79
q0 23 2 44t5 39q-14 -2 -27.5 -3.5t-27.5 -1.5q-82 -2 -150.5 39.5t-108.5 118.5q-6 -1 -11.5 -1h-10.5q-15 0 -26.5 2.5t-19.5 9.5q-12 9 -12 26q0 8 6 14t14 6q16 0 20 -16q6 -2 23 -2q-24 63 -24 141q0 67 21.5 131t60 114t91.5 80.5t115 30.5q45 0 82.5 -14t64 -39.5
t41 -62t14.5 -81.5q0 -42 -14 -78t-39.5 -62.5t-60 -42t-75.5 -15.5q-26 0 -48.5 10.5t-38.5 29.5t-25 44t-9 54t9 53.5t24.5 42.5t38 28t49.5 10q28 0 47.5 -8.5t31 -22t16.5 -29t5 -29.5q0 -15 -5 -31t-17 -29.5t-31 -22t-47 -8.5q-8 0 -14 6t-6 14t6 14t14 6
q31 0 45.5 16t14.5 35q0 18 -14.5 33.5t-45.5 15.5q-38 0 -59.5 -27t-21.5 -67q0 -18 5 -35.5t14.5 -31.5t25 -22.5t36.5 -8.5q33 0 60.5 12t47 33.5t30.5 50.5t11 62q0 29 -9.5 57.5t-29.5 50.5t-50.5 35.5t-72.5 13.5q-44 0 -82.5 -27t-66.5 -71.5t-44 -101t-16 -116.5
q0 -75 18 -132l34 6q60 11 93.5 14.5t48.5 -9.5q10 -8 10 -22q0 -8 -6 -14t-14 -6q-13 0 -18 11q-4 1 -11.5 1t-22.5 -2q-16 -2 -34.5 -5t-38.5 -7q-8 -2 -14 -3t-13 -2q29 -63 78 -95.5t111 -32.5q34 0 76 12t77 38q59 44 83 123q5 14 19 14q2 0 3 -0.5t3 -0.5z" />
    <glyph glyph-name="eogonek" unicode="&#x119;" horiz-adv-x="299" 
d="M323 228q16 -4 16 -19q0 -2 -0.5 -2.5t-0.5 -2.5q0 -1 -2 -9.5t-6.5 -22.5t-12 -32t-18.5 -36q-58 -95 -146 -102q-3 -19 -6 -41.5t-3 -44.5q0 -18 2 -29t4 -17q1 -2 3.5 -6.5t6.5 -4.5q3 0 6 1.5t8 1.5q8 0 14 -5.5t6 -15.5q0 -6 -3.5 -11t-10.5 -7q-12 -3 -20 -3
q-11 0 -19 3t-13 8q-24 21 -24 79q0 26 2.5 49t6.5 43q-60 7 -91 45.5t-31 98.5q0 41 13.5 78t36.5 64.5t54.5 43.5t67.5 16q20 0 38.5 -12.5t18.5 -45.5q0 -39 -39.5 -78.5t-110.5 -69.5q0 -43 16.5 -72t49.5 -29q31 0 55.5 12.5t42.5 31.5t30.5 41t20 41t11 32l3.5 13
q5 16 20 16h4zM180 288q0 5 -2.5 12.5t-12.5 7.5q-7 0 -19 -6t-25.5 -20.5t-26 -37t-20.5 -55.5q16 8 35 19t34.5 24t26 27t10.5 29z" />
    <glyph glyph-name="Ecaron" unicode="&#x11a;" horiz-adv-x="574" 
d="M599 226q15 -5 15 -19q0 -2 -0.5 -3t-0.5 -3q-31 -95 -100 -145q-44 -32 -88 -43t-87 -13q-82 -2 -150.5 39.5t-108.5 118.5q-6 -1 -11.5 -1h-10.5q-15 0 -26.5 2.5t-19.5 9.5q-12 9 -12 26q0 8 6 14t14 6q16 0 20 -16q6 -2 23 -2q-24 63 -24 141q0 67 21.5 131t60 114
t91.5 80.5t115 30.5q45 0 82.5 -14t64 -39.5t41 -62t14.5 -81.5q0 -42 -14 -78t-39.5 -62.5t-60 -42t-75.5 -15.5q-26 0 -48.5 10.5t-38.5 29.5t-25 44t-9 54t9 53.5t24.5 42.5t38 28t49.5 10q28 0 47.5 -8.5t31 -22t16.5 -29t5 -29.5q0 -15 -5 -31t-17 -29.5t-31 -22
t-47 -8.5q-8 0 -14 6t-6 14t6 14t14 6q31 0 45.5 16t14.5 35q0 18 -14.5 33.5t-45.5 15.5q-38 0 -59.5 -27t-21.5 -67q0 -18 5 -35.5t14.5 -31.5t25 -22.5t36.5 -8.5q33 0 60.5 12t47 33.5t30.5 50.5t11 62q0 29 -9.5 57.5t-29.5 50.5t-50.5 35.5t-72.5 13.5
q-44 0 -82.5 -27t-66.5 -71.5t-44 -101t-16 -116.5q0 -75 18 -132l34 6q60 11 93.5 14.5t48.5 -9.5q10 -8 10 -22q0 -8 -6 -14t-14 -6q-13 0 -18 11q-4 1 -11.5 1t-22.5 -2q-16 -2 -34.5 -5t-38.5 -7q-8 -2 -14 -3t-13 -2q29 -63 78 -95.5t111 -32.5q34 0 76 12t77 38
q59 44 83 123q5 14 19 14q2 0 3 -0.5t3 -0.5zM326 716q-7 0 -14 5t-13 12t-11 15t-8 14q-5 8 -9 19.5t-4 19.5t5.5 13.5t14.5 5.5q6 0 11.5 -3.5t7.5 -10.5q8 -25 18 -42q5 9 12 23.5t13 29.5q2 6 7.5 9t11.5 3q7 0 13.5 -5.5t6.5 -13.5q0 -6 -3.5 -15t-8.5 -19t-11 -20.5
t-11 -19.5q-5 -8 -11.5 -14t-16.5 -6z" />
    <glyph glyph-name="ecaron" unicode="&#x11b;" horiz-adv-x="299" 
d="M323 228q16 -4 16 -19q0 -2 -0.5 -2.5t-0.5 -2.5q0 -1 -2 -9.5t-6.5 -22.5t-12 -32t-18.5 -36q-62 -103 -163 -103q-70 0 -107.5 39.5t-37.5 105.5q0 41 13.5 78t36.5 64.5t54.5 43.5t67.5 16q20 0 38.5 -12.5t18.5 -45.5q0 -39 -39.5 -78.5t-110.5 -69.5q0 -43 16.5 -72
t49.5 -29q31 0 55.5 12.5t42.5 31.5t30.5 41t20 41t11 32l3.5 13q5 16 20 16h4zM163 370q-7 0 -14 5t-13 12t-11 15t-8 14q-5 8 -9 19.5t-4 19.5t5.5 13.5t14.5 5.5q6 0 11.5 -3.5t7.5 -10.5q8 -25 18 -42q5 9 12 23.5t13 29.5q2 6 7.5 9t11.5 3q7 0 13.5 -5.5t6.5 -13.5
q0 -6 -3.5 -15t-8.5 -19t-11 -20.5t-11 -19.5q-5 -8 -11.5 -14t-16.5 -6zM180 288q0 5 -2.5 12.5t-12.5 7.5q-7 0 -19 -6t-25.5 -20.5t-26 -37t-20.5 -55.5q16 8 35 19t34.5 24t26 27t10.5 29z" />
    <glyph glyph-name="dotlessi" unicode="&#x131;" horiz-adv-x="171" 
d="M102 1q-14 0 -32 9t-33.5 32t-26 62.5t-10.5 100.5q0 64 14.5 103t40.5 39q13 0 18.5 -18.5t6.5 -42.5t0 -48t-1 -36q0 -57 3 -89.5t7 -48t8 -19.5t5 -4q5 0 19 16t32 64q13 34 20 62.5t7 29.5q3 15 20 15q8 0 13.5 -5.5t6.5 -13.5q0 -2 -5 -24.5t-25 -76.5
q-38 -107 -88 -107z" />
    <glyph glyph-name="Lacute" unicode="&#x139;" horiz-adv-x="945" 
d="M970 228q15 -5 15 -20v-4q0 -1 -2 -9.5t-6 -22t-9 -30t-12 -34.5q-21 -56 -42 -81.5t-46 -25.5q-45 0 -93 11t-94.5 25t-90 28.5t-80.5 21.5q-14 -42 -40.5 -65t-56.5 -23q-21 0 -36 12t-15 31q0 7 2.5 18t12 23.5t29 26.5t53.5 26q1 14 1 29v32q0 35 -0.5 74t-0.5 78
q0 47 2 91.5t10 85.5q-28 -50 -56 -107.5t-64 -106.5t-82.5 -81.5t-110.5 -32.5q-38 0 -67.5 15t-49.5 40t-30.5 58t-10.5 68q0 38 11.5 70t32.5 55.5t50 37t64 13.5q28 0 51.5 -8.5t40.5 -23.5t27 -36.5t10 -46.5q0 -18 -6.5 -39t-21.5 -38t-39.5 -28.5t-61.5 -11.5
q-8 0 -14 6t-6 14t6 14t14 6q39 0 64 22.5t25 54.5q0 29 -21.5 52t-67.5 23q-55 0 -86.5 -38.5t-31.5 -97.5q0 -26 7 -51t21.5 -45t37 -32.5t52.5 -12.5q45 0 80.5 21t64.5 55.5t53 78.5t47 89t45.5 84t46.5 67t51 44t59 16q11 0 20.5 -3.5t9.5 -16.5q0 -8 -5.5 -14
t-13.5 -6q-27 -1 -42 -27t-23 -68t-10.5 -95t-4 -109t-3.5 -110t-9 -98h9q52 0 103 -16.5t95.5 -36t80 -36t56.5 -16.5q5 0 19.5 16t31.5 64q12 34 19.5 62.5t7.5 29.5q3 15 20 15h4zM604 715q-8 0 -14 6t-6 14t6 14t14 6q2 0 6 2q3 2 7.5 4.5t11.5 8.5q4 3 8 6.5t6 5.5
q3 3 5 6q6 7 15 7q8 0 14 -6t6 -14q0 -6 -5 -13q-1 -1 -7 -7.5t-16 -14.5q-29 -25 -51 -25zM455 90q-32 -7 -42.5 -23t-10.5 -21q0 -7 11 -7q4 0 10 2t12.5 7t12 15t7.5 27z" />
    <glyph glyph-name="lacute" unicode="&#x13a;" horiz-adv-x="178" 
d="M108 0q-16 0 -35 11t-35 38.5t-27 73.5t-11 117q0 76 11.5 128t28 83.5t36 45t34.5 13.5q8 0 14 -5.5t6 -13.5q0 -11 -6.5 -15t-10.5 -5q-5 -1 -13 -26t-14 -83q-3 -29 -5 -60.5t-2 -63.5q0 -37 3 -70.5t7.5 -60.5t10 -45t10.5 -22q6 1 18.5 17.5t27.5 62.5
q11 34 17 62.5t6 29.5q3 16 19 16q9 0 14.5 -5.5t5.5 -13.5v-4q0 -5 -3.5 -22t-10 -40t-16 -48t-21.5 -46t-27 -35t-32 -14zM108 528q-8 0 -14 6t-6 14t6 14t14 6q2 0 6 2q3 2 7.5 4.5t11.5 8.5q4 3 8 6.5t6 5.5q3 3 5 6q6 7 15 7q8 0 14 -6t6 -14q0 -6 -5 -13
q-1 -1 -7 -7.5t-16 -14.5q-29 -25 -51 -25z" />
    <glyph glyph-name="Lcaron" unicode="&#x13d;" horiz-adv-x="945" 
d="M970 228q15 -5 15 -20v-4q0 -1 -2 -9.5t-6 -22t-9 -30t-12 -34.5q-21 -56 -42 -81.5t-46 -25.5q-45 0 -93 11t-94.5 25t-90 28.5t-80.5 21.5q-14 -42 -40.5 -65t-56.5 -23q-21 0 -36 12t-15 31q0 7 2.5 18t12 23.5t29 26.5t53.5 26q1 14 1 29v32q0 35 -0.5 74t-0.5 78
q0 47 2 91.5t10 85.5q-28 -50 -56 -107.5t-64 -106.5t-82.5 -81.5t-110.5 -32.5q-38 0 -67.5 15t-49.5 40t-30.5 58t-10.5 68q0 38 11.5 70t32.5 55.5t50 37t64 13.5q28 0 51.5 -8.5t40.5 -23.5t27 -36.5t10 -46.5q0 -18 -6.5 -39t-21.5 -38t-39.5 -28.5t-61.5 -11.5
q-8 0 -14 6t-6 14t6 14t14 6q39 0 64 22.5t25 54.5q0 29 -21.5 52t-67.5 23q-55 0 -86.5 -38.5t-31.5 -97.5q0 -26 7 -51t21.5 -45t37 -32.5t52.5 -12.5q45 0 80.5 21t64.5 55.5t53 78.5t47 89t45.5 84t46.5 67t51 44t59 16q11 0 20.5 -3.5t9.5 -16.5q0 -8 -5.5 -14
t-13.5 -6q-27 -1 -42 -27t-23 -68t-10.5 -95t-4 -109t-3.5 -110t-9 -98h9q52 0 103 -16.5t95.5 -36t80 -36t56.5 -16.5q5 0 19.5 16t31.5 64q12 34 19.5 62.5t7.5 29.5q3 15 20 15h4zM677 411q-6 0 -10 3q-8 4 -10 11.5t2 15.5q10 17 21.5 41.5t19.5 48.5q9 30 8 42t-3 14
q0 1 -2 2.5t-10 1.5t-14 6t-6 14t6 14t14 6q20 0 31 -7.5t16 -15.5q17 -31 -2 -89q-9 -26 -21 -52t-23 -45q-5 -11 -17 -11zM455 90q-32 -7 -42.5 -23t-10.5 -21q0 -7 11 -7q4 0 10 2t12.5 7t12 15t7.5 27z" />
    <glyph glyph-name="lcaron" unicode="&#x13e;" horiz-adv-x="229" 
d="M108 0q-16 0 -35 11t-35 38.5t-27 73.5t-11 117q0 76 11.5 128t28 83.5t36 45t34.5 13.5q8 0 14 -5.5t6 -13.5q0 -11 -6.5 -15t-10.5 -5q-5 -1 -13 -26t-14 -83q-3 -29 -5 -60.5t-2 -63.5q0 -37 3 -70.5t7.5 -60.5t10 -45t10.5 -22q6 1 18.5 17.5t27.5 62.5
q11 34 17 62.5t6 29.5q3 16 19 16q9 0 14.5 -5.5t5.5 -13.5v-4q0 -5 -3.5 -22t-10 -40t-16 -48t-21.5 -46t-27 -35t-32 -14zM157 411q-6 0 -10 3q-8 4 -10 11.5t2 15.5q10 17 21.5 41.5t19.5 48.5q9 30 8 42t-3 14q0 1 -2 2.5t-10 1.5t-14 6t-6 14t6 14t14 6q20 0 31 -7.5
t16 -15.5q17 -31 -2 -89q-9 -26 -21 -52t-23 -45q-5 -11 -17 -11z" />
    <glyph glyph-name="Lslash" unicode="&#x141;" horiz-adv-x="945" 
d="M970 228q15 -5 15 -20v-4q0 -1 -2 -9.5t-6 -22t-9 -30t-12 -34.5q-21 -56 -42 -81.5t-46 -25.5q-45 0 -93 11t-94.5 25t-90 28.5t-80.5 21.5q-14 -42 -40.5 -65t-56.5 -23q-21 0 -36 12t-15 31q0 7 2.5 18t12 23.5t29 26.5t53.5 26q1 14 1 29v32v39q-9 -7 -16 -10
q-4 -2 -6 -4q-8 -5 -15.5 -2t-10.5 11q-4 8 -1.5 15.5t10.5 11.5q3 2 13.5 8.5t24.5 15.5v67q0 47 2 91.5t10 85.5q-28 -50 -56 -107.5t-64 -106.5t-82.5 -81.5t-110.5 -32.5q-38 0 -67.5 15t-49.5 40t-30.5 58t-10.5 68q0 38 11.5 70t32.5 55.5t50 37t64 13.5
q28 0 51.5 -8.5t40.5 -23.5t27 -36.5t10 -46.5q0 -18 -6.5 -39t-21.5 -38t-39.5 -28.5t-61.5 -11.5q-8 0 -14 6t-6 14t6 14t14 6q39 0 64 22.5t25 54.5q0 29 -21.5 52t-67.5 23q-55 0 -86.5 -38.5t-31.5 -97.5q0 -26 7 -51t21.5 -45t37 -32.5t52.5 -12.5q45 0 80.5 21
t64.5 55.5t53 78.5t47 89t45.5 84t46.5 67t51 44t59 16q11 0 20.5 -3.5t9.5 -16.5q0 -8 -5.5 -14t-13.5 -6q-28 -2 -43.5 -29.5t-23 -72t-10 -100.5t-3.5 -114q10 8 11 12q2 8 9 11.5t15 1.5t12 -9t2 -15q-6 -22 -37 -43q-2 -2 -5.5 -4t-8.5 -5q-1 -38 -3 -74t-7 -66h9
q52 0 103 -16.5t95.5 -36t80 -36t56.5 -16.5q5 0 19.5 16t31.5 64q12 34 19.5 62.5t7.5 29.5q3 15 20 15h4zM455 90q-32 -7 -42.5 -23t-10.5 -21q0 -7 11 -7q4 0 10 2t12.5 7t12 15t7.5 27z" />
    <glyph glyph-name="lslash" unicode="&#x142;" horiz-adv-x="178" 
d="M108 0q-16 0 -34.5 10.5t-34.5 37t-27 70.5t-12 111q-6 -4 -8 -5l-4 -2q-8 -5 -15.5 -2t-10.5 11q-4 8 -1.5 15.5t10.5 11.5q3 2 11 6.5t19 12.5q3 65 15 109.5t28 72t33.5 39.5t32.5 12q8 0 14 -5.5t6 -13.5q0 -11 -6.5 -15t-10.5 -5q-5 -1 -13 -26t-14 -83l-3 -28
q13 11 14 15q2 8 9 11.5t15 1.5t12 -9t2 -15q-6 -22 -37 -43q-2 -2 -7 -4.5t-11 -7.5q-1 -11 -1 -22.5v-22.5q0 -37 3 -70.5t7.5 -60.5t10 -45t10.5 -22q6 1 18.5 17.5t27.5 62.5q11 34 17 62.5t6 29.5q3 16 19 16q9 0 14.5 -5.5t5.5 -13.5v-4q0 -5 -3.5 -22t-10 -40
t-16 -48t-21.5 -46t-27 -35t-32 -14z" />
    <glyph glyph-name="Nacute" unicode="&#x143;" horiz-adv-x="1036" 
d="M1060 228q15 -5 15 -20v-4q0 -1 -2 -9.5t-6 -22t-9 -30t-12 -34.5q-21 -56 -42 -81.5t-46 -25.5q-34 0 -53.5 24t-29.5 67.5t-12.5 103.5t-2.5 131q0 67 -0.5 123t-5 96.5t-15 63t-31.5 22.5q-32 0 -58.5 -33t-53 -106.5t-55.5 -190t-66 -283.5q0 -19 -17 -21
q-21 0 -36 35t-24 88t-13.5 116t-4.5 119q0 61 5 114.5t16 95.5q-21 -34 -42 -74t-43.5 -81t-48 -79t-56.5 -67.5t-68.5 -47.5t-84.5 -18q-37 0 -66 15t-49.5 39.5t-31.5 57.5t-11 69q0 38 11.5 70t32.5 55.5t50 37t64 13.5q28 0 52 -8.5t41.5 -24t27 -36.5t9.5 -46
q0 -18 -6.5 -38.5t-21.5 -38t-40 -29t-62 -11.5q-8 0 -14 6t-6 14t6 14t14 6q39 0 64.5 21.5t25.5 55.5q0 28 -21.5 51.5t-68.5 23.5q-54 0 -86 -38.5t-32 -97.5q0 -26 7 -51t21.5 -45t37 -32.5t52.5 -12.5q46 0 82 21.5t65.5 56t54.5 78.5t49 89q23 44 45 80.5t45.5 64
t50 45t58.5 23.5q11 0 19.5 -4t8.5 -16q0 -8 -6 -14t-14 -6q-2 0 -7.5 -2.5t-11.5 -13t-12.5 -30t-12 -53.5t-9 -84.5t-3.5 -121.5q0 -51 1.5 -101.5t3.5 -92.5q33 142 60 240t55 159t58.5 88t69.5 27q45 0 71.5 -31t39.5 -78.5t16.5 -105t3.5 -109.5q0 -59 -3.5 -118.5
t-3.5 -107.5q0 -29 2 -45.5t6 -24.5t8.5 -9.5t9.5 -1.5t19 16t32 64q6 16 11 32.5t8.5 29.5t5.5 21.5l2 8.5q3 15 20 15h4zM809 695q-8 0 -14 6t-6 14t6 14t14 6q2 0 6 2q3 2 7.5 4.5t11.5 8.5q4 3 8 6.5t6 5.5q3 3 5 6q6 7 15 7q8 0 14 -6t6 -14q0 -6 -5 -13q-1 -1 -7 -7.5
t-16 -14.5q-29 -25 -51 -25z" />
    <glyph glyph-name="nacute" unicode="&#x144;" horiz-adv-x="387" 
d="M413 227q14 -5 14 -19q0 -2 -1.5 -7.5t-5.5 -17.5t-12 -30.5t-21 -46.5q-26 -54 -50 -79.5t-48 -25.5q-26 0 -42 20t-24.5 49.5t-11.5 63.5t-3 62q0 10 0.5 29t1 37.5t-0.5 32t-4 13.5q-7 0 -19.5 -7.5t-29 -36.5t-36 -86.5t-41.5 -156.5q0 -8 -5.5 -14t-13.5 -6
q-16 -1 -27 16t-18.5 45.5t-11 65.5t-3.5 76q0 64 13.5 103.5t45.5 39.5q12 0 16.5 -15t5 -39t-0.5 -54t-1 -60q28 88 58.5 128.5t66.5 40.5q26 0 42 -10.5t25 -28.5t12.5 -41t3.5 -48q0 -16 -1.5 -41t-2.5 -51t0 -50t7 -37q1 0 6 2.5t12.5 10.5t18 24.5t24.5 44.5
q16 34 26.5 62.5t10.5 29.5q2 6 7 9.5t11 3.5q5 0 7 -1zM204 369q-8 0 -14 6t-6 14t6 14t14 6q2 0 6 2q3 2 7.5 4.5t11.5 8.5q4 3 8 6.5t6 5.5q3 3 5 6q6 7 15 7q8 0 14 -6t6 -14q0 -6 -5 -13q-1 -1 -7 -7.5t-16 -14.5q-29 -25 -51 -25z" />
    <glyph glyph-name="Ncaron" unicode="&#x147;" horiz-adv-x="1036" 
d="M1060 228q15 -5 15 -20v-4q0 -1 -2 -9.5t-6 -22t-9 -30t-12 -34.5q-21 -56 -42 -81.5t-46 -25.5q-34 0 -53.5 24t-29.5 67.5t-12.5 103.5t-2.5 131q0 67 -0.5 123t-5 96.5t-15 63t-31.5 22.5q-32 0 -58.5 -33t-53 -106.5t-55.5 -190t-66 -283.5q0 -19 -17 -21
q-21 0 -36 35t-24 88t-13.5 116t-4.5 119q0 61 5 114.5t16 95.5q-21 -34 -42 -74t-43.5 -81t-48 -79t-56.5 -67.5t-68.5 -47.5t-84.5 -18q-37 0 -66 15t-49.5 39.5t-31.5 57.5t-11 69q0 38 11.5 70t32.5 55.5t50 37t64 13.5q28 0 52 -8.5t41.5 -24t27 -36.5t9.5 -46
q0 -18 -6.5 -38.5t-21.5 -38t-40 -29t-62 -11.5q-8 0 -14 6t-6 14t6 14t14 6q39 0 64.5 21.5t25.5 55.5q0 28 -21.5 51.5t-68.5 23.5q-54 0 -86 -38.5t-32 -97.5q0 -26 7 -51t21.5 -45t37 -32.5t52.5 -12.5q46 0 82 21.5t65.5 56t54.5 78.5t49 89q23 44 45 80.5t45.5 64
t50 45t58.5 23.5q11 0 19.5 -4t8.5 -16q0 -8 -6 -14t-14 -6q-2 0 -7.5 -2.5t-11.5 -13t-12.5 -30t-12 -53.5t-9 -84.5t-3.5 -121.5q0 -51 1.5 -101.5t3.5 -92.5q33 142 60 240t55 159t58.5 88t69.5 27q45 0 71.5 -31t39.5 -78.5t16.5 -105t3.5 -109.5q0 -59 -3.5 -118.5
t-3.5 -107.5q0 -29 2 -45.5t6 -24.5t8.5 -9.5t9.5 -1.5t19 16t32 64q6 16 11 32.5t8.5 29.5t5.5 21.5l2 8.5q3 15 20 15h4zM809 696q-7 0 -14 5t-13 12t-11 15t-8 14q-5 8 -9 19.5t-4 19.5t5.5 13.5t14.5 5.5q6 0 11.5 -3.5t7.5 -10.5q8 -25 18 -42q5 9 12 23.5t13 29.5
q2 6 7.5 9t11.5 3q7 0 13.5 -5.5t6.5 -13.5q0 -6 -3.5 -15t-8.5 -19t-11 -20.5t-11 -19.5q-5 -8 -11.5 -14t-16.5 -6z" />
    <glyph glyph-name="ncaron" unicode="&#x148;" horiz-adv-x="387" 
d="M413 227q14 -5 14 -19q0 -2 -1.5 -7.5t-5.5 -17.5t-12 -30.5t-21 -46.5q-26 -54 -50 -79.5t-48 -25.5q-26 0 -42 20t-24.5 49.5t-11.5 63.5t-3 62q0 10 0.5 29t1 37.5t-0.5 32t-4 13.5q-7 0 -19.5 -7.5t-29 -36.5t-36 -86.5t-41.5 -156.5q0 -8 -5.5 -14t-13.5 -6
q-16 -1 -27 16t-18.5 45.5t-11 65.5t-3.5 76q0 64 13.5 103.5t45.5 39.5q12 0 16.5 -15t5 -39t-0.5 -54t-1 -60q28 88 58.5 128.5t66.5 40.5q26 0 42 -10.5t25 -28.5t12.5 -41t3.5 -48q0 -16 -1.5 -41t-2.5 -51t0 -50t7 -37q1 0 6 2.5t12.5 10.5t18 24.5t24.5 44.5
q16 34 26.5 62.5t10.5 29.5q2 6 7 9.5t11 3.5q5 0 7 -1zM204 370q-7 0 -14 5t-13 12t-11 15t-8 14q-5 8 -9 19.5t-4 19.5t5.5 13.5t14.5 5.5q6 0 11.5 -3.5t7.5 -10.5q8 -25 18 -42q5 9 12 23.5t13 29.5q2 6 7.5 9t11.5 3q7 0 13.5 -5.5t6.5 -13.5q0 -6 -3.5 -15t-8.5 -19
t-11 -20.5t-11 -19.5q-5 -8 -11.5 -14t-16.5 -6z" />
    <glyph glyph-name="Ohungarumlaut" unicode="&#x150;" horiz-adv-x="560" 
d="M578 229q8 0 14.5 -6.5t6.5 -14.5q0 -16 -10 -30.5t-26.5 -26t-38 -18.5t-44.5 -7t-40 4q-23 -62 -69 -96.5t-100 -34.5q-65 0 -115.5 26.5t-85 72t-52.5 107.5t-18 133q0 70 23.5 134.5t63 114t91.5 79t110 29.5q45 -1 82.5 -16t64 -41.5t41 -62.5t14.5 -78t-14 -78
t-39.5 -62.5t-60 -41.5t-75.5 -15q-27 0 -49 10.5t-38 29t-25 43.5t-9 54t9 53.5t24.5 42.5t38 28t49.5 10q28 0 47.5 -8.5t31 -22t16.5 -29t5 -29.5q0 -15 -5 -31t-17 -29.5t-31 -22t-47 -8.5q-8 0 -14 6t-6 14t6 14t14 6q31 0 45.5 16t14.5 35q0 18 -14.5 33.5t-45.5 15.5
q-38 0 -59.5 -27t-21.5 -67q0 -18 5 -35t14.5 -31t25 -22.5t36.5 -8.5q33 0 60 12t47 33t31 50t11 62q0 30 -9.5 58t-29.5 50.5t-50.5 36t-72.5 13.5t-80.5 -26.5t-67 -71t-45.5 -101.5t-17 -118q0 -60 14 -114t39.5 -95t61 -65.5t78.5 -24.5q24 0 44.5 8.5t37 23t29 33.5
t20.5 39q-35 17 -54 47t-19 56q0 28 18.5 46t44.5 18q29 0 47.5 -24t18.5 -68q0 -25 -6 -50q12 -3 25 -3q9 0 21 1.5t24 6.5t22 14.5t15 25.5q2 7 7.5 11.5t11.5 4.5zM414 182q2 9 3 18.5t1 17.5q0 3 -0.5 11.5t-3 17.5t-8 16t-14.5 7q-10 0 -16.5 -6.5t-6.5 -17.5t9.5 -30
t35.5 -34zM238 716q-8 0 -14 6t-6 14t6 14t14 6q2 0 6 2q3 2 7.5 4.5t11.5 8.5q4 3 8 6.5t6 5.5q3 3 5 6q6 7 15 7q8 0 14 -6t6 -14q0 -6 -5 -13q-1 -1 -7 -7.5t-16 -14.5q-29 -25 -51 -25zM328 716q-8 0 -14 6t-6 14t6 14t14 6q2 0 6 2q3 2 7.5 4.5t11.5 8.5q4 3 8 6.5
t6 5.5q3 3 5 6q6 7 15 7q8 0 14 -6t6 -14q0 -6 -5 -13q-1 -1 -7 -7.5t-16 -14.5q-29 -25 -51 -25z" />
    <glyph glyph-name="ohungarumlaut" unicode="&#x151;" horiz-adv-x="299" 
d="M324 227q13 -5 13 -18q0 -5 -1 -7q-28 -79 -111 -90q-15 -56 -46 -83.5t-74 -27.5q-34 0 -59.5 10.5t-42.5 27.5t-25.5 40t-8.5 47q0 33 11.5 59.5t33.5 37.5q0 2 -0.5 5t-0.5 6q0 22 7.5 42.5t20.5 36.5t31.5 25.5t39.5 9.5q54 0 87.5 -45.5t33.5 -125.5
q0 -6 -0.5 -11.5t-0.5 -11.5q26 6 41.5 21t25.5 40q2 6 7 9.5t11 3.5q5 0 7 -1zM193 177q0 24 -5 47.5t-15 42t-23.5 30t-31.5 11.5q-23 0 -32 -21t-9 -50q0 -20 11.5 -36.5t28.5 -28t36 -17.5t34 -6q5 0 5.5 11t0.5 17zM169 80q4 7 7.5 14t5.5 15q-17 0 -35.5 4.5t-36.5 12
t-34 17t-28 21.5q-1 -5 -1 -11v-13q2 -44 16 -71.5t42 -27.5q41 0 64 39zM61 370q-8 0 -14 6t-6 14t6 14t14 6q2 0 6 2q3 2 7.5 4.5t11.5 8.5q4 3 8 6.5t6 5.5q3 3 5 6q6 7 15 7q8 0 14 -6t6 -14q0 -6 -5 -13q-1 -1 -7 -7.5t-16 -14.5q-29 -25 -51 -25zM151 370q-8 0 -14 6
t-6 14t6 14t14 6q2 0 6 2q3 2 7.5 4.5t11.5 8.5q4 3 8 6.5t6 5.5q3 3 5 6q6 7 15 7q8 0 14 -6t6 -14q0 -6 -5 -13q-1 -1 -7 -7.5t-16 -14.5q-29 -25 -51 -25z" />
    <glyph glyph-name="OE" unicode="&#x152;" horiz-adv-x="929" 
d="M953 226q15 -5 15 -19q0 -2 -0.5 -3t-0.5 -3q-31 -95 -100 -145q-44 -32 -88 -43t-87 -13q-75 -2 -139.5 33.5t-106.5 101.5l-1 -4q-11 -29 -29 -53t-41.5 -41.5t-50 -27.5t-53.5 -10q-65 0 -115.5 26.5t-85 72t-52.5 107.5t-18 133q0 70 23.5 134.5t63 114t91.5 79
t110 29.5q66 -2 114 -32t71 -81q38 51 91 81.5t116 30.5q45 0 82.5 -14t64 -39.5t41 -62t14.5 -81.5q0 -42 -14 -78t-39.5 -62.5t-60 -42t-75.5 -15.5q-26 0 -48.5 10.5t-38.5 29.5t-25 44t-9 54t9 53.5t24.5 42.5t38 28t49.5 10q28 0 47.5 -8.5t31 -22t16.5 -29t5 -29.5
q0 -15 -5 -31t-17 -29.5t-31 -22t-47 -8.5q-8 0 -14 6t-6 14t6 14t14 6q31 0 45.5 16t14.5 35q0 18 -14.5 33.5t-45.5 15.5q-38 0 -59.5 -27t-21.5 -67q0 -18 5 -35.5t14.5 -31.5t25 -22.5t36.5 -8.5q33 0 60.5 12t47 33.5t30.5 50.5t11 62q0 29 -9.5 57.5t-29.5 50.5
t-50.5 35.5t-72.5 13.5q-44 0 -82.5 -27t-66.5 -71.5t-44 -101t-16 -116.5q0 -75 18 -132l34 6q60 11 93.5 14.5t48.5 -9.5q10 -8 10 -22q0 -8 -6 -14t-14 -6q-13 0 -18 11q-4 1 -11.5 1t-22.5 -2q-16 -2 -34.5 -5t-38.5 -7q-8 -2 -14 -3t-13 -2q29 -63 78 -95.5t111 -32.5
q34 0 76 12t77 38q59 44 83 123q5 14 19 14q2 0 3 -0.5t3 -0.5zM271 39q24 0 46 11t40.5 28t32 38t20.5 41q-32 0 -45 12q-12 9 -12 26q0 8 6 14t14 6q16 0 20 -16q6 -2 23 -2q-21 57 -24 126q-40 -23 -91 -23q-27 0 -49 10.5t-38 29t-25 43.5t-9 54t9 53.5t24.5 42.5t38 28
t49.5 10q28 0 47.5 -8.5t31 -22t16.5 -29t5 -29.5q0 -15 -5 -31t-17 -29.5t-31 -22t-47 -8.5q-8 0 -14 6t-6 14t6 14t14 6q31 0 45.5 16t14.5 35q0 18 -14.5 33.5t-45.5 15.5q-38 0 -59.5 -27t-21.5 -67q0 -18 5 -35t14.5 -31t25 -22.5t36.5 -8.5q53 0 92 31q8 91 52 168
q-6 24 -18.5 45t-32 36.5t-46 25t-60.5 9.5q-42 0 -80.5 -26.5t-67 -71t-45.5 -101.5t-17 -118q0 -60 14 -114t39.5 -95t61 -65.5t78.5 -24.5z" />
    <glyph glyph-name="oe" unicode="&#x153;" horiz-adv-x="501" 
d="M525 228q16 -4 16 -19q0 -2 -0.5 -2.5t-0.5 -2.5q0 -1 -2 -9.5t-6.5 -22.5t-12 -32t-18.5 -36q-62 -103 -163 -103q-48 0 -80 18.5t-49 50.5q-35 -69 -104 -69q-34 0 -59.5 10.5t-42.5 27.5t-25.5 40t-8.5 47q0 33 11.5 59.5t33.5 37.5q0 2 -0.5 5t-0.5 6q0 22 7.5 42.5
t20.5 36.5t31.5 25.5t39.5 9.5q38 0 66.5 -23.5t42.5 -67.5q23 42 60.5 66.5t83.5 24.5q20 0 38.5 -12.5t18.5 -45.5q0 -39 -39.5 -78.5t-110.5 -69.5q0 -43 16.5 -72t49.5 -29q31 0 55.5 12.5t42.5 31.5t30.5 41t20 41t11 32l3.5 13q5 16 20 16h4zM193 177q0 24 -5 47.5
t-15 42t-23.5 30t-31.5 11.5q-23 0 -32 -21t-9 -50q0 -20 11.5 -36.5t28.5 -28t36 -17.5t34 -6q5 0 5.5 11t0.5 17zM169 80q4 7 7.5 14t5.5 15q-17 0 -35.5 4.5t-36.5 12t-34 17t-28 21.5q-1 -5 -1 -11v-13q2 -44 16 -71.5t42 -27.5q41 0 64 39zM382 288q0 5 -2.5 12.5
t-12.5 7.5q-7 0 -19 -6t-25.5 -20.5t-26 -37t-20.5 -55.5q16 8 35 19t34.5 24t26 27t10.5 29z" />
    <glyph glyph-name="Racute" unicode="&#x154;" horiz-adv-x="1040" 
d="M1064 228q15 -5 15 -20v-4q0 -1 -2 -9.5t-6 -22t-9 -30t-12 -34.5q-21 -56 -42 -81.5t-46 -25.5q-30 0 -56 10t-52 25.5t-53 33t-58 33t-66.5 26.5t-79.5 12q-4 -21 -7 -45.5t-6.5 -45.5t-9.5 -36t-16 -18q-26 0 -41 34t-23.5 87t-11 116t-2.5 122q0 61 5 114.5t16 94.5
q-22 -33 -43 -73t-43 -81t-47 -79t-56 -68t-69 -48t-85 -18q-37 0 -66 15t-49.5 39.5t-31.5 57.5t-11 69q0 38 11.5 70.5t32.5 56t50 36.5t64 13q28 0 52 -9t41.5 -24.5t27 -36.5t9.5 -45q0 -18 -6.5 -38.5t-21.5 -38t-40 -29t-62 -11.5q-8 0 -14 6t-6 14t6 14t14 6
q40 0 65 22t25 55q0 29 -21.5 52t-68.5 23q-54 0 -86 -38t-32 -98q0 -26 7 -51t21.5 -45t37 -32.5t52.5 -12.5q56 0 99.5 34t79 85t66 110t61.5 110t65.5 85t78.5 34q11 0 19.5 -4t8.5 -16q0 -8 -6 -14t-14 -6q-3 0 -8 -3t-11.5 -13.5t-13 -30.5t-12 -55.5t-9 -87.5
t-3.5 -126q0 -42 1.5 -84t3.5 -80q23 107 52.5 191.5t65.5 143.5t78.5 90.5t90.5 31.5q71 0 110 -34t39 -91q0 -50 -24.5 -100.5t-65 -95.5t-92.5 -81t-107 -57q68 -12 110 -34t68 -43.5t41.5 -38t31.5 -16.5q5 0 19 16t32 64q6 16 11 32.5t8.5 29.5t5.5 21.5l2 8.5
q3 15 20 15h4zM665 384q-18 -48 -32.5 -98.5t-25.5 -101.5q61 14 117.5 49.5t100.5 82.5t70.5 100t26.5 101q0 72 -66 75q-56 0 -102.5 -49.5t-88.5 -158.5zM855 658q-8 0 -14 6t-6 14t6 14t14 6q2 0 6 2q3 2 7.5 4.5t11.5 8.5q4 3 8 6.5t6 5.5q3 3 5 6q6 7 15 7q8 0 14 -6
t6 -14q0 -6 -5 -13q-1 -1 -7 -7.5t-16 -14.5q-29 -25 -51 -25z" />
    <glyph glyph-name="racute" unicode="&#x155;" horiz-adv-x="316" 
d="M342 228q16 -4 16 -20q-1 -5 -6 -27.5t-24 -72.5q-38 -107 -88 -107q-14 0 -32 9t-33.5 32t-26 62.5t-10.5 100.5v8t1 8q-14 -13 -32 -21t-39 -8q-31 0 -52 8.5t-33.5 23.5t-18 34t-5.5 40q0 20 6 39t16.5 34t24.5 24t29 9q20 0 30 -14t10 -38q0 -20 -5.5 -52.5
t-16.5 -65.5q4 -2 7.5 -2h6.5q30 0 46.5 18t28.5 39.5t23 39.5t28 18t21 -21.5t4 -78.5q0 -11 -0.5 -22.5t-0.5 -22.5q0 -55 3 -87t7 -49t8 -21.5t5 -3.5q5 0 19 16t32 64q13 35 20 63t7 29q3 15 20 15h4zM115 389q-8 0 -14 6t-6 14t6 14t14 6q2 0 6 2q3 2 7.5 4.5t11.5 8.5
q4 3 8 6.5t6 5.5q3 3 5 6q6 7 15 7q8 0 14 -6t6 -14q0 -6 -5 -13q-1 -1 -7 -7.5t-16 -14.5q-29 -25 -51 -25zM24 329q-3 -14 -3 -28q0 -5 0.5 -10t1.5 -10q5 18 8.5 38t3.5 31q0 2 -0.5 4t-0.5 4q-2 -5 -5 -12t-5 -17z" />
    <glyph glyph-name="Rcaron" unicode="&#x158;" horiz-adv-x="1040" 
d="M1064 228q15 -5 15 -20v-4q0 -1 -2 -9.5t-6 -22t-9 -30t-12 -34.5q-21 -56 -42 -81.5t-46 -25.5q-30 0 -56 10t-52 25.5t-53 33t-58 33t-66.5 26.5t-79.5 12q-4 -21 -7 -45.5t-6.5 -45.5t-9.5 -36t-16 -18q-26 0 -41 34t-23.5 87t-11 116t-2.5 122q0 61 5 114.5t16 94.5
q-22 -33 -43 -73t-43 -81t-47 -79t-56 -68t-69 -48t-85 -18q-37 0 -66 15t-49.5 39.5t-31.5 57.5t-11 69q0 38 11.5 70.5t32.5 56t50 36.5t64 13q28 0 52 -9t41.5 -24.5t27 -36.5t9.5 -45q0 -18 -6.5 -38.5t-21.5 -38t-40 -29t-62 -11.5q-8 0 -14 6t-6 14t6 14t14 6
q40 0 65 22t25 55q0 29 -21.5 52t-68.5 23q-54 0 -86 -38t-32 -98q0 -26 7 -51t21.5 -45t37 -32.5t52.5 -12.5q56 0 99.5 34t79 85t66 110t61.5 110t65.5 85t78.5 34q11 0 19.5 -4t8.5 -16q0 -8 -6 -14t-14 -6q-3 0 -8 -3t-11.5 -13.5t-13 -30.5t-12 -55.5t-9 -87.5
t-3.5 -126q0 -42 1.5 -84t3.5 -80q23 107 52.5 191.5t65.5 143.5t78.5 90.5t90.5 31.5q71 0 110 -34t39 -91q0 -50 -24.5 -100.5t-65 -95.5t-92.5 -81t-107 -57q68 -12 110 -34t68 -43.5t41.5 -38t31.5 -16.5q5 0 19 16t32 64q6 16 11 32.5t8.5 29.5t5.5 21.5l2 8.5
q3 15 20 15h4zM665 384q-18 -48 -32.5 -98.5t-25.5 -101.5q61 14 117.5 49.5t100.5 82.5t70.5 100t26.5 101q0 72 -66 75q-56 0 -102.5 -49.5t-88.5 -158.5zM855 659q-7 0 -14 5t-13 12t-11 15t-8 14q-5 8 -9 19.5t-4 19.5t5.5 13.5t14.5 5.5q6 0 11.5 -3.5t7.5 -10.5
q8 -25 18 -42q5 9 12 23.5t13 29.5q2 6 7.5 9t11.5 3q7 0 13.5 -5.5t6.5 -13.5q0 -6 -3.5 -15t-8.5 -19t-11 -20.5t-11 -19.5q-5 -8 -11.5 -14t-16.5 -6z" />
    <glyph glyph-name="rcaron" unicode="&#x159;" horiz-adv-x="316" 
d="M342 228q14 -4 16 -19q0 -2 -5 -24.5t-25 -76.5q-38 -107 -88 -107q-14 0 -32 9t-33.5 32t-26 62.5t-10.5 100.5v8t1 8q-14 -13 -32 -21t-39 -8q-31 0 -52 8.5t-33.5 23.5t-18 34t-5.5 40q0 20 6 39t16.5 34t24.5 24t29 9q20 0 30 -14t10 -38q0 -20 -5.5 -52.5
t-16.5 -65.5q4 -2 7.5 -2h6.5q30 0 46.5 18t28.5 39.5t23 39.5t28 18t21 -21.5t4 -78.5q0 -11 -0.5 -22.5t-0.5 -22.5q0 -55 3 -87t7 -49t8 -21.5t5 -3.5q5 0 19 16t32 64q13 35 20 63t7 29q3 15 20 15h4zM115 390q-7 0 -14 5t-13 12t-11 15t-8 14q-5 8 -9 19.5t-4 19.5
t5.5 13.5t14.5 5.5q6 0 11.5 -3.5t7.5 -10.5q8 -25 18 -42q5 9 12 23.5t13 29.5q2 6 7.5 9t11.5 3q7 0 13.5 -5.5t6.5 -13.5q0 -6 -3.5 -15t-8.5 -19t-11 -20.5t-11 -19.5q-5 -8 -11.5 -14t-16.5 -6zM24 329q-3 -14 -3 -28q0 -5 0.5 -10t1.5 -10q5 18 8.5 38t3.5 31
q0 2 -0.5 4t-0.5 4q-2 -5 -5 -12t-5 -17z" />
    <glyph glyph-name="Sacute" unicode="&#x15a;" horiz-adv-x="585" 
d="M609 226q14 -5 14 -19q0 -2 -0.5 -3t-0.5 -3q0 -1 -4 -10t-12 -23t-20.5 -32t-30.5 -36q-54 -55 -123.5 -77.5t-148.5 -22.5q-33 0 -59.5 12t-45.5 33.5t-29 52t-10 66.5q0 8 6 14t14 6t14 -6t6 -14q0 -57 27.5 -90.5t75.5 -33.5q17 0 36 5t35 16.5t26.5 30t10.5 45.5
q0 17 -11.5 30.5t-30.5 25.5t-44.5 22.5t-53.5 21.5q-49 19 -94 41.5t-79.5 52.5t-55.5 69.5t-21 92.5q0 51 30 88.5t75 63t97.5 38t97.5 12.5q59 0 106 -15.5t79.5 -43t50 -65t17.5 -80.5q0 -35 -14.5 -64.5t-39.5 -51t-58.5 -33.5t-72.5 -12q-38 0 -71.5 11.5t-58.5 32.5
t-39 50.5t-14 65.5q0 25 9 47.5t25 39t38.5 26t48.5 9.5q30 0 51 -9t33.5 -23.5t18 -31.5t5.5 -32q0 -16 -5.5 -33.5t-18 -31.5t-33 -23.5t-51.5 -9.5q-8 0 -14 6t-6 14t6 14t14 6q30 0 49 17t19 41q0 20 -16.5 38t-51.5 18q-34 0 -57.5 -23t-23.5 -57q0 -56 40 -89t102 -33
q26 0 52 7.5t47 23t34 38.5t13 54q0 72 -56 115t-151 47q-48 0 -89.5 -10.5t-72 -30.5t-48.5 -49t-18 -65t16 -63.5t43.5 -50t63.5 -41t76 -36.5q41 -20 76 -38.5t60.5 -39.5t40 -46t14.5 -58q0 -29 -17 -54q36 17 61 41t41 46t23.5 37.5t7.5 16.5q2 6 7 9.5t11 3.5
q5 0 7 -1zM301 722q-8 0 -14 6t-6 14t6 14t14 6q2 0 6 2q3 2 7.5 4.5t11.5 8.5q4 3 8 6.5t6 5.5q3 3 5 6q6 7 15 7q8 0 14 -6t6 -14q0 -6 -5 -13q-1 -1 -7 -7.5t-16 -14.5q-29 -25 -51 -25z" />
    <glyph glyph-name="sacute" unicode="&#x15b;" horiz-adv-x="290" 
d="M316 227q12 -5 12 -19q0 -5 -1 -7q0 -1 -2.5 -9.5t-8.5 -22.5t-16 -31.5t-26 -35.5q-41 -47 -91 -74t-104 -27q-13 0 -29.5 4t-31.5 16t-25 34.5t-10 58.5q0 9 6 14.5t14 5.5t14 -5.5t6 -14.5q0 -37 15.5 -54t37.5 -19q32 0 53.5 21.5t21.5 57.5q0 20 -15.5 29.5
t-51.5 21.5q-25 8 -47.5 19t-40 26.5t-27.5 38t-10 54.5q0 19 6 36.5t16.5 30.5t23.5 20.5t28 7.5q20 0 29.5 -14t9.5 -38q0 -18 -4 -41.5t-11 -52.5q41 -18 73 -31.5t54.5 -28.5t34 -35t11.5 -50q30 35 42.5 62t17.5 41q4 12 18 12q5 0 8 -1zM13 311q0 -15 9 -27
q3 18 6.5 35.5t3.5 29.5q0 5 -0.5 8.5t-0.5 5.5q-5 -4 -11.5 -17.5t-6.5 -34.5zM27 422q-8 0 -14 6t-6 14t6 14t14 6q2 0 6 2q3 2 7.5 4.5t11.5 8.5q4 3 8 6.5t6 5.5q3 3 5 6q6 7 15 7q8 0 14 -6t6 -14q0 -6 -5 -13q-1 -1 -7 -7.5t-16 -14.5q-29 -25 -51 -25z" />
    <glyph glyph-name="Scedilla" unicode="&#x15e;" horiz-adv-x="585" 
d="M266 -239q-6 0 -10 3q-8 4 -10 11.5t2 15.5q10 17 21.5 41.5t19.5 48.5q9 30 8 42t-3 14q0 1 -2 2.5t-10 1.5t-14 6t-6 14t6 14t14 6q20 0 31 -7.5t16 -15.5q17 -31 -2 -89q-9 -26 -21 -52t-23 -45q-5 -11 -17 -11zM609 226q14 -5 14 -19q0 -2 -0.5 -3t-0.5 -3
q0 -1 -4 -10t-12 -23t-20.5 -32t-30.5 -36q-54 -55 -123.5 -77.5t-148.5 -22.5q-33 0 -59.5 12t-45.5 33.5t-29 52t-10 66.5q0 8 6 14t14 6t14 -6t6 -14q0 -57 27.5 -90.5t75.5 -33.5q17 0 36 5t35 16.5t26.5 30t10.5 45.5q0 17 -11.5 30.5t-30.5 25.5t-44.5 22.5
t-53.5 21.5q-49 19 -94 41.5t-79.5 52.5t-55.5 69.5t-21 92.5q0 51 30 88.5t75 63t97.5 38t97.5 12.5q59 0 106 -15.5t79.5 -43t50 -65t17.5 -80.5q0 -35 -14.5 -64.5t-39.5 -51t-58.5 -33.5t-72.5 -12q-38 0 -71.5 11.5t-58.5 32.5t-39 50.5t-14 65.5q0 25 9 47.5t25 39
t38.5 26t48.5 9.5q30 0 51 -9t33.5 -23.5t18 -31.5t5.5 -32q0 -16 -5.5 -33.5t-18 -31.5t-33 -23.5t-51.5 -9.5q-8 0 -14 6t-6 14t6 14t14 6q30 0 49 17t19 41q0 20 -16.5 38t-51.5 18q-34 0 -57.5 -23t-23.5 -57q0 -56 40 -89t102 -33q26 0 52 7.5t47 23t34 38.5t13 54
q0 72 -56 115t-151 47q-48 0 -89.5 -10.5t-72 -30.5t-48.5 -49t-18 -65t16 -63.5t43.5 -50t63.5 -41t76 -36.5q41 -20 76 -38.5t60.5 -39.5t40 -46t14.5 -58q0 -29 -17 -54q36 17 61 41t41 46t23.5 37.5t7.5 16.5q2 6 7 9.5t11 3.5q5 0 7 -1z" />
    <glyph glyph-name="scedilla" unicode="&#x15f;" horiz-adv-x="290" 
d="M66 -239q-6 0 -10 3q-8 4 -10 11.5t2 15.5q10 17 21.5 41.5t19.5 48.5q9 30 8 42t-3 14q0 1 -2 2.5t-10 1.5t-14 6t-6 14t6 14t14 6q20 0 31 -7.5t16 -15.5q17 -31 -2 -89q-9 -26 -21 -52t-23 -45q-5 -11 -17 -11zM316 227q12 -5 12 -19q0 -5 -1 -7q0 -1 -2.5 -9.5
t-8.5 -22.5t-16 -31.5t-26 -35.5q-41 -47 -91 -74t-104 -27q-13 0 -29.5 4t-31.5 16t-25 34.5t-10 58.5q0 9 6 14.5t14 5.5t14 -5.5t6 -14.5q0 -37 15.5 -54t37.5 -19q32 0 53.5 21.5t21.5 57.5q0 20 -15.5 29.5t-51.5 21.5q-25 8 -47.5 19t-40 26.5t-27.5 38t-10 54.5
q0 19 6 36.5t16.5 30.5t23.5 20.5t28 7.5q20 0 29.5 -14t9.5 -38q0 -18 -4 -41.5t-11 -52.5q41 -18 73 -31.5t54.5 -28.5t34 -35t11.5 -50q30 35 42.5 62t17.5 41q4 12 18 12q5 0 8 -1zM13 311q0 -15 9 -27q3 18 6.5 35.5t3.5 29.5q0 5 -0.5 8.5t-0.5 5.5q-5 -4 -11.5 -17.5
t-6.5 -34.5z" />
    <glyph glyph-name="Scaron" unicode="&#x160;" horiz-adv-x="585" 
d="M609 226q14 -5 14 -19q0 -2 -0.5 -3t-0.5 -3q0 -1 -4 -10t-12 -23t-20.5 -32t-30.5 -36q-54 -55 -123.5 -77.5t-148.5 -22.5q-33 0 -59.5 12t-45.5 33.5t-29 52t-10 66.5q0 8 6 14t14 6t14 -6t6 -14q0 -57 27.5 -90.5t75.5 -33.5q17 0 36 5t35 16.5t26.5 30t10.5 45.5
q0 17 -11.5 30.5t-30.5 25.5t-44.5 22.5t-53.5 21.5q-49 19 -94 41.5t-79.5 52.5t-55.5 69.5t-21 92.5q0 51 30 88.5t75 63t97.5 38t97.5 12.5q59 0 106 -15.5t79.5 -43t50 -65t17.5 -80.5q0 -35 -14.5 -64.5t-39.5 -51t-58.5 -33.5t-72.5 -12q-38 0 -71.5 11.5t-58.5 32.5
t-39 50.5t-14 65.5q0 25 9 47.5t25 39t38.5 26t48.5 9.5q30 0 51 -9t33.5 -23.5t18 -31.5t5.5 -32q0 -16 -5.5 -33.5t-18 -31.5t-33 -23.5t-51.5 -9.5q-8 0 -14 6t-6 14t6 14t14 6q30 0 49 17t19 41q0 20 -16.5 38t-51.5 18q-34 0 -57.5 -23t-23.5 -57q0 -56 40 -89t102 -33
q26 0 52 7.5t47 23t34 38.5t13 54q0 72 -56 115t-151 47q-48 0 -89.5 -10.5t-72 -30.5t-48.5 -49t-18 -65t16 -63.5t43.5 -50t63.5 -41t76 -36.5q41 -20 76 -38.5t60.5 -39.5t40 -46t14.5 -58q0 -29 -17 -54q36 17 61 41t41 46t23.5 37.5t7.5 16.5q2 6 7 9.5t11 3.5
q5 0 7 -1zM301 723q-7 0 -14 5t-13 12t-11 15t-8 14q-5 8 -9 19.5t-4 19.5t5.5 13.5t14.5 5.5q6 0 11.5 -3.5t7.5 -10.5q8 -25 18 -42q5 9 12 23.5t13 29.5q2 6 7.5 9t11.5 3q7 0 13.5 -5.5t6.5 -13.5q0 -6 -3.5 -15t-8.5 -19t-11 -20.5t-11 -19.5q-5 -8 -11.5 -14t-16.5 -6
z" />
    <glyph glyph-name="scaron" unicode="&#x161;" horiz-adv-x="290" 
d="M316 227q12 -5 12 -19q0 -5 -1 -7q0 -1 -2.5 -9.5t-8.5 -22.5t-16 -31.5t-26 -35.5q-41 -47 -91 -74t-104 -27q-13 0 -29.5 4t-31.5 16t-25 34.5t-10 58.5q0 9 6 14.5t14 5.5t14 -5.5t6 -14.5q0 -37 15.5 -54t37.5 -19q32 0 53.5 21.5t21.5 57.5q0 20 -15.5 29.5
t-51.5 21.5q-25 8 -47.5 19t-40 26.5t-27.5 38t-10 54.5q0 19 6 36.5t16.5 30.5t23.5 20.5t28 7.5q20 0 29.5 -14t9.5 -38q0 -18 -4 -41.5t-11 -52.5q41 -18 73 -31.5t54.5 -28.5t34 -35t11.5 -50q30 35 42.5 62t17.5 41q4 12 18 12q5 0 8 -1zM13 311q0 -15 9 -27
q3 18 6.5 35.5t3.5 29.5q0 5 -0.5 8.5t-0.5 5.5q-5 -4 -11.5 -17.5t-6.5 -34.5zM27 423q-7 0 -14 5t-13 12t-11 15t-8 14q-5 8 -9 19.5t-4 19.5t5.5 13.5t14.5 5.5q6 0 11.5 -3.5t7.5 -10.5q8 -25 18 -42q5 9 12 23.5t13 29.5q2 6 7.5 9t11.5 3q7 0 13.5 -5.5t6.5 -13.5
q0 -6 -3.5 -15t-8.5 -19t-11 -20.5t-11 -19.5q-5 -8 -11.5 -14t-16.5 -6z" />
    <glyph glyph-name="uni0162" unicode="&#x162;" horiz-adv-x="686" 
d="M709 228q16 -5 16 -20v-4q0 -1 -2 -9.5t-6 -22t-9 -30t-12 -34.5q-40 -107 -88 -107q-43 0 -78 28t-59.5 77t-38 116t-13.5 144q0 90 20 164q-30 -40 -61.5 -76t-66 -63t-72.5 -43t-81 -16q-36 0 -65 14.5t-50 39.5t-32 58t-11 70q0 38 11.5 70.5t32.5 56t50 36.5t64 13
q28 0 52 -9t41 -24.5t27 -36.5t10 -45q0 -22 -8.5 -43t-25 -37.5t-40.5 -26.5t-56 -10q-8 0 -14 6t-6 14t6 14t14 6q40 0 65 21.5t25 55.5q0 28 -21.5 51.5t-68.5 23.5q-27 0 -49 -10.5t-37.5 -29t-23.5 -43.5t-8 -53q0 -26 7 -51t21.5 -45.5t37 -33t52.5 -12.5
q51 0 90.5 23.5t74 59.5t66.5 77t66.5 77t75 59.5t92.5 23.5q10 0 27 -1.5t33.5 -6t29 -11.5t12.5 -18q0 -8 -5.5 -14t-13.5 -6q-4 0 -8 2q-41 15 -75 15q-28 0 -52 -9t-45 -24q-19 -27 -29 -78.5t-10 -119.5q0 -69 10.5 -137t27 -122t38 -87.5t44.5 -33.5q6 0 19.5 16
t31.5 64q12 34 19.5 62.5t8.5 29.5q3 15 19 15h4zM586 -239q-6 0 -10 3q-8 4 -10 11.5t2 15.5q10 17 21.5 41.5t19.5 48.5q9 30 8 42t-3 14q0 1 -2 2.5t-10 1.5t-14 6t-6 14t6 14t14 6q20 0 31 -7.5t16 -15.5q17 -31 -2 -89q-9 -26 -21 -52t-23 -45q-5 -11 -17 -11z" />
    <glyph glyph-name="uni0163" unicode="&#x163;" horiz-adv-x="178" 
d="M203 228q16 -4 16 -20v-3q0 -1 -2 -9.5t-5 -22t-7.5 -30.5t-10.5 -35q-35 -108 -84 -108q-17 0 -35.5 10.5t-35 36.5t-27.5 70t-12 112q0 36 3 71.5t9 67t15 57.5t20 42q-20 0 -31.5 -4t-11.5 -6q0 -7 -5.5 -13t-15.5 -6q-8 0 -14 6t-6 14q0 21 18 31.5t45 15t58.5 5.5
t58.5 3q8 1 16 3t8 5q0 4 5 9t13 5q9 0 14.5 -6t5.5 -14q0 -25 -26.5 -33.5t-66.5 -10.5q-3 -6 -8.5 -20t-10.5 -40.5t-9 -68t-4 -103.5q0 -47 3.5 -82.5t8.5 -60.5t10 -39t8 -17q6 1 18.5 17.5t27.5 62.5q11 35 17 63t6 29q3 16 20 16h4zM66 -239q-6 0 -10 3q-8 4 -10 11.5
t2 15.5q10 17 21.5 41.5t19.5 48.5q9 30 8 42t-3 14q0 1 -2 2.5t-10 1.5t-14 6t-6 14t6 14t14 6q20 0 31 -7.5t16 -15.5q17 -31 -2 -89q-9 -26 -21 -52t-23 -45q-5 -11 -17 -11z" />
    <glyph glyph-name="Tcaron" unicode="&#x164;" horiz-adv-x="686" 
d="M709 228q16 -5 16 -20v-4q0 -1 -2 -9.5t-6 -22t-9 -30t-12 -34.5q-40 -107 -88 -107q-43 0 -78 28t-59.5 77t-38 116t-13.5 144q0 90 20 164q-30 -40 -61.5 -76t-66 -63t-72.5 -43t-81 -16q-36 0 -65 14.5t-50 39.5t-32 58t-11 70q0 38 11.5 70.5t32.5 56t50 36.5t64 13
q28 0 52 -9t41 -24.5t27 -36.5t10 -45q0 -22 -8.5 -43t-25 -37.5t-40.5 -26.5t-56 -10q-8 0 -14 6t-6 14t6 14t14 6q40 0 65 21.5t25 55.5q0 28 -21.5 51.5t-68.5 23.5q-27 0 -49 -10.5t-37.5 -29t-23.5 -43.5t-8 -53q0 -26 7 -51t21.5 -45.5t37 -33t52.5 -12.5
q51 0 90.5 23.5t74 59.5t66.5 77t66.5 77t75 59.5t92.5 23.5q10 0 27 -1.5t33.5 -6t29 -11.5t12.5 -18q0 -8 -5.5 -14t-13.5 -6q-4 0 -8 2q-41 15 -75 15q-28 0 -52 -9t-45 -24q-19 -27 -29 -78.5t-10 -119.5q0 -69 10.5 -137t27 -122t38 -87.5t44.5 -33.5q6 0 19.5 16
t31.5 64q12 34 19.5 62.5t8.5 29.5q3 15 19 15h4zM487 706q-7 0 -14 5t-13 12t-11 15t-8 14q-5 8 -9 19.5t-4 19.5t5.5 13.5t14.5 5.5q6 0 11.5 -3.5t7.5 -10.5q8 -25 18 -42q5 9 12 23.5t13 29.5q2 6 7.5 9t11.5 3q7 0 13.5 -5.5t6.5 -13.5q0 -6 -3.5 -15t-8.5 -19
t-11 -20.5t-11 -19.5q-5 -8 -11.5 -14t-16.5 -6z" />
    <glyph glyph-name="tcaron" unicode="&#x165;" horiz-adv-x="295" 
d="M203 228q16 -4 16 -20v-3q0 -1 -2 -9.5t-5 -22t-7.5 -30.5t-10.5 -35q-35 -108 -84 -108q-17 0 -35.5 10.5t-35 36.5t-27.5 70t-12 112q0 36 3 71.5t9 67t15 57.5t20 42q-20 0 -31.5 -4t-11.5 -6q0 -7 -5.5 -13t-15.5 -6q-8 0 -14 6t-6 14q0 21 18 31.5t45 15t58.5 5.5
t58.5 3q8 1 16 3t8 5q0 4 5 9t13 5q9 0 14.5 -6t5.5 -14q0 -25 -26.5 -33.5t-66.5 -10.5q-3 -6 -8.5 -20t-10.5 -40.5t-9 -68t-4 -103.5q0 -47 3.5 -82.5t8.5 -60.5t10 -39t8 -17q6 1 18.5 17.5t27.5 62.5q11 35 17 63t6 29q3 16 20 16h4zM224 436q-6 0 -10 3q-8 4 -10 11.5
t2 15.5q10 17 21.5 41.5t19.5 48.5q9 30 8 42t-3 14q0 1 -2 2.5t-10 1.5t-14 6t-6 14t6 14t14 6q20 0 31 -7.5t16 -15.5q17 -31 -2 -89q-9 -26 -21 -52t-23 -45q-5 -11 -17 -11z" />
    <glyph glyph-name="Uring" unicode="&#x16e;" horiz-adv-x="1099" 
d="M1124 228q14 -4 16 -18v-1q-1 -3 -5 -25.5t-24 -76.5q-40 -107 -89 -107q-44 0 -82.5 33.5t-65.5 96.5q-41 -64 -89 -97t-101 -33t-94.5 31.5t-70.5 86t-44.5 127t-15.5 153.5q0 61 9 112q-27 -50 -56 -105t-65 -101t-82 -76t-107 -30q-36 0 -65.5 14.5t-50 39
t-31.5 57.5t-11 70q0 38 11.5 70t32.5 55.5t50 37t64 13.5q57 0 93 -32t36 -83q0 -19 -6.5 -39.5t-21.5 -38t-39.5 -28.5t-61.5 -11q-8 0 -14 6t-6 14t6 14t14 6q37 0 63 20.5t26 56.5q0 28 -21.5 51.5t-67.5 23.5q-31 0 -53 -11.5t-36.5 -31t-21.5 -44t-7 -49.5
q0 -26 7 -51t21.5 -45t37 -32.5t52.5 -12.5q57 0 100 34t77.5 85t64 110t61 110t68 85t84.5 34q11 0 16.5 -6t5.5 -14t-6 -14t-14 -6q-17 0 -31 -21t-24 -56t-16 -82t-6 -98q0 -63 8 -126.5t26 -115.5t45.5 -84.5t66.5 -32.5q94 0 171 137q-19 57 -29.5 123.5t-10.5 132.5
q0 74 12 123.5t30.5 79.5t40 42.5t41.5 12.5q7 0 17 -4t19 -17t15 -38t6 -66q0 -38 -5.5 -82t-16 -90.5t-24.5 -91.5t-30 -84q16 -85 45.5 -131.5t56.5 -46.5q5 0 19 16.5t32 64.5q13 34 20 62.5t7 29.5q3 15 20 15h4zM894 455q0 -83 12 -162q26 75 38 148.5t12 124.5
q0 38 -6.5 63.5t-10.5 21.5q-17 0 -31 -53.5t-14 -142.5zM747 706q-22 0 -35 17.5t-13 38.5q0 23 12.5 38t34.5 15q20 0 33 -15t13 -39q0 -23 -12 -38t-32 -17h-1zM746 785q-17 0 -17 -22q0 -19 8 -23t10 -4q4 0 10 5t6 19t-6.5 19.5t-10.5 5.5z" />
    <glyph glyph-name="uring" unicode="&#x16f;" 
d="M406 228q15 -4 15 -24q0 -1 -2 -9.5t-6 -22t-9 -30t-12 -34.5q-21 -56 -42 -81.5t-46 -25.5q-11 0 -22.5 3.5t-23 13t-22 27t-19.5 45.5q-31 -89 -88 -89q-29 0 -53 15.5t-41 43.5t-26 65.5t-9 81.5q0 42 7 69t17 43t21 22t20 6q8 0 14 -6t6 -14q0 -21 -3 -61t-3 -85
q0 -47 5 -74.5t12 -42t14.5 -18.5t11.5 -5q19 0 33 16.5t23 41.5t15 55t9 57q1 40 6 66.5t12.5 42t17 21.5t19.5 6q4 0 8.5 -1.5t8 -7.5t5.5 -18t2 -33v-90q0 -53 3 -84t7 -47t8 -20.5t5 -4.5q5 0 19 16t32 64q6 16 11 32.5t8.5 29.5t5.5 21.5l2 8.5q3 15 20 15h4zM155 364
q-22 0 -35 17.5t-13 38.5q0 23 12.5 38t34.5 15q20 0 33 -15t13 -39q0 -23 -12 -38t-32 -17h-1zM154 443q-17 0 -17 -22q0 -19 8 -23t10 -4q4 0 10 5t6 19t-6.5 19.5t-10.5 5.5z" />
    <glyph glyph-name="Uhungarumlaut" unicode="&#x170;" horiz-adv-x="1099" 
d="M1124 228q14 -4 16 -18q0 -1 -0.5 -6.5t-3.5 -17.5t-9 -31.5t-16 -47.5q-40 -107 -89 -107q-44 0 -82.5 33.5t-65.5 96.5q-41 -64 -89 -97t-101 -33t-94.5 31.5t-70.5 86t-44.5 127t-15.5 153.5q0 61 9 112q-27 -50 -56 -105t-65 -101t-82 -76t-107 -30q-36 0 -65.5 14.5
t-50 39t-31.5 57.5t-11 70q0 38 11.5 70t32.5 55.5t50 37t64 13.5q57 0 93 -32t36 -83q0 -19 -6.5 -39.5t-21.5 -38t-39.5 -28.5t-61.5 -11q-8 0 -14 6t-6 14t6 14t14 6q37 0 63 20.5t26 56.5q0 28 -21.5 51.5t-67.5 23.5q-31 0 -53 -11.5t-36.5 -31t-21.5 -44t-7 -49.5
q0 -26 7 -51t21.5 -45t37 -32.5t52.5 -12.5q57 0 100 34t77.5 85t64 110t61 110t68 85t84.5 34q11 0 16.5 -6t5.5 -14t-6 -14t-14 -6q-17 0 -31 -21t-24 -56t-16 -82t-6 -98q0 -63 8 -126.5t26 -115.5t45.5 -84.5t66.5 -32.5q94 0 171 137q-19 57 -29.5 123.5t-10.5 132.5
q0 74 12 123.5t30.5 79.5t40 42.5t41.5 12.5q7 0 17 -4t19 -17t15 -38t6 -66q0 -38 -5.5 -82t-16 -90.5t-24.5 -91.5t-30 -84q16 -85 45.5 -131.5t56.5 -46.5q5 0 19 16.5t32 64.5q13 34 20 62.5t7 29.5q3 15 20 15h4zM894 455q0 -83 12 -162q26 75 38 148.5t12 124.5
q0 38 -6.5 63.5t-10.5 21.5q-17 0 -31 -53.5t-14 -142.5zM696 712q-8 0 -14 6t-6 14t6 14t14 6q2 0 6 2q3 2 7.5 4.5t11.5 8.5q4 3 8 6.5t6 5.5q3 3 5 6q6 7 15 7q8 0 14 -6t6 -14q0 -6 -5 -13q-1 -1 -7 -7.5t-16 -14.5q-29 -25 -51 -25zM786 712q-8 0 -14 6t-6 14t6 14
t14 6q2 0 6 2q3 2 7.5 4.5t11.5 8.5q4 3 8 6.5t6 5.5q3 3 5 6q6 7 15 7q8 0 14 -6t6 -14q0 -6 -5 -13q-1 -1 -7 -7.5t-16 -14.5q-29 -25 -51 -25z" />
    <glyph glyph-name="uhungarumlaut" unicode="&#x171;" 
d="M406 228q15 -4 15 -24q0 -1 -2 -9.5t-6 -22t-9 -30t-12 -34.5q-21 -56 -42 -81.5t-46 -25.5q-11 0 -22.5 3.5t-23 13t-22 27t-19.5 45.5q-31 -89 -88 -89q-29 0 -53 15.5t-41 43.5t-26 65.5t-9 81.5q0 42 7 69t17 43t21 22t20 6q8 0 14 -6t6 -14q0 -21 -3 -61t-3 -85
q0 -47 5 -74.5t12 -42t14.5 -18.5t11.5 -5q19 0 33 16.5t23 41.5t15 55t9 57q1 40 6 66.5t12.5 42t17 21.5t19.5 6q4 0 8.5 -1.5t8 -7.5t5.5 -18t2 -33v-90q0 -53 3 -84t7 -47t8 -20.5t5 -4.5q5 0 19 16t32 64q6 16 11 32.5t8.5 29.5t5.5 21.5l2 8.5q3 15 20 15h4zM194 370
q-8 0 -14 6t-6 14t6 14t14 6q2 0 6 2q3 2 7.5 4.5t11.5 8.5q4 3 8 6.5t6 5.5q3 3 5 6q6 7 15 7q8 0 14 -6t6 -14q0 -6 -5 -13q-1 -1 -7 -7.5t-16 -14.5q-29 -25 -51 -25zM104 370q-8 0 -14 6t-6 14t6 14t14 6q2 0 6 2q3 2 7.5 4.5t11.5 8.5q4 3 8 6.5t6 5.5q3 3 5 6
q6 7 15 7q8 0 14 -6t6 -14q0 -6 -5 -13q-1 -1 -7 -7.5t-16 -14.5q-29 -25 -51 -25z" />
    <glyph glyph-name="Ydieresis" unicode="&#x178;" horiz-adv-x="1063" 
d="M1086 227q14 -5 14 -19q0 -2 -0.5 -3t-0.5 -3q-24 -72 -90 -114q-11 -7 -32 -16.5t-42 -18t-36.5 -14.5l-15.5 -6q-9 -109 -34 -156.5t-65 -47.5q-34 0 -55.5 21.5t-21.5 56.5q0 18 7 39t21 40.5t35 37t49 29.5v29.5t-1 31.5q-62 -54 -134 -54q-52 0 -93.5 28.5t-71 78.5
t-45 118t-15.5 147q0 42 6 83q-27 -50 -55.5 -104t-64 -99t-81 -74.5t-106.5 -29.5q-37 0 -66 15t-49.5 39.5t-31.5 57.5t-11 69q0 38 11.5 70.5t32.5 56t50 36.5t64 13q28 0 52 -8.5t41 -24t26.5 -36.5t9.5 -46q0 -18 -6 -39t-21 -38t-40 -28.5t-62 -11.5q-8 0 -14 6t-6 14
t6 14t14 6q23 0 39.5 7t27.5 18t16.5 24.5t5.5 27.5q0 29 -21 52t-68 23q-54 0 -86 -38t-32 -98q0 -26 7 -51t21.5 -45t37 -32.5t52.5 -12.5q57 0 99.5 33.5t77 83.5t64.5 109t60.5 110t65.5 85.5t80 36.5q11 0 20.5 -3.5t9.5 -16.5q0 -8 -6 -14t-14 -6q-20 0 -34.5 -21.5
t-24 -55t-14 -75.5t-4.5 -83q0 -58 8 -117t25.5 -106.5t45.5 -77.5t67 -30q42 0 74.5 20t58.5 49q0 46 -2 93.5t-2 93.5q0 162 23.5 236t81.5 74q8 0 19.5 -4.5t22 -18t17.5 -39t7 -67.5q0 -41 -7 -85t-19.5 -88.5t-30 -86t-38.5 -77.5q0 -65 -3 -123q27 9 54 20t50 26.5
t41.5 37.5t29.5 54q5 13 18 13q5 0 7 -1zM889 288q26 60 40.5 126t14.5 123q0 38 -7.5 63.5t-18.5 25.5q-2 -2 -5.5 -7t-7.5 -17t-7 -32.5t-5 -53.5q-3 -48 -3.5 -106.5t-0.5 -121.5zM750 -111q5 -12 14.5 -16t18.5 -4q-1 0 4.5 1.5t12 14.5t12.5 41.5t6 81.5
q-21 -11 -34.5 -25t-21.5 -28.5t-11.5 -27t-3.5 -20.5q0 -11 3 -18zM707 716q-8 0 -14 6t-6 14t6 14t14 6t14 -6t6 -14t-6 -14t-14 -6zM787 716q-8 0 -14 6t-6 14t6 14t14 6t14 -6t6 -14t-6 -14t-14 -6z" />
    <glyph glyph-name="Zacute" unicode="&#x179;" horiz-adv-x="896" 
d="M919 228q15 -5 15 -19q0 -21 -11 -38.5t-28.5 -32t-40 -24.5t-46.5 -16q15 -38 15 -76q0 -41 -14.5 -76t-40.5 -61t-61.5 -40.5t-76.5 -14.5q-30 0 -58 11t-50 30t-35.5 44t-13.5 52q0 37 20 66t53.5 49t77 30.5t90.5 10.5q-26 38 -72 62t-115 24q-8 0 -14 6t-6 14t6 14
t14 6q58 0 104.5 26t79 65.5t50 86t17.5 88.5q0 63 -35.5 98t-99.5 35q-35 0 -63 -17t-52.5 -45.5t-46.5 -65t-44 -75.5q-29 -51 -58.5 -95.5t-63 -78.5t-72 -53.5t-85.5 -19.5q-36 0 -65.5 14.5t-50 39t-31.5 57.5t-11 70t11.5 69.5t32 56t49.5 37t65 13.5q57 0 93 -32
t36 -83q0 -22 -8 -43t-24.5 -37.5t-40.5 -26.5t-56 -10q-8 0 -14 6t-6 14t6 14t14 6q23 0 39.5 7t27.5 18t16.5 24.5t5.5 27.5q0 28 -21.5 51.5t-67.5 23.5q-55 0 -86.5 -39t-31.5 -97q0 -26 7 -51t21.5 -45t37 -32.5t52.5 -12.5q40 0 73.5 18.5t63 49.5t55.5 72t52 87
t52 86.5t55 71t62 48t72 17.5q51 0 90 -13.5t65.5 -38.5t40.5 -59t14 -75q0 -45 -15.5 -87t-42.5 -77t-62.5 -63t-74.5 -44q44 -16 76.5 -39t54.5 -57q39 8 67.5 25.5t38.5 53.5q3 15 18 15q2 0 3 -0.5t3 -0.5zM520 -62q13 -29 43.5 -48.5t61.5 -19.5q27 0 49 11t38 30.5
t25 46t9 57.5q0 37 -12 70q-42 -5 -81.5 -11t-70 -18.5t-49.5 -33.5t-19 -54q0 -15 6 -30zM643 715q-8 0 -14 6t-6 14t6 14t14 6q2 0 6 2q3 2 7.5 4.5t11.5 8.5q4 3 8 6.5t6 5.5q3 3 5 6q6 7 15 7q8 0 14 -6t6 -14q0 -6 -5 -13q-1 -1 -7 -7.5t-16 -14.5q-29 -25 -51 -25z
" />
    <glyph glyph-name="zacute" unicode="&#x17a;" horiz-adv-x="334" 
d="M361 227q13 -3 13 -19q0 -4 -1 -6q-12 -33 -28 -59t-35.5 -47t-41 -38.5t-42.5 -33.5q-1 0 -1.5 -0.5t-1.5 -0.5q24 -33 24 -75q0 -25 -9 -46.5t-25.5 -37t-39.5 -24.5t-50 -9q-24 0 -39.5 14t-15.5 39q0 28 21.5 62.5t56.5 64.5q-12 16 -30.5 26t-44.5 10q-8 0 -14 6
t-6 14t6 14t14 6q24 0 47 12.5t41 33.5t29 48t11 55q0 11 -2.5 23.5t-10 23t-20.5 17.5t-35 7q-40 0 -65.5 -26.5t-25.5 -65.5q0 -3 0.5 -11t4 -16.5t11 -15t20.5 -6.5q8 0 14 -6t6 -14t-6 -14t-14 -6q-34 0 -55 25t-21 64q0 20 6.5 43.5t22 43t40.5 32.5t62 13
q66 0 105.5 -33t39.5 -84q0 -47 -27.5 -91.5t-79.5 -70.5q8 -4 14.5 -8t11.5 -8l6 4q21 16 41 32t37.5 34.5t31.5 41t24 51.5q5 13 19 13q5 0 7 -1zM131 369q-8 0 -14 6t-6 14t6 14t14 6q2 0 6 2q3 2 7.5 4.5t11.5 8.5q4 3 8 6.5t6 5.5q3 3 5 6q6 7 15 7q8 0 14 -6t6 -14
q0 -6 -5 -13q-1 -1 -7 -7.5t-16 -14.5q-29 -25 -51 -25zM134 -60q-15 -20 -20 -34t-5 -22q0 -4 0.5 -8.5t13.5 -4.5q21 0 33 20t12 49q0 18 -4 33q-17 -15 -30 -33z" />
    <glyph glyph-name="Zdotaccent" unicode="&#x17b;" horiz-adv-x="896" 
d="M919 228q15 -5 15 -19q0 -21 -11 -38.5t-28.5 -32t-40 -24.5t-46.5 -16q15 -38 15 -76q0 -41 -14.5 -76t-40.5 -61t-61.5 -40.5t-76.5 -14.5q-30 0 -58 11t-50 30t-35.5 44t-13.5 52q0 37 20 66t53.5 49t77 30.5t90.5 10.5q-26 38 -72 62t-115 24q-8 0 -14 6t-6 14t6 14
t14 6q58 0 104.5 26t79 65.5t50 86t17.5 88.5q0 63 -35.5 98t-99.5 35q-35 0 -63 -17t-52.5 -45.5t-46.5 -65t-44 -75.5q-29 -51 -58.5 -95.5t-63 -78.5t-72 -53.5t-85.5 -19.5q-36 0 -65.5 14.5t-50 39t-31.5 57.5t-11 70t11.5 69.5t32 56t49.5 37t65 13.5q57 0 93 -32
t36 -83q0 -22 -8 -43t-24.5 -37.5t-40.5 -26.5t-56 -10q-8 0 -14 6t-6 14t6 14t14 6q23 0 39.5 7t27.5 18t16.5 24.5t5.5 27.5q0 28 -21.5 51.5t-67.5 23.5q-55 0 -86.5 -39t-31.5 -97q0 -26 7 -51t21.5 -45t37 -32.5t52.5 -12.5q40 0 73.5 18.5t63 49.5t55.5 72t52 87
t52 86.5t55 71t62 48t72 17.5q51 0 90 -13.5t65.5 -38.5t40.5 -59t14 -75q0 -45 -15.5 -87t-42.5 -77t-62.5 -63t-74.5 -44q44 -16 76.5 -39t54.5 -57q39 8 67.5 25.5t38.5 53.5q3 15 18 15q2 0 3 -0.5t3 -0.5zM520 -62q13 -29 43.5 -48.5t61.5 -19.5q27 0 49 11t38 30.5
t25 46t9 57.5q0 37 -12 70q-42 -5 -81.5 -11t-70 -18.5t-49.5 -33.5t-19 -54q0 -15 6 -30zM643 716q-8 0 -14 6t-6 14t6 14t14 6t14 -6t6 -14t-6 -14t-14 -6z" />
    <glyph glyph-name="zdotaccent" unicode="&#x17c;" horiz-adv-x="334" 
d="M361 227q13 -3 13 -19q0 -4 -1 -6q-12 -33 -28 -59t-35.5 -47t-41 -38.5t-42.5 -33.5q-1 0 -1.5 -0.5t-1.5 -0.5q24 -33 24 -75q0 -25 -9 -46.5t-25.5 -37t-39.5 -24.5t-50 -9q-24 0 -39.5 14t-15.5 39q0 28 21.5 62.5t56.5 64.5q-12 16 -30.5 26t-44.5 10q-8 0 -14 6
t-6 14t6 14t14 6q24 0 47 12.5t41 33.5t29 48t11 55q0 11 -2.5 23.5t-10 23t-20.5 17.5t-35 7q-40 0 -65.5 -26.5t-25.5 -65.5q0 -3 0.5 -11t4 -16.5t11 -15t20.5 -6.5q8 0 14 -6t6 -14t-6 -14t-14 -6q-34 0 -55 25t-21 64q0 20 6.5 43.5t22 43t40.5 32.5t62 13
q66 0 105.5 -33t39.5 -84q0 -47 -27.5 -91.5t-79.5 -70.5q8 -4 14.5 -8t11.5 -8l6 4q21 16 41 32t37.5 34.5t31.5 41t24 51.5q5 13 19 13q5 0 7 -1zM134 -60q-15 -20 -20 -34t-5 -22q0 -4 0.5 -8.5t13.5 -4.5q21 0 33 20t12 49q0 18 -4 33q-17 -15 -30 -33zM131 370
q-8 0 -14 6t-6 14t6 14t14 6t14 -6t6 -14t-6 -14t-14 -6z" />
    <glyph glyph-name="Zcaron" unicode="&#x17d;" horiz-adv-x="896" 
d="M919 228q15 -5 15 -19q0 -21 -11 -38.5t-28.5 -32t-40 -24.5t-46.5 -16q15 -38 15 -76q0 -41 -14.5 -76t-40.5 -61t-61.5 -40.5t-76.5 -14.5q-30 0 -58 11t-50 30t-35.5 44t-13.5 52q0 37 20 66t53.5 49t77 30.5t90.5 10.5q-26 38 -72 62t-115 24q-8 0 -14 6t-6 14t6 14
t14 6q58 0 104.5 26t79 65.5t50 86t17.5 88.5q0 63 -35.5 98t-99.5 35q-35 0 -63 -17t-52.5 -45.5t-46.5 -65t-44 -75.5q-29 -51 -58.5 -95.5t-63 -78.5t-72 -53.5t-85.5 -19.5q-36 0 -65.5 14.5t-50 39t-31.5 57.5t-11 70t11.5 69.5t32 56t49.5 37t65 13.5q57 0 93 -32
t36 -83q0 -22 -8 -43t-24.5 -37.5t-40.5 -26.5t-56 -10q-8 0 -14 6t-6 14t6 14t14 6q23 0 39.5 7t27.5 18t16.5 24.5t5.5 27.5q0 28 -21.5 51.5t-67.5 23.5q-55 0 -86.5 -39t-31.5 -97q0 -26 7 -51t21.5 -45t37 -32.5t52.5 -12.5q40 0 73.5 18.5t63 49.5t55.5 72t52 87
t52 86.5t55 71t62 48t72 17.5q51 0 90 -13.5t65.5 -38.5t40.5 -59t14 -75q0 -45 -15.5 -87t-42.5 -77t-62.5 -63t-74.5 -44q44 -16 76.5 -39t54.5 -57q39 8 67.5 25.5t38.5 53.5q3 15 18 15q2 0 3 -0.5t3 -0.5zM520 -62q13 -29 43.5 -48.5t61.5 -19.5q27 0 49 11t38 30.5
t25 46t9 57.5q0 37 -12 70q-42 -5 -81.5 -11t-70 -18.5t-49.5 -33.5t-19 -54q0 -15 6 -30zM643 716q-7 0 -14 5t-13 12t-11 15t-8 14q-5 8 -9 19.5t-4 19.5t5.5 13.5t14.5 5.5q6 0 11.5 -3.5t7.5 -10.5q8 -25 18 -42q5 9 12 23.5t13 29.5q2 6 7.5 9t11.5 3q7 0 13.5 -5.5
t6.5 -13.5q0 -6 -3.5 -15t-8.5 -19t-11 -20.5t-11 -19.5q-5 -8 -11.5 -14t-16.5 -6z" />
    <glyph glyph-name="zcaron" unicode="&#x17e;" horiz-adv-x="334" 
d="M361 227q13 -3 13 -19q0 -4 -1 -6q-12 -33 -28 -59t-35.5 -47t-41 -38.5t-42.5 -33.5q-1 0 -1.5 -0.5t-1.5 -0.5q24 -33 24 -75q0 -25 -9 -46.5t-25.5 -37t-39.5 -24.5t-50 -9q-24 0 -39.5 14t-15.5 39q0 28 21.5 62.5t56.5 64.5q-12 16 -30.5 26t-44.5 10q-8 0 -14 6
t-6 14t6 14t14 6q24 0 47 12.5t41 33.5t29 48t11 55q0 11 -2.5 23.5t-10 23t-20.5 17.5t-35 7q-40 0 -65.5 -26.5t-25.5 -65.5q0 -3 0.5 -11t4 -16.5t11 -15t20.5 -6.5q8 0 14 -6t6 -14t-6 -14t-14 -6q-34 0 -55 25t-21 64q0 20 6.5 43.5t22 43t40.5 32.5t62 13
q66 0 105.5 -33t39.5 -84q0 -47 -27.5 -91.5t-79.5 -70.5q8 -4 14.5 -8t11.5 -8l6 4q21 16 41 32t37.5 34.5t31.5 41t24 51.5q5 13 19 13q5 0 7 -1zM131 370q-7 0 -14 5t-13 12t-11 15t-8 14q-5 8 -9 19.5t-4 19.5t5.5 13.5t14.5 5.5q6 0 11.5 -3.5t7.5 -10.5q8 -25 18 -42
q5 9 12 23.5t13 29.5q2 6 7.5 9t11.5 3q7 0 13.5 -5.5t6.5 -13.5q0 -6 -3.5 -15t-8.5 -19t-11 -20.5t-11 -19.5q-5 -8 -11.5 -14t-16.5 -6zM134 -60q-15 -20 -20 -34t-5 -22q0 -4 0.5 -8.5t13.5 -4.5q21 0 33 20t12 49q0 18 -4 33q-17 -15 -30 -33z" />
    <glyph glyph-name="circumflex" unicode="&#x2c6;" horiz-adv-x="168" 
d="M83 634q10 0 18.5 -9.5t24.5 -38.5q5 -9 12 -23.5t7 -22.5q0 -7 -5.5 -13t-14.5 -6q-6 0 -11.5 3t-7.5 9q-6 15 -13 29.5t-12 23.5q-10 -17 -18 -42q-2 -7 -7.5 -10.5t-11.5 -3.5q-8 0 -14 5t-6 14q0 10 4.5 20t9.5 21q8 16 18 30t27 14z" />
    <glyph glyph-name="caron" unicode="&#x2c7;" horiz-adv-x="166" 
d="M82 525q-7 0 -14 5t-13 12t-11 15t-8 14q-5 8 -9 19.5t-4 19.5t5.5 13.5t14.5 5.5q6 0 11.5 -3.5t7.5 -10.5q8 -25 18 -42q5 9 12 23.5t13 29.5q2 6 7.5 9t11.5 3q7 0 13.5 -5.5t6.5 -13.5q0 -6 -3.5 -15t-8.5 -19t-11 -20.5t-11 -19.5q-5 -8 -11.5 -14t-16.5 -6z" />
    <glyph glyph-name="breve" unicode="&#x2d8;" horiz-adv-x="178" 
d="M87 525q-11 0 -27.5 8t-26.5 39q-4 14 -4.5 25t-0.5 13q0 8 6 14t14 6t14 -6t6 -14q-1 -5 0 -9q0 -4 1 -8.5t3 -9.5q4 -14 8.5 -16t6.5 -2q6 0 10 6.5t7 15t4 17.5t1 15q0 8 6 14t14 6t14 -6t6 -14q0 -1 -1 -14t-5 -28q-5 -17 -12 -27t-15 -15.5t-15.5 -7.5t-13.5 -2z
" />
    <glyph glyph-name="dotaccent" unicode="&#x2d9;" horiz-adv-x="155" 
d="M77 525q-8 0 -14 6t-6 14t6 14t14 6t14 -6t6 -14t-6 -14t-14 -6z" />
    <glyph glyph-name="ring" unicode="&#x2da;" horiz-adv-x="151" 
d="M77 519q-22 0 -35 17.5t-13 38.5q0 23 12.5 38t34.5 15q20 0 33 -15t13 -39q0 -23 -12 -38t-32 -17h-1zM76 598q-17 0 -17 -22q0 -19 8 -23t10 -4q4 0 10 5t6 19t-6.5 19.5t-10.5 5.5z" />
    <glyph glyph-name="ogonek" unicode="&#x2db;" horiz-adv-x="133" 
d="M42 8q1 6 6.5 11.5t12.5 5.5q8 0 13.5 -6t6.5 -15v-4q-4 -20 -8 -46t-4 -52q0 -18 2 -29t4 -17q1 -2 3.5 -6.5t6.5 -4.5q3 0 6 1.5t8 1.5q8 0 14 -5.5t6 -15.5q0 -6 -3.5 -11t-10.5 -7q-12 -3 -20 -3q-11 0 -19 3t-13 8q-24 21 -24 79q0 32 4 61.5t9 50.5z" />
    <glyph glyph-name="tilde" unicode="&#x2dc;" horiz-adv-x="200" 
d="M128 524q-18 0 -33 18q-9 10 -13 22q-6 0 -8 -5.5t-2 -12.5q0 -8 -5.5 -13.5t-14.5 -5.5q-8 0 -14 5.5t-6 13.5q0 30 17 45q13 13 35 13q16 0 24.5 -10t11.5 -18q4 -8 7 -11l4 14q5 17 22 17q8 0 13 -6.5t5 -15.5q0 -3 -4 -17.5t-17 -24.5q-10 -8 -22 -8z" />
    <glyph glyph-name="hungarumlaut" unicode="&#x2dd;" horiz-adv-x="241" 
d="M44 525q-8 0 -14 6t-6 14t6 14t14 6q2 0 6 2q3 2 7.5 4.5t11.5 8.5q4 3 8 6.5t6 5.5q3 3 5 6q6 7 15 7q8 0 14 -6t6 -14q0 -6 -5 -13q-1 -1 -7 -7.5t-16 -14.5q-29 -25 -51 -25zM134 525q-8 0 -14 6t-6 14t6 14t14 6q2 0 6 2q3 2 7.5 4.5t11.5 8.5q4 3 8 6.5t6 5.5
q3 3 5 6q6 7 15 7q8 0 14 -6t6 -14q0 -6 -5 -13q-1 -1 -7 -7.5t-16 -14.5q-29 -25 -51 -25z" />
    <glyph glyph-name="quoteleft" unicode="&#x2018;" horiz-adv-x="137" 
d="M90 631q5 0 10 -3q8 -4 10 -11.5t-2 -15.5q-10 -17 -21.5 -41.5t-19.5 -48.5q-9 -30 -8 -42t3 -14q0 -1 2 -2.5t10 -1.5t14 -6t6 -14t-6 -14t-14 -6q-20 0 -31 7.5t-16 15.5q-17 31 2 89q9 26 21 52t23 45q5 11 17 11z" />
    <glyph glyph-name="quoteright" unicode="&#x2019;" horiz-adv-x="134" 
d="M46 411q-6 0 -10 3q-8 4 -10 11.5t2 15.5q10 17 21.5 41.5t19.5 48.5q9 30 8 42t-3 14q0 1 -2 2.5t-10 1.5t-14 6t-6 14t6 14t14 6q20 0 31 -7.5t16 -15.5q17 -31 -2 -89q-9 -26 -21 -52t-23 -45q-5 -11 -17 -11z" />
    <glyph glyph-name="quotesinglbase" unicode="&#x201a;" horiz-adv-x="134" 
d="M46 -159q-6 0 -10 3q-8 4 -10 11.5t2 15.5q10 17 21.5 41.5t19.5 48.5q9 30 8 42t-3 14q0 1 -2 2.5t-10 1.5t-14 6t-6 14t6 14t14 6q20 0 31 -7.5t16 -15.5q17 -31 -2 -89q-9 -26 -21 -52t-23 -45q-5 -11 -17 -11z" />
    <glyph glyph-name="quotedblleft" unicode="&#x201c;" horiz-adv-x="256" 
d="M201 631q5 0 10 -3q8 -4 10 -11.5t-2 -15.5q-10 -17 -21.5 -41.5t-19.5 -48.5q-9 -30 -8 -42t3 -14q0 -1 2 -2.5t10 -1.5t14 -6t6 -14t-6 -14t-14 -6q-20 0 -31 7.5t-16 15.5q-17 31 2 89q9 26 21 52t23 45q5 11 17 11zM101 631q5 0 10 -3q8 -4 10 -11.5t-2 -15.5
q-10 -17 -21.5 -41.5t-19.5 -48.5q-9 -30 -8 -42t3 -14q0 -1 2 -2.5t10 -1.5t14 -6t6 -14t-6 -14t-14 -6q-20 0 -31 7.5t-16 15.5q-17 31 2 89q9 26 21 52t23 45q5 11 17 11z" />
    <glyph glyph-name="quotedblright" unicode="&#x201d;" horiz-adv-x="253" 
d="M54 411q-6 0 -10 3q-8 4 -10 11.5t2 15.5q10 17 21.5 41.5t19.5 48.5q9 30 8 42t-3 14q0 1 -2 2.5t-10 1.5t-14 6t-6 14t6 14t14 6q20 0 31 -7.5t16 -15.5q17 -31 -2 -89q-9 -26 -21 -52t-23 -45q-5 -11 -17 -11zM154 411q-6 0 -10 3q-8 4 -10 11.5t2 15.5
q10 17 21.5 41.5t19.5 48.5q9 30 8 42t-3 14q0 1 -2 2.5t-10 1.5t-14 6t-6 14t6 14t14 6q20 0 31 -7.5t16 -15.5q17 -31 -2 -89q-9 -26 -21 -52t-23 -45q-5 -11 -17 -11z" />
    <glyph glyph-name="quotedblbase" unicode="&#x201e;" horiz-adv-x="253" 
d="M54 -159q-6 0 -10 3q-8 4 -10 11.5t2 15.5q10 17 21.5 41.5t19.5 48.5q9 30 8 42t-3 14q0 1 -2 2.5t-10 1.5t-14 6t-6 14t6 14t14 6q20 0 31 -7.5t16 -15.5q17 -31 -2 -89q-9 -26 -21 -52t-23 -45q-5 -11 -17 -11zM154 -159q-6 0 -10 3q-8 4 -10 11.5t2 15.5
q10 17 21.5 41.5t19.5 48.5q9 30 8 42t-3 14q0 1 -2 2.5t-10 1.5t-14 6t-6 14t6 14t14 6q20 0 31 -7.5t16 -15.5q17 -31 -2 -89q-9 -26 -21 -52t-23 -45q-5 -11 -17 -11z" />
    <glyph glyph-name="Euro" unicode="&#x20ac;" horiz-adv-x="429" 
d="M269 265q-16 -13 -48 -13h-77q-1 -10 -1.5 -19.5t-0.5 -19.5q0 -5 0.5 -8.5t0.5 -7.5v-16h32q26 0 41 1.5t22.5 3t11 3t6.5 1.5q8 0 14 -5.5t6 -13.5q0 -15 -16 -22t-39 -7h-72q4 -18 12 -36.5t21.5 -33.5t33.5 -24t49 -9q49 0 89 42q6 6 15 6q8 0 14 -5.5t6 -13.5
t-6 -14q-52 -55 -118 -55q-167 0 -196 145q-27 0 -35 3.5t-8 16.5q0 8 5.5 14t13.5 6q3 0 7 -0.5t12 -0.5v13v29t2 29q-25 0 -32.5 3.5t-7.5 16.5q0 8 5.5 14t13.5 6h9.5t16.5 -1q11 49 29 89.5t43.5 69t57 44t69.5 15.5q34 0 53.5 -20.5t29.5 -46.5t12 -50.5t2 -32.5
q0 -10 -5.5 -16.5t-15.5 -6.5q-19 2 -19 21v6q0 12 -2 30t-8 35t-17.5 29t-29.5 12q-21 0 -40.5 -13.5t-35 -37.5t-27.5 -57t-18 -72h30q25 0 38.5 1.5t21 3t10.5 3t7 1.5q8 0 14 -5.5t6 -13.5q0 -10 -7 -16z" />
    <glyph glyph-name="t_t.001" unicode="&#xe000;" horiz-adv-x="326" 
d="M614 717q8 0 14 -6t6 -14q0 -36 -40.5 -53t-136.5 -17q-45 0 -95 3t-105 7q-5 -33 -9 -76.5t-7 -91.5t-4.5 -98.5t-1.5 -98.5q0 -60 2.5 -102t6.5 -69.5t8 -41.5t6 -17q5 4 17 20.5t28 61.5q11 35 17 60q4 14 6 28q3 16 20 16q8 0 13.5 -6t5.5 -14v-3q0 -1 -1.5 -9
t-4.5 -21t-7.5 -29.5t-10.5 -34.5q-36 -104 -82 -111q-11 0 -22 4t-21.5 16t-20.5 33.5t-17 56.5q-17 -53 -37.5 -79.5t-43.5 -30.5q-51 0 -76 92.5t-25 273.5q1 82 8.5 158t21.5 130q-57 3 -106 3q-138 0 -171 -30q-5 -5 -6.5 -11t-3.5 -12t-5.5 -10t-12.5 -4q-8 0 -14 6
t-6 14q0 44 50 65.5t162 21.5q29 0 60.5 -1t64.5 -3q19 59 57 59q8 0 14 -5.5t6 -14.5q0 -6 -4 -15t-8 -28q23 -2 46.5 -3.5t46.5 -3.5q22 70 61 70q8 0 14 -5.5t6 -14.5q0 -5 -4.5 -18t-9.5 -37q53 -4 101 -7t90 -3q51 0 79 3.5t42 9.5t17.5 12t4.5 12t3 9.5t14 3.5z
M141 124q11 31 16.5 56.5t6.5 30.5q-6 70 -6 155q0 77 7.5 151t19.5 126l-89 7q-5 -33 -9 -77.5t-7 -94.5t-5 -103t-2 -103q0 -60 2.5 -102t6.5 -69.5t8 -41.5t6 -17q6 4 17.5 20.5t27.5 61.5z" />
    <glyph glyph-name="A.ss01" unicode="&#xe001;" horiz-adv-x="790" 
d="M712 41q11 0 17.5 -6t6.5 -14t-6 -14t-18 -6q-25 0 -50 12t-47.5 35t-41 57t-30.5 79q-13 -1 -26 -1h-27q-30 0 -60.5 1t-59.5 1q-50 -95 -99 -141t-113 -46q-36 0 -65 14.5t-50 39.5t-32 58t-11 70q0 36 11.5 68t32 56t49.5 38t65 14q35 0 59.5 -12t40 -31t22.5 -42.5
t7 -46.5q14 1 28.5 1h29.5q20 45 38 93.5t35 97.5q18 50 34 97t36 85t46 63.5t63 31.5q10 0 17 -4.5t7 -15.5q0 -8 -5 -13.5t-13 -6.5q-12 -6 -20 -45t-8 -99q0 -67 8.5 -141t24.5 -140q40 5 51 13.5t11 13.5q0 6 4.5 13t15.5 7q8 0 14 -6t6 -14q0 -25 -21 -41.5t-70 -24.5
q9 -30 19 -57t21.5 -47t24.5 -32t28 -12zM309 156q5 7 8.5 14l7.5 15h-23.5t-22.5 -1q-14 -35 -40 -52t-52 -17q-22 0 -35.5 12t-13.5 31q0 26 24.5 42t84.5 22q0 15 -4 32t-13.5 30.5t-27 22.5t-44.5 9t-49 -10.5t-37.5 -29t-23.5 -43.5t-8 -53q0 -26 7 -51t21.5 -45.5
t37 -33t52.5 -12.5q82 0 151 118zM418 224q29 -1 57.5 -1h55.5q-16 57 -24.5 119t-8.5 122q0 17 1 32t3 30q-14 -33 -27 -71t-27 -77t-29 -78t-31 -75q8 -1 15 -1h15zM232 180q-19 -3 -29.5 -6.5t-16 -6.5t-7 -5.5t-1.5 -4.5t9 -2q10 0 22 6t23 19z" />
    </font>
</defs>
</svg>
